<svg width="450" height="470" viewBox="0 0 450 470" fill="none" xmlns="http://www.w3.org/2000/svg">
<rect width="450" height="470" fill="#96C6C5"/>
<path d="M151.776 158.367L155.623 165.766L165.248 170.605L182.959 173.722H193.742L203.08 172.4L206.778 170.551L206.547 166.544H209.318L212.785 168.105L224.334 175.611L233.161 189.243L238.503 202.093L244.106 213.216L245.569 216.279L244.18 217.772L238.578 218.671L232.863 219.535L235.427 231.831L240.458 246.628L243.433 252.804L244.28 256.195L242.126 257.418L231.655 257.868L225.429 257.148L208.95 254.868L197.247 252.862L189.396 251.639L176.503 250.861L167.065 251.36L161.83 253.919L155.604 252.862L119.771 259.555L104.064 261.727L91.899 262.177V253.496C91.899 253.276 93.9036 242.374 93.9036 242.374L99.6747 225.517L104.524 213.238L110.302 200.762L119.465 184.57L125.934 175.836L135.017 165.492L144.262 160.373L151.776 158.367Z" fill="#105E74" fill-opacity="0.7"/>
<path d="M88.9293 372.229L85.443 373.866L84.1232 379.111V391.951L85.6484 400.402L85.0259 409.353L82.3615 420.448L83.3015 423.916L94.389 425.881L122.534 430.703L140.669 433.595L169.387 437.301L185.1 438.65C185.1 438.65 203.273 438.708 203.733 438.65C204.194 438.591 228.293 436.037 228.293 436.037L247.623 434.76L269.412 432.646L275.638 431.868L277.717 433.014L289.11 432.718L322.995 432.16C323.144 432.16 344.908 431.476 344.908 431.476C344.908 431.476 364.207 430.752 364.369 430.752C365.118 430.098 365.821 429.416 366.474 428.71L363.081 422.557L357.54 419.702L347.99 416.513L337.214 412.951L329.463 409.613L321.911 406.015L316.987 402.606L310.569 399.192L304.561 395.779L299.687 392.442C299.687 392.442 292.602 387.881 292.446 387.809C292.291 387.737 282.386 380.91 282.386 380.91L267.314 368.897L260.628 362.186L254.402 355.916L248.551 352.656L242.599 350.911L238.745 352.354L233.41 354.806L226.481 358.624L218.239 363.144L215.749 366.801L215.082 372.49L213.837 375.346L210.451 378.085L204.188 382.763L198.13 384.764L195.254 385.506L185.623 379.785L177.02 372.274L168.267 364.08L163.635 357.702L159.974 353.92L154.44 351.671L148.787 353.02L139.237 355.912L131.536 359.096L127.428 364.903L124.937 369.184L115.904 379.273L109.436 385.502L104.829 388.78L100.415 389.149L94.0528 387.224L88.506 380.842L88.9293 372.229Z" fill="#105E74" fill-opacity="0.7"/>
<path d="M153.786 163.665L156.556 138.407L156.251 135.016L150.318 134.238L145.008 130.23V124.5L147.859 118.658L152.398 117.268L154.464 116.27L132.688 26.9292L138.228 29.3759L145.238 33.4373L146.546 21.757L158.249 29.322L161.026 17.4168L171.342 26.5379L177.966 15.0241L187.509 23.4256L193.442 13.3555L203.067 20.9744L210.456 11.9072L220.778 21.8109L226.63 11.9072L234.175 21.5906L243.719 13.243L250.573 22.535L262.277 13.189L265.359 71.541L270.053 75.0491L272.132 79.7221L271.827 82.6141L278.681 89.9002L280.68 95.4638L281.452 101.527L279.142 107.31L274.174 112.541L271.211 114.655L272.213 118.937L269.748 122L268.59 124.946L274.174 140.3L275.444 143.692L273.06 147.254L254.657 152.372L240.413 153.762L230.017 153.874L224.962 153.708L223.237 155.709L219.695 158.992L214.154 160.774L208.919 160.881L207.07 162.217L205.762 169.895L205.221 172.634L198.597 174.289L188.897 174.01L176.266 172.899L168.416 171.343L159.943 167.947L155.018 165.388L153.786 163.665Z" fill="#FFE020" fill-opacity="0.7"/>
<path d="M120.822 222.733V233.189L122.852 252.048L125.591 264.565H128.828L154.241 257.998L152.678 251.211V234.961L154.241 225.067V222.733L143.153 221.729L120.822 222.733Z" fill="#FFE020" fill-opacity="0.7"/>
<path d="M232.831 219.283L238.782 240.422L240.426 233.226V218.5L232.831 219.283Z" fill="#FFE020" fill-opacity="0.7"/>
<path d="M95.4097 305.951L96.1816 338.105V340.997L106.342 343.97L124.202 345.225L145.923 343.111L152.08 341.842L153.157 311.735L133.908 311.515L122.59 310.26L111.888 308.956L95.4097 305.951Z" fill="#FFE020" fill-opacity="0.7"/>
<path d="M182.628 301.279L184.19 336.55L185.037 340.418L192.047 341.443H204.828L216.725 340.719L226.387 339.608L231.697 338.299L230.85 329.039L230.315 305.701L230.078 298.387L225.963 299.431L219.227 299.692L208.75 299.863L197.469 299.692L191.698 298.527L186.27 298.109L184.688 298.495L182.628 301.279Z" fill="#FFE020" fill-opacity="0.7"/>
<path d="M208.895 121.77C225.336 121.77 238.665 112.141 238.665 100.263C238.665 88.3844 225.336 78.7551 208.895 78.7551C192.453 78.7551 179.124 88.3844 179.124 100.263C179.124 112.141 192.453 121.77 208.895 121.77Z" fill="white" fill-opacity="0.7"/>
<path d="M281.459 99.2323C281.465 102.335 280.539 105.402 278.742 108.22C276.946 111.038 274.323 113.541 271.056 115.554L268.609 112.028L262.652 110.395H249.578L237.276 109.496L235.122 110.683L231.599 115.109C227.941 112.696 225.174 109.663 223.548 106.282C221.923 102.902 221.49 99.2826 222.29 95.7512C223.09 92.2199 225.097 88.8885 228.129 86.0589C231.161 83.2294 235.122 80.991 239.653 79.5467C244.185 78.1023 249.144 77.4977 254.081 77.7874C259.017 78.0772 263.776 79.2523 267.926 81.2062C272.075 83.1601 275.484 85.8311 277.844 88.9772C280.204 92.1232 281.44 95.645 281.44 99.2233L281.459 99.2323Z" fill="white" fill-opacity="0.7"/>
<path d="M125.994 265.342L123.504 258.776L105.799 261.614L93.7091 262.064L91.3995 285.708L89.5319 299.335V304.062L96.1557 306.235L122.564 310.283L135.961 311.182L151.98 311.74L174.615 309.941L178.774 307.939L185.168 298.094L198.795 299.596C198.795 299.596 209.571 299.817 210.113 299.817C210.655 299.817 231.672 297.761 231.672 297.761L239.528 295.922L239.068 288.802L238.371 258.263L224.674 257.058L215.56 255.87L206.397 254.035L195.776 252.421L185.068 251.197L176.906 250.748L172.287 251.139L157.888 256.145L150.268 259.203L132.631 263.701L125.994 265.342Z" fill="white" fill-opacity="0.7"/>
<path d="M98.1183 341.555L94.6818 340.705L92.5776 341.128L90.8283 343.188L91.8679 346.934L93.113 348.9L92.5465 357.985C92.5465 357.985 91.6936 370.52 91.9239 370.129C92.1543 369.737 90.5792 381.436 90.5792 381.436L92.6834 385.776L96.481 388.447L99.9734 389.077H103.671L111.727 383.513C111.727 383.513 121.532 373.277 121.844 373.057C122.155 372.836 128.872 362.815 128.872 362.815L137.189 356.739L145.121 354.234L152.741 352.179L153.214 349.673L153.961 347.784L156.513 345.194L155.667 343.053L153.214 341.812L148.202 342.711L132.34 345.185L120.866 345.603L109.007 344.38L98.1183 341.555Z" fill="white" fill-opacity="0.7"/>
<path d="M185.027 340.786L182.256 341.973L180.719 343.457L181.341 345.679L182.636 348.499L182.263 362.847L181.08 373.497L182.263 377.725C182.263 377.725 192.846 384.188 192.846 384.273C192.846 384.359 195.336 386.027 195.336 386.027C195.336 386.027 202.57 382.546 202.775 382.506C202.981 382.465 211.248 377.315 211.248 377.315L215.276 373.349V368.954L216.97 363.778L227.752 357.931L235.758 353.478L235.216 343.912L235.758 341.02L232.832 338.681L228.904 339.072L220.437 340.795L211.273 341.964L199.8 341.573L187.174 341.434L185.027 340.786Z" fill="white" fill-opacity="0.7"/>
<path d="M178.761 410.656L175.867 414.169L173.731 418.005L176.452 421.855L183.281 424.729L198.577 425.786H223.834L242.622 424.729L254.532 422.449L260.707 420.744L255.864 418.815L243.544 414.169L235.432 410.283H230.371L215.311 412.064L205.662 414.196L198.478 415.775L191.493 414.511L182.254 412.064L178.761 410.656Z" fill="white" fill-opacity="0.7"/>
<path d="M277.406 405.21L273.671 407.243L271.679 410.283V414.196L277.406 419.409L294.06 422.08L317.779 422.894L332.047 422.301L346.727 420.745L351.346 418.815L350.525 417.259L338.41 412.883L327.839 408.952L321.931 406.019L318.594 405.983L312.848 407.319L305.763 409.689L298.847 410.58L292.111 410.283L284.354 407.688L277.406 405.21Z" fill="white" fill-opacity="0.7"/>
<path d="M131.741 382.483L126.2 388.276L117.279 398.715L110.811 406.5L107.885 413.4L105.395 419.629L104.473 425.165V426.964L83.3068 423.906L82.3667 425.777L80.6111 436.976L81.3333 442.171L84.6203 446.619C84.6203 446.619 90.3665 449.587 90.7773 449.587C91.1882 449.587 104.33 452.331 104.33 452.331L127.327 453.68L155.665 455.758L185.025 457.98L199.399 458.277L225.372 458.947L241.39 457.472L263.26 454.939L278.656 450.892L283.481 451.886L316.438 452.254L344.571 451.44L362.538 449.587L366.491 446.174L368.901 438.672L367.774 431.862L366.491 430.378L360.994 430.526L349.589 431.471H324.239L304.429 432.303L286.151 432.897L277.735 433.009L274.622 432.006L264.867 432.676L236.329 435.42L216.731 437.259L200.396 438.015L186.948 438.388L173.701 437.664L137.462 433.342L137.356 428.966L140.232 420.695L145.879 416.804L156.145 410.957C156.145 410.957 162.202 407.62 162.613 407.323C163.024 407.026 165.9 403.316 165.9 403.316L161.486 400.406L152.858 394.797L147.828 392.549L143.725 387.52L139.012 385.501L131.741 382.483Z" fill="white" fill-opacity="0.7"/>
<path d="M228.553 382.47L224.756 386.994L221.164 391.951L218.082 396.763L217.422 398.89L227.632 405.758L242.174 413.508L245.393 414.956L249.913 412.806L262.233 402.569L260.073 398.715L252.783 394.793L246.626 391.951L241.085 386.922L234.716 384.278L228.553 382.47Z" fill="white" fill-opacity="0.7"/>
<path d="M153.189 280.248C153.325 280.247 153.461 280.235 153.594 280.212C160.541 278.993 169.525 275.305 173.92 269.818C175.166 268.341 175.975 266.693 176.296 264.978C176.618 263.264 176.444 261.52 175.788 259.856C175.66 259.541 175.365 259.276 174.967 259.118C174.569 258.96 174.1 258.923 173.665 259.015C173.229 259.107 172.861 259.32 172.643 259.608C172.425 259.895 172.373 260.234 172.5 260.549C173.59 263.247 173.073 265.946 170.963 268.581C167.097 273.407 158.829 276.749 152.791 277.81C152.385 277.883 152.03 278.06 151.792 278.308C151.555 278.556 151.451 278.859 151.501 279.159C151.55 279.458 151.75 279.735 152.062 279.935C152.374 280.136 152.777 280.247 153.195 280.248H153.189Z" fill="#1D1D1B" fill-opacity="0.7"/>
<path d="M119.073 353.406C126.393 353.337 133.682 352.709 140.819 351.53C141.039 351.496 141.247 351.431 141.432 351.338C141.617 351.246 141.775 351.128 141.897 350.991C142.019 350.855 142.103 350.702 142.143 350.542C142.183 350.382 142.18 350.218 142.132 350.059C142.085 349.9 141.995 349.75 141.867 349.616C141.739 349.482 141.576 349.368 141.387 349.28C141.197 349.192 140.986 349.132 140.765 349.103C140.544 349.073 140.316 349.076 140.097 349.11C113.034 353.338 102.98 348.849 102.793 348.764C102.607 348.673 102.398 348.61 102.177 348.577C101.957 348.545 101.73 348.544 101.509 348.575C101.288 348.605 101.078 348.667 100.89 348.757C100.703 348.847 100.541 348.962 100.415 349.097C100.289 349.231 100.202 349.383 100.157 349.542C100.112 349.701 100.11 349.865 100.153 350.025C100.196 350.184 100.282 350.336 100.406 350.472C100.53 350.607 100.69 350.724 100.876 350.815C101.181 350.963 106.361 353.406 119.073 353.406Z" fill="#1D1D1B" fill-opacity="0.7"/>
<path d="M368.684 430.64C368.399 430.269 368.028 429.936 367.588 429.655C367.856 426.506 366.275 419.67 355.822 417.696C355.415 417.616 355.014 417.521 354.621 417.412H354.558C347.816 415.613 327.602 407.787 324.676 406.263C322.776 405.175 320.966 404.008 319.254 402.768C316.963 401.185 314.983 399.818 313.613 399.251C310.35 397.698 307.231 395.993 304.275 394.146C304.421 394.075 304.56 393.996 304.692 393.912C305.022 393.691 305.288 393.425 305.475 393.13C305.662 392.835 305.767 392.516 305.783 392.191C305.8 391.866 305.727 391.543 305.57 391.238C305.412 390.934 305.173 390.655 304.867 390.418C303.927 389.684 302.152 388.866 299.071 389.127C298.339 389.192 297.616 389.302 296.911 389.455L295.286 388.362C295.801 388.177 296.242 387.9 296.568 387.557C297.079 387.015 297.271 386.348 297.101 385.704C296.932 385.06 296.416 384.49 295.665 384.121C294.215 383.41 291.75 382.745 288.045 383.302C287.361 382.808 286.676 382.313 285.997 381.809C286.697 381.622 287.293 381.274 287.694 380.82C288.095 380.365 288.278 379.828 288.217 379.29C288.156 378.753 287.852 378.245 287.354 377.844C286.855 377.443 286.189 377.17 285.456 377.069C283.619 376.85 281.741 376.904 279.934 377.226C279.112 376.592 278.303 375.953 277.512 375.319C278.271 375.094 278.891 374.677 279.255 374.145C279.454 373.854 279.571 373.537 279.601 373.213C279.63 372.888 279.57 372.563 279.425 372.256C279.28 371.948 279.052 371.664 278.755 371.421C278.457 371.177 278.096 370.978 277.692 370.835C275.651 370.115 273.37 369.827 271.112 370.003C270.346 369.342 269.612 368.685 268.896 368.042C269.427 367.973 269.927 367.814 270.356 367.578C270.785 367.342 271.129 367.035 271.361 366.683C271.593 366.331 271.705 365.945 271.689 365.555C271.673 365.166 271.528 364.785 271.268 364.444C270.452 363.387 268.448 361.651 264.028 361.786C263.575 361.809 263.124 361.85 262.677 361.907C254.067 352.575 247.113 348.842 240.713 350.182C239.278 350.504 237.945 351.028 236.791 351.725L236.536 344.947C237.862 343.301 238.148 341.798 237.395 340.449C236.536 338.924 234.6 338.124 233.28 337.751L232.222 299.413C238.335 298.226 240.514 296.782 240.701 296.647C240.866 296.53 240.997 296.39 241.084 296.235C241.172 296.081 241.215 295.915 241.211 295.747L240.072 259.074C242.936 258.831 244.791 258.003 245.569 256.582C246.347 255.161 245.619 253.807 245.115 252.777C244.224 251.005 243.39 249.179 242.568 247.155C242.637 243.688 242.319 239.766 242.014 235.97C241.827 233.667 241.647 231.499 241.554 229.475C241.361 225.103 241.286 223.39 241.859 219.436H242.114C242.883 219.457 243.648 219.342 244.341 219.101C245.034 218.859 245.636 218.499 246.092 218.051C246.558 217.594 246.862 217.06 246.977 216.498C247.092 215.936 247.015 215.362 246.752 214.826C244.922 211.099 243.224 207.588 241.659 204.293C232.134 184.45 226.376 172.454 215.363 167.714C213.087 166.499 210.489 165.637 207.731 165.182C208.067 163.383 208.583 162.101 209.187 161.894C210.097 161.71 211.033 161.598 211.976 161.561C216.11 161.26 222.273 160.788 225.915 154.86C228.455 154.968 230.896 155.035 233.255 155.035C253.967 155.035 266.916 151.1 274.854 146.836C275.991 146.221 276.806 145.346 277.165 144.354C277.525 143.361 277.408 142.31 276.833 141.371C274.636 137.823 269.693 129.116 270.203 123.484C271.791 122.506 272.915 121.194 273.42 119.731C273.924 118.268 273.784 116.728 273.017 115.326C276.194 113.224 278.73 110.667 280.461 107.818C282.193 104.968 283.082 101.889 283.073 98.7768C283.063 95.6647 282.155 92.5883 280.407 89.7442C278.658 86.9001 276.107 84.3508 272.918 82.2594C273.599 80.0599 273.328 77.7622 272.139 75.6781C270.951 73.5941 268.903 71.8248 266.275 70.6106L263.897 12.6364C263.887 12.3842 263.77 12.1403 263.563 11.9372C263.356 11.7342 263.067 11.5819 262.737 11.5006C262.406 11.4194 262.049 11.4131 261.713 11.4827C261.378 11.5522 261.079 11.6943 260.859 11.8899L250.83 20.7726L245.27 11.9753C245.145 11.7792 244.951 11.6101 244.708 11.4846C244.465 11.3592 244.181 11.2817 243.883 11.2599C243.586 11.2381 243.286 11.2727 243.013 11.3603C242.739 11.4479 242.503 11.5855 242.325 11.7594L234.469 19.5628L228.15 10.734C228.006 10.5223 227.778 10.3461 227.496 10.2277C227.213 10.1093 226.889 10.0538 226.563 10.0683C226.238 10.0768 225.923 10.152 225.655 10.285C225.387 10.418 225.177 10.6034 225.05 10.8194L220.069 19.3649L211.696 10.5316C211.528 10.3572 211.301 10.217 211.036 10.1243C210.771 10.0316 210.478 9.98956 210.184 10.0022C209.891 10.0148 209.606 10.0817 209.359 10.1965C209.111 10.3112 208.909 10.47 208.77 10.6575L202.775 18.8701L194.912 11.8269C194.726 11.6572 194.482 11.5261 194.203 11.4471C193.924 11.3681 193.621 11.3439 193.325 11.3771C193.03 11.4096 192.752 11.4973 192.518 11.6314C192.284 11.7655 192.103 11.9414 191.993 12.1417L187.068 21.029L179.529 13.518C179.349 13.3418 179.109 13.2028 178.831 13.1152C178.554 13.0276 178.249 12.9943 177.948 13.0188C177.645 13.0431 177.358 13.1257 177.115 13.2578C176.872 13.3899 176.682 13.5668 176.566 13.7699L170.621 24.0424L162.042 15.8747C161.838 15.6799 161.559 15.5331 161.24 15.453C160.921 15.373 160.576 15.3632 160.249 15.425C159.927 15.4896 159.637 15.6205 159.416 15.8018C159.195 15.9831 159.052 16.2069 159.004 16.4459L156.949 26.8309L147.468 20.1295C147.235 19.9656 146.942 19.853 146.624 19.8049C146.306 19.7567 145.976 19.775 145.671 19.8576C145.367 19.9401 145.102 20.0835 144.906 20.2711C144.711 20.4586 144.593 20.6825 144.567 20.9165L143.49 30.8113L131.661 23.741C131.325 23.5397 130.894 23.4404 130.459 23.4639C130.024 23.4874 129.618 23.6319 129.327 23.867C129.032 24.104 128.874 24.4133 128.884 24.7318C128.895 25.0503 129.073 25.3538 129.383 25.5805C133.666 28.7289 145.389 81.8501 151.969 115.501C151.126 115.595 150.306 115.777 149.535 116.041C146.21 117.188 144.175 119.747 143.484 123.637C142.724 127.955 143.608 131.211 146.117 133.316C148.875 135.628 152.747 135.911 154.87 135.97C155.082 138.767 153.955 148.527 152.728 157.315C152.519 157.254 152.294 157.228 152.069 157.239C134.015 157.932 121.564 177.888 114.853 188.61C112.721 192.038 110.976 195.584 109.636 199.215C103.746 209.816 98.9964 222.319 95.5163 232.048L95.398 232.372C93.9288 236.487 92.4098 240.746 91.4013 245.037C90.0776 250.709 89.5976 256.467 89.9694 262.213C89.9912 262.526 90.1757 262.822 90.4862 263.042C90.7966 263.261 91.21 263.387 91.644 263.396H92.1546L87.3796 304.527C87.346 304.799 87.4393 305.072 87.6445 305.302C87.8498 305.531 88.1553 305.705 88.5127 305.795C88.5936 305.795 90.4239 306.281 93.6362 306.96L94.3646 339.415C93.6374 339.408 92.92 339.535 92.279 339.783C91.3146 340.135 90.4756 340.642 89.8276 341.266C89.1796 341.89 88.7402 342.614 88.5438 343.382C88.1204 345.208 89.1663 347.173 91.6192 349.228L90.3741 368.69C87.7034 369.643 81.5277 372.841 82.0569 381.985C82.3806 387.58 83.0467 392.468 83.5323 396.044C83.9618 399.156 84.298 401.612 84.1548 402.534C84.1548 402.642 82.1129 413.328 80.625 423.565C78.1348 440.444 79.1371 442.095 79.5604 442.801C82.2374 447.258 89.7515 452.323 102.806 453.182C124.11 454.589 180.787 458.448 187.149 459.393C189.204 459.699 196.674 460 206.66 460C228.243 460 261.537 458.592 277.257 452.804C281.994 453.186 291.171 453.384 301.903 453.384C327.428 453.384 361.556 452.278 364.986 449.97C371.112 445.747 371.803 434.539 368.684 430.64ZM364.158 429.16C359.595 430.059 339.424 430.284 326.008 430.424C319.92 430.487 314.666 430.541 311.777 430.64C303.124 430.936 282.075 431.71 277.63 431.872C277.493 431.755 277.356 431.625 277.213 431.512C277.045 429.574 275.582 423.174 263.623 419.746C258.607 418.3 253.695 416.673 248.906 414.871C254.278 412.172 260.691 406.074 263.28 403.474C264.053 403.892 264.888 404.245 265.771 404.527C267.877 405.141 270.075 405.579 272.32 405.831L273.49 405.993C271.734 407.056 270.438 408.461 269.755 410.041C268.821 412.424 269.606 414.988 272.083 417.655C276.36 422.256 294.041 424.195 312.331 424.195C329.003 424.195 346.148 422.58 354.129 419.904C354.428 419.98 354.714 420.043 354.944 420.088C363.361 421.676 364.177 427.033 364.158 429.16ZM106.149 426.488C104.948 411.426 127.403 389.185 132.409 384.431C133.916 385.206 135.528 385.867 137.221 386.406C141.709 387.755 143.77 389.851 145.588 391.69C146.555 392.791 147.759 393.774 149.155 394.6C149.74 394.906 150.319 395.198 150.923 395.5C153.824 396.957 157.111 398.617 163.635 403.299C163.573 404.095 162.446 407.347 149.566 413.112C135.907 419.22 135.297 427.793 135.801 431.584C128.891 430.499 121.628 429.26 114.012 427.869L111.64 427.419L106.149 426.488ZM157.746 343.4C157.376 342.811 156.849 342.282 156.196 341.841C155.542 341.4 154.774 341.057 153.936 340.831L154.795 312.901C162.613 312.713 170.386 311.973 178.004 310.693C178.436 310.617 178.81 310.423 179.05 310.153C179.106 310.09 179.878 309.204 181.036 307.617L182.648 340.206C181.052 340.783 179.811 341.77 179.168 342.972C178.508 344.349 178.857 345.86 180.201 347.47L180.457 365.573C180.429 365.58 180.402 365.589 180.376 365.6C179.878 365.759 179.401 365.95 178.95 366.171V366.171C178.508 366.395 178.092 366.645 177.705 366.918L177.506 367.057C177.719 366.459 177.613 365.824 177.21 365.279C176.806 364.735 176.134 364.319 175.327 364.116C173.623 363.692 171.831 363.484 170.029 363.499C169.805 363.337 169.581 363.171 169.357 363.023C168.94 362.744 168.112 361.448 167.489 360.405C165.354 357.005 161.706 351.221 154.889 350.96V348.851C158.935 346.579 158.238 344.304 157.746 343.4ZM97.8322 340.251L97.1038 307.653C108.31 309.874 127.914 313 149.043 313C149.815 313 150.593 313 151.371 313L150.512 340.989C122.199 347.011 104.207 342.455 97.801 340.229L97.8322 340.251ZM215.22 375.782C218.351 378.687 222.209 381.142 226.594 383.019C224.178 384.719 220.624 388.583 216.347 397.294L214.056 395.918C214.248 395.715 214.397 395.492 214.498 395.257C214.748 394.627 214.643 393.951 214.206 393.377C213.768 392.803 213.034 392.378 212.163 392.194C210.626 391.888 209.023 391.794 207.438 391.915C206.193 391.164 204.948 390.413 203.746 389.666C204.038 389.401 204.25 389.095 204.369 388.767C204.587 388.131 204.448 387.459 203.981 386.897C203.514 386.336 202.758 385.931 201.879 385.772C201.194 385.652 200.496 385.575 199.793 385.542C204.151 384.044 210.426 381.494 212.68 378.611C213.432 377.616 214.27 376.657 215.189 375.737L215.22 375.782ZM198.037 416.666C199.751 416.683 201.454 416.471 203.061 416.04C213.464 413.148 225.019 411.394 234.12 411.3C238.323 413.675 247.598 417.48 257.665 420.65C236.069 426.673 187.205 424.941 179.579 422.53C177.282 421.806 176.074 420.673 175.893 419.063C175.576 416.328 178.253 413.139 179.554 412.091C185.643 414.642 192.316 416.666 198.037 416.666ZM235.042 408.619C234.232 408.035 231.356 406.299 226.083 403.137L223.5 401.59L219.142 398.972C224.546 387.692 228.549 384.921 229.781 384.296C231.145 384.805 232.595 385.299 234.139 385.758C238.547 387.044 240.601 388.906 242.587 390.705C244.573 392.504 246.472 394.227 250.269 395.239C253.675 396.138 256.071 398.126 258.362 400.038C259.109 400.65 259.869 401.275 260.666 401.864C256.408 406.164 249.335 412.325 245.345 413.558C240.259 411.453 236.467 409.627 235.042 408.597V408.619ZM188.151 395.846C187.529 395.423 186.657 394.897 185.624 394.312C190.374 392.023 196.02 390.013 199.818 390.507L203.149 392.545C198.598 393.579 194.003 395.621 190.268 397.596C189.624 396.968 188.917 396.376 188.151 395.824V395.846ZM210.227 396.935L210.432 396.962L215.979 400.299L219.559 402.444C215.351 402.561 211.086 403.47 207.432 404.27C204.319 404.945 201.125 405.619 199.787 405.345C198.087 404.963 196.12 403.326 194.308 401.585C200.079 398.545 206.51 396.129 210.227 396.912V396.935ZM192.845 386.167C188.22 387.184 183.557 389.185 179.741 391.209C178.128 390.4 176.472 389.585 174.91 388.83C179.068 386.325 184.447 383.927 189.272 383.882C190.417 384.607 191.619 385.371 192.845 386.145V386.167ZM168.996 386.05L168.143 385.668C166.63 385.002 165.87 383.936 164.993 382.7C164.781 382.4 164.551 382.085 164.302 381.755C168.516 378.859 173.702 376.295 178.44 376.425C178.77 376.695 179.124 376.974 179.542 377.284C179.959 377.595 180.307 377.847 180.718 378.148L181.11 378.431C181.683 378.845 182.318 379.286 182.978 379.74C177.736 380.977 172.793 383.527 168.996 386.028V386.05ZM175.507 368.771V368.744L175.595 368.721L175.507 368.771ZM171.15 368.505C172.096 369.486 173.098 370.588 174.175 371.811C168.74 372.742 163.698 375.409 159.726 378.108C158.935 377.658 158.02 377.181 156.906 376.583L154.465 375.274C159.253 371.492 165.441 368.019 171.125 368.483L171.15 368.505ZM153.476 353.488C158.524 353.011 161.401 356.816 164.308 361.448C164.807 362.281 165.366 363.095 165.982 363.886C159.408 365.056 153.426 368.771 149.012 372.292L146.771 371.037C139.923 367.169 131.954 367.088 127.914 367.363C130.871 359.753 137.383 357.918 146.167 355.426C147.792 354.976 149.466 354.491 151.147 353.964C151.88 353.723 152.655 353.555 153.451 353.465L153.476 353.488ZM126.706 369.967C129.121 369.693 137.694 369.067 144.66 372.989L146.764 374.168C144.988 375.725 143.336 377.355 141.815 379.048C141.451 379.316 141.174 379.641 141.005 379.997C140.837 380.353 140.78 380.732 140.84 381.105C140.899 381.479 141.074 381.839 141.35 382.158C141.627 382.477 141.999 382.747 142.438 382.949C142.878 383.151 143.374 383.279 143.891 383.325C144.408 383.37 144.933 383.332 145.427 383.212C145.921 383.093 146.372 382.895 146.746 382.634C147.121 382.372 147.41 382.054 147.592 381.701C148.998 380.116 150.536 378.594 152.199 377.145C153.195 377.685 154.067 378.157 154.864 378.575C155.804 379.079 156.588 379.475 157.279 379.875C155.267 381.415 153.395 383.048 151.676 384.764C151.29 385.02 150.988 385.336 150.793 385.687C150.598 386.039 150.515 386.418 150.55 386.796C150.585 387.174 150.737 387.541 150.995 387.871C151.254 388.201 151.611 388.484 152.041 388.701C152.471 388.917 152.963 389.061 153.481 389.122C153.999 389.183 154.529 389.158 155.031 389.051C155.534 388.944 155.997 388.756 156.387 388.502C156.776 388.249 157.081 387.935 157.279 387.584C158.667 386.19 160.172 384.859 161.787 383.599C161.843 383.676 161.899 383.752 161.948 383.829C162.92 385.178 164.021 386.752 166.368 387.782L166.462 387.827C163.922 389.729 162.235 391.389 161.805 392.145L161.731 392.275C161.731 392.311 161.73 392.342 161.699 392.378C161.593 392.62 161.536 392.872 161.531 393.125C161.532 393.756 161.859 394.364 162.448 394.83C163.038 395.296 163.847 395.585 164.717 395.642C165.588 395.698 166.455 395.517 167.15 395.135C167.845 394.752 168.317 394.196 168.473 393.575C169.613 392.475 170.886 391.45 172.276 390.512C173.758 391.223 175.339 391.996 176.908 392.761C174.925 393.889 173.102 395.158 171.467 396.548C171.144 396.83 170.909 397.159 170.779 397.513C170.649 397.867 170.628 398.237 170.716 398.598C170.805 398.959 171 399.301 171.29 399.601C171.58 399.902 171.957 400.153 172.395 400.338C172.833 400.522 173.321 400.636 173.825 400.67C174.33 400.705 174.839 400.66 175.317 400.538C175.795 400.416 176.231 400.221 176.594 399.965C176.957 399.709 177.238 399.4 177.419 399.057C179.047 397.853 180.815 396.751 182.704 395.765C183.784 396.335 184.823 396.945 185.817 397.591C186.454 398.05 187.045 398.542 187.585 399.062C185.387 400.33 183.7 401.441 182.81 402.048C182.368 402.247 181.992 402.514 181.712 402.831C181.431 403.148 181.251 403.506 181.186 403.879C181.121 404.253 181.172 404.632 181.336 404.989C181.499 405.346 181.771 405.672 182.131 405.944C182.492 406.215 182.932 406.426 183.419 406.559C183.906 406.692 184.428 406.745 184.947 406.714C185.466 406.683 185.968 406.568 186.418 406.379C186.868 406.19 187.254 405.93 187.548 405.619C188.793 404.783 190.15 403.915 191.631 403.051C193.848 405.188 196.176 407.099 198.809 407.67C199.402 407.794 200.017 407.855 200.634 407.85C202.731 407.85 205.346 407.279 208.459 406.6C213.327 405.538 219.36 404.234 224.253 405.192C226.743 406.69 228.891 407.976 230.404 408.903C221.57 409.352 211.422 411.039 201.86 413.693C193.063 416.148 175.358 408.233 166.493 401.832C159.477 396.759 155.835 394.929 152.909 393.458C152.324 393.161 151.763 392.878 151.197 392.558C150.108 391.882 149.168 391.091 148.408 390.211C146.428 388.209 143.963 385.713 138.578 384.089C132.657 382.29 125.125 376.677 122.572 374.689C124.241 372.832 125.679 371.145 126.687 369.944L126.706 369.967ZM139.337 432.146C138.715 429.628 137.924 421.262 151.39 415.244C161.351 410.778 165.142 407.427 166.456 405.233C169.652 407.263 173.053 409.119 176.628 410.787C175.436 411.941 174.441 413.194 173.665 414.52C171.069 419.234 172.774 423.066 178.222 424.797C182.735 426.223 196.599 427.253 212.213 427.253C230.516 427.253 251.191 425.827 262.017 421.968L262.359 422.067C271.212 424.604 273.223 428.908 273.671 430.91C261.108 431.629 251.191 432.655 240.757 433.743C230.323 434.831 219.634 435.947 204.512 437.008C189.39 438.07 167.477 436.406 139.319 432.124L139.337 432.146ZM349.609 418.564C330.59 423.061 281.054 422.859 274.953 416.315C273.086 414.286 272.463 412.42 273.086 410.769C273.914 408.633 276.659 407.306 277.817 406.825C280.489 407.465 283.05 408.325 285.449 409.388C289.091 411.008 293.281 411.869 297.558 411.876C303.902 411.876 309.498 410.036 313.744 408.642C316.701 407.67 319.752 406.667 320.785 407.171C321.458 407.594 322.111 407.985 322.696 408.291C325.448 409.694 340.719 415.622 349.591 418.541L349.609 418.564ZM317.374 404.886C315.646 405.305 313.955 405.801 312.312 406.371C305.807 408.507 296.892 411.439 287.193 407.27C284.398 406.025 281.396 405.041 278.259 404.342H278.209C276.486 403.974 274.736 403.674 272.967 403.443C270.966 403.223 269.007 402.839 267.128 402.296C264.849 401.585 262.975 400.047 260.996 398.41C258.506 396.368 255.704 394.052 251.489 392.927C248.588 392.149 247.057 390.768 245.264 389.167C243.11 387.22 240.67 385.011 235.421 383.482C224.521 380.302 219.129 375.557 217.417 373.799C220.642 371.172 224.433 369.094 227.297 369.418C230.64 369.809 234.693 370.624 240.147 373.268C238.329 374.892 236.771 376.659 235.502 378.535C235.179 378.831 234.952 379.176 234.838 379.544C234.723 379.912 234.724 380.293 234.84 380.661C234.956 381.029 235.185 381.373 235.509 381.668C235.833 381.964 236.244 382.203 236.713 382.369C237.182 382.535 237.696 382.623 238.218 382.626C238.74 382.63 239.257 382.549 239.73 382.39C240.203 382.23 240.62 381.996 240.952 381.705C241.284 381.414 241.521 381.073 241.647 380.707C242.708 379.116 244.027 377.621 245.575 376.255C245.967 376.493 246.36 376.731 246.764 376.992C248.215 377.892 249.634 378.751 251.022 379.533C249.391 380.904 247.875 382.344 246.484 383.847C246.12 384.11 245.841 384.429 245.667 384.78C245.494 385.131 245.43 385.506 245.481 385.877C245.532 386.248 245.696 386.606 245.961 386.926C246.226 387.245 246.586 387.519 247.015 387.726C247.444 387.933 247.931 388.069 248.441 388.124C248.951 388.179 249.472 388.152 249.966 388.044C250.46 387.936 250.915 387.751 251.298 387.501C251.681 387.251 251.982 386.943 252.18 386.599C253.504 385.149 254.96 383.763 256.538 382.452C258.773 383.55 260.753 384.44 262.384 385.151C260.716 386.407 259.175 387.748 257.771 389.163C257.379 389.412 257.069 389.721 256.864 390.068C256.659 390.414 256.564 390.79 256.586 391.167C256.607 391.543 256.746 391.912 256.99 392.245C257.235 392.578 257.579 392.868 257.999 393.092C258.418 393.317 258.902 393.47 259.414 393.542C259.927 393.614 260.455 393.602 260.96 393.508C261.465 393.413 261.935 393.238 262.334 392.995C262.734 392.752 263.053 392.448 263.268 392.104C264.67 390.685 266.229 389.351 267.931 388.115C268.958 389.014 270.004 390.107 270.857 391.011L271.212 391.38C269.649 392.638 268.31 394.033 267.227 395.531C266.903 395.827 266.674 396.171 266.557 396.538C266.44 396.906 266.439 397.287 266.553 397.655C266.667 398.023 266.893 398.368 267.216 398.665C267.538 398.962 267.949 399.202 268.416 399.369C268.884 399.536 269.398 399.626 269.92 399.631C270.442 399.636 270.959 399.557 271.433 399.399C271.907 399.241 272.326 399.008 272.659 398.718C272.993 398.428 273.232 398.087 273.359 397.722C274.167 396.619 275.158 395.592 276.31 394.663C278.016 395.428 280.046 396.336 281.913 397.236C280.94 398.112 280.046 399.033 279.236 399.993C278.883 400.266 278.617 400.592 278.459 400.948C278.301 401.304 278.255 401.681 278.323 402.052C278.392 402.423 278.574 402.778 278.855 403.091C279.137 403.405 279.512 403.67 279.952 403.866C280.393 404.062 280.889 404.185 281.403 404.226C281.917 404.267 282.438 404.225 282.927 404.102C283.416 403.98 283.862 403.781 284.231 403.519C284.601 403.257 284.885 402.939 285.063 402.588C285.81 401.692 286.653 400.839 287.585 400.038C288.131 400.324 288.653 400.633 289.147 400.964C290.473 401.922 295.08 405.012 298.542 404.068L299.164 403.906C309.243 401.171 311.447 401.306 311.839 401.396C312.817 401.783 314.952 403.263 316.82 404.571L317.374 404.886ZM284.379 384.17C280.418 385.511 276.799 387.327 273.677 389.54C272.686 388.462 271.62 387.42 270.483 386.419C274.399 384.004 278.383 382.452 281.446 382.007C282.393 382.709 283.37 383.433 284.354 384.148L284.379 384.17ZM307.724 399.3C304.424 399.918 301.179 400.679 298.006 401.581L297.433 401.734C296.749 401.918 294.321 401.117 291.637 399.201C291.129 398.851 290.59 398.523 290.025 398.221C293.393 395.927 296.942 394.551 298.996 394.142C302.127 396.116 305.091 397.87 307.699 399.278L307.724 399.3ZM284.291 395.356C282.343 394.456 280.369 393.557 278.794 392.833C281.957 390.701 285.754 388.879 288.799 388.25C289.15 388.175 289.507 388.117 289.869 388.079C291.044 388.897 292.212 389.696 293.374 390.476C289.989 391.721 286.911 393.363 284.267 395.333L284.291 395.356ZM264.992 383.365C263.374 382.655 261.307 381.742 258.948 380.595C263.573 377.226 268.61 374.883 272.401 374.905C273.671 375.949 274.974 376.998 276.31 378.054C272.132 379.331 268.291 381.121 264.955 383.343L264.992 383.365ZM253.369 377.676C251.969 376.893 250.531 376.048 249.068 375.117C248.657 374.856 248.265 374.626 247.86 374.379C252.622 370.713 258.593 367.732 262.801 366.904C263 366.868 263.143 366.855 263.318 366.828C264.563 368.042 265.926 369.306 267.383 370.606C262.409 371.779 257.497 374.518 253.332 377.653L253.369 377.676ZM241.69 352.53C246.142 351.594 252.05 354.976 259.209 362.573C253.731 364.048 247.424 367.403 242.4 371.361C237.463 368.932 232.857 367.543 227.858 366.962C224.122 366.513 220.013 368.415 216.484 370.934C216.484 368.415 217.729 364.354 224.857 361.066C229.127 359.131 233.217 356.996 237.102 354.675C239.163 353.429 240.203 352.8 241.653 352.507L241.69 352.53ZM234.22 341.358C234.537 341.929 234.32 342.68 233.635 343.57C231.686 344.02 225.311 345.468 219.609 345.887C219.178 345.924 218.783 346.078 218.503 346.318C218.224 346.557 218.081 346.865 218.103 347.178C218.125 347.491 218.311 347.786 218.623 348.004C218.935 348.222 219.349 348.346 219.783 348.351H219.957C224.435 347.955 228.853 347.262 233.155 346.283L233.436 353.645C230.105 355.564 226.628 357.346 223.02 358.984C211.889 364.111 212.823 371.172 213.446 373.376C212.041 374.63 210.778 375.962 209.667 377.361C207.494 380.145 199.152 383.082 195.099 384.296L194.402 383.847C194.992 383.606 195.47 383.243 195.774 382.805C196.079 382.368 196.196 381.874 196.111 381.388C196.027 380.902 195.744 380.445 195.298 380.076C194.853 379.706 194.266 379.441 193.611 379.313C191.453 378.901 189.202 378.809 186.993 379.043C185.91 378.319 184.927 377.644 184.03 377.01L183.881 366.45L183.638 349.035C185.63 349.507 188.805 349.971 193.68 349.971C197.027 349.954 200.369 349.777 203.684 349.44C204.126 349.39 204.524 349.217 204.791 348.958C205.059 348.699 205.176 348.374 205.116 348.054C205.057 347.733 204.826 347.442 204.474 347.243C204.121 347.044 203.674 346.953 203.23 346.989C189.496 348.338 184.242 346.647 183.165 346.22C182.362 345.262 182.082 344.443 182.393 343.786C182.76 342.999 183.943 342.473 184.628 342.248C190.418 342.694 196.236 342.918 202.059 342.918C211.491 342.918 222.852 342.284 231.593 339.873C232.452 340.076 233.778 340.557 234.207 341.335L234.22 341.358ZM229.862 337.76C215.095 341.636 192.017 340.323 186.053 339.9L184.186 302.836C184.846 301.734 185.431 300.587 186.053 299.471C194.68 300.404 203.385 300.902 212.107 300.96C217.694 301.008 223.274 300.671 228.773 299.953L229.862 337.76ZM238.136 229.516C238.223 231.445 238.385 233.5 238.565 235.655C237.003 230.348 235.807 225.126 234.774 220.3C235.95 219.993 237.16 219.758 238.391 219.598C237.843 223.376 237.93 225.256 238.117 229.475L238.136 229.516ZM243.527 215.609C243.604 215.764 243.626 215.93 243.593 216.092C243.559 216.255 243.47 216.408 243.334 216.54C243.208 216.661 243.045 216.759 242.856 216.826C242.668 216.892 242.46 216.925 242.251 216.922C241.684 216.922 241.105 216.922 240.533 216.949C240.533 216.949 240.483 216.949 240.464 216.949C238.345 217.034 236.251 217.325 234.239 217.813C233.965 216.491 233.685 215.164 233.411 213.841C230.871 201.572 228.219 188.907 222.697 176.925C227.857 183.091 232.358 192.433 238.416 205.058C239.985 208.314 241.672 211.831 243.508 215.569L243.527 215.609ZM279.635 98.7926C279.638 101.443 278.909 104.066 277.492 106.511C276.074 108.955 273.996 111.17 271.38 113.028C271.057 112.7 270.708 112.386 270.334 112.088C270.228 112.007 270.116 111.935 270.004 111.854C269.701 111.621 269.381 111.4 269.045 111.193C268.865 111.076 268.672 110.972 268.479 110.869C268.286 110.765 267.912 110.558 267.62 110.419C267.327 110.279 267.19 110.217 266.997 110.127C266.804 110.037 266.375 109.884 266.082 109.776C265.789 109.668 265.646 109.618 265.422 109.551C265.038 109.435 264.645 109.335 264.245 109.25C264.096 109.214 263.947 109.169 263.791 109.137C263.249 109.032 262.698 108.955 262.141 108.908C261.961 108.908 261.774 108.908 261.587 108.881C261.307 108.881 261.033 108.84 260.753 108.84C260.473 108.84 260.348 108.84 260.13 108.84L259.446 108.867H258.916H258.686H258.064H257.827H257.086H256.912H256.059H255.903H254.895H254.832H253.737H253.619H252.448H252.33H251.085H250.979H249.653H249.435H248.084H238.366C238.403 108.795 238.435 108.719 238.472 108.647C238.808 108.04 239.094 107.424 239.381 106.803C239.381 106.749 239.424 106.69 239.443 106.636C239.686 106.038 239.891 105.436 240.066 104.837C240.103 104.72 240.14 104.599 240.172 104.478C240.34 103.848 240.464 103.205 240.557 102.562C240.557 102.427 240.557 102.296 240.607 102.166C240.688 101.496 240.738 100.817 240.738 100.137C240.738 99.3818 240.688 98.6307 240.589 97.8886C240.589 97.6457 240.489 97.4029 240.445 97.16C240.358 96.6652 240.271 96.175 240.14 95.6893C240.066 95.4014 239.954 95.1226 239.86 94.8392C239.723 94.3894 239.586 93.9712 239.412 93.5484C239.288 93.2516 239.138 92.9592 238.995 92.6489C238.808 92.2486 238.621 91.8483 238.372 91.457C238.204 91.1602 238.017 90.8724 237.831 90.5575C237.594 90.1842 237.358 89.8109 237.09 89.4466C236.878 89.1542 236.648 88.8709 236.424 88.5876C236.137 88.2368 235.851 87.8904 235.54 87.5486C235.228 87.2068 235.023 86.9954 234.749 86.7211C234.475 86.4467 234.083 86.0689 233.734 85.7541C233.386 85.4392 233.112 85.2278 232.825 84.9715C232.645 84.8231 232.483 84.6656 232.296 84.5217C236.156 81.7117 241.084 79.793 246.456 79.0087C251.827 78.2244 257.399 78.6099 262.467 80.1162C267.535 81.6226 271.869 84.182 274.921 87.4701C277.973 90.7582 279.605 94.6268 279.61 98.5857L279.635 98.7926ZM228.717 85.5876C231.436 87.4925 233.595 89.7739 235.066 92.2955C236.537 94.8171 237.289 97.527 237.277 100.263C237.274 101.043 237.212 101.823 237.09 102.598C237.09 102.625 237.09 102.652 237.09 102.674C236.968 103.418 236.789 104.157 236.554 104.887L236.517 105.026C236.278 105.737 235.989 106.438 235.652 107.127C235.621 107.185 235.596 107.248 235.565 107.307C235.217 107.987 234.82 108.654 234.376 109.304C234.326 109.371 234.288 109.443 234.239 109.51L234.201 109.56C234.169 109.596 234.139 109.633 234.114 109.672C234.086 109.707 234.061 109.743 234.039 109.78C233.091 111.106 231.936 112.35 230.597 113.486C226.92 116.643 222.012 118.927 216.513 120.039C211.014 121.151 205.178 121.039 199.768 119.72C194.357 118.401 189.622 115.934 186.181 112.641C182.74 109.349 180.751 105.384 180.475 101.263C180.199 97.1424 181.648 93.0571 184.634 89.5401C187.619 86.0231 192.002 83.2377 197.211 81.5469C202.42 79.8562 208.213 79.3387 213.836 80.0619C219.458 80.7851 224.648 82.7154 228.729 85.6012L228.717 85.5876ZM148.676 131.666C146.808 130.114 146.185 127.505 146.852 123.916C147.381 120.912 148.769 119 150.973 118.236C154.907 116.886 160.529 119.302 160.585 119.329C160.972 119.491 161.431 119.537 161.864 119.458C162.298 119.378 162.671 119.18 162.904 118.904C163.137 118.629 163.212 118.298 163.113 117.983C163.013 117.669 162.747 117.394 162.372 117.219C160.22 116.308 157.851 115.698 155.387 115.42C152.567 100.969 141.56 45.8243 134.581 28.6569L143.807 34.18C144.049 34.3239 144.341 34.417 144.651 34.4494C144.961 34.4817 145.278 34.452 145.566 34.3634C145.854 34.2748 146.103 34.1308 146.286 33.947C146.469 33.7632 146.578 33.5466 146.603 33.321L147.648 23.7096L156.924 30.2716C157.152 30.4304 157.435 30.5408 157.743 30.5908C158.052 30.6408 158.373 30.6284 158.672 30.555C158.971 30.4815 159.237 30.3499 159.439 30.1745C159.642 29.9991 159.773 29.7868 159.819 29.561L161.768 19.6932L169.668 27.2087C169.851 27.3808 170.093 27.5154 170.37 27.5989C170.647 27.6824 170.95 27.712 171.248 27.6847C171.545 27.6574 171.828 27.5741 172.068 27.4433C172.307 27.3124 172.495 27.1385 172.613 26.9388L178.521 16.7158L186.097 24.2628C186.277 24.4418 186.52 24.5827 186.802 24.6706C187.083 24.7586 187.391 24.7905 187.695 24.7629C187.999 24.7354 188.287 24.6494 188.53 24.514C188.772 24.3785 188.96 24.1986 189.073 23.9929L194.053 14.9977L201.711 21.8566C201.888 22.0157 202.117 22.1402 202.378 22.2188C202.639 22.2973 202.923 22.3274 203.205 22.3063C203.487 22.2862 203.757 22.2161 203.993 22.1024C204.229 21.9886 204.422 21.8347 204.556 21.6541L210.451 13.5854L218.968 22.5087C219.139 22.6927 219.377 22.8391 219.656 22.9319C219.935 23.0247 220.244 23.0604 220.549 23.0349C220.854 23.0133 221.145 22.9324 221.392 22.801C221.638 22.6696 221.831 22.4924 221.95 22.2883L226.737 14.1117L232.651 22.3737C232.785 22.5606 232.983 22.7198 233.226 22.836C233.469 22.9522 233.749 23.0217 234.039 23.0379C234.33 23.0541 234.621 23.0165 234.886 22.9286C235.151 22.8407 235.38 22.7055 235.552 22.5357L243.322 14.8268L248.812 23.5072C248.933 23.6988 249.119 23.865 249.353 23.9902C249.587 24.1153 249.862 24.1952 250.151 24.2223C250.44 24.2506 250.735 24.224 251.005 24.1452C251.276 24.0663 251.514 23.9379 251.695 23.7725L260.591 15.9287L262.863 71.2493C262.872 71.4734 262.966 71.6915 263.134 71.8802C263.301 72.0688 263.537 72.2208 263.816 72.3197C265.782 73.095 267.393 74.2669 268.453 75.6924C269.514 77.1179 269.977 78.7355 269.786 80.3479C263.782 77.2926 256.469 75.8797 249.155 76.3617C241.841 76.8437 235.002 79.1892 229.862 82.979C224.08 79.2775 216.62 77.2371 208.895 77.2446C203.545 77.244 198.282 78.2175 193.591 80.0751C188.9 81.9327 184.933 84.6144 182.055 87.8725C179.178 91.1307 177.484 94.8601 177.13 98.7164C176.775 102.573 177.771 106.431 180.026 109.936C182.282 113.44 185.723 116.477 190.033 118.767C194.342 121.057 199.381 122.525 204.684 123.035C209.986 123.546 215.381 123.083 220.371 121.689C225.36 120.295 229.783 118.016 233.23 115.06C234.542 113.946 235.699 112.741 236.685 111.462C249.634 111.561 256.675 111.413 260.305 111.269C263.417 111.152 266.754 112.479 268.703 114.534C268.981 114.82 269.228 115.121 269.444 115.434V115.434C270.216 116.572 271.579 119.482 267.452 121.825L267.283 121.933C264.706 123.359 259.271 124.955 248.159 124.775H248.115C247.89 124.773 247.667 124.803 247.458 124.863C247.25 124.924 247.059 125.013 246.898 125.126C246.737 125.24 246.609 125.375 246.52 125.524C246.431 125.674 246.384 125.834 246.381 125.996C246.379 126.159 246.42 126.32 246.503 126.471C246.587 126.622 246.711 126.759 246.867 126.876C247.024 126.992 247.212 127.085 247.418 127.149C247.625 127.213 247.847 127.247 248.072 127.249H249.97C257.105 127.249 262.708 126.502 266.736 125.036C267.115 130.802 271.093 138.079 273.689 142.253C273.948 142.678 273.999 143.153 273.835 143.602C273.671 144.05 273.302 144.445 272.787 144.722C260.417 151.365 235.054 157.122 184.528 146.827C181.528 146.215 181.067 146.121 180.307 146.769C180.093 146.953 179.956 147.179 179.914 147.418C179.872 147.657 179.926 147.9 180.071 148.118C180.209 148.327 180.427 148.503 180.697 148.627C180.968 148.751 181.282 148.818 181.602 148.82C181.957 148.882 182.76 149.044 183.601 149.215C198.479 152.247 211.248 153.902 222.199 154.563C219.366 158.395 215.257 158.71 211.615 158.98C210.387 159.025 209.171 159.176 207.992 159.429C203.883 160.522 203.746 167.754 203.939 171.357C202.856 171.991 200.64 172.095 199.37 172.153C190.492 172.603 182.878 172.27 176.062 171.164C171.131 170.363 164.856 169.09 159.769 166.351C158.026 165.432 156.525 164.294 155.337 162.991C159.776 133.726 158.35 133.6 156.383 133.442C156.196 133.442 155.922 133.42 155.573 133.415C154.011 133.447 150.761 133.397 148.701 131.666H148.676ZM117.941 189.59C124.085 179.754 135.316 161.773 150.344 159.83C150.408 160.305 150.505 160.778 150.637 161.246C150.892 162.152 151.337 163.024 151.956 163.833C151.956 163.873 152.006 163.913 152.037 163.954C153.503 165.7 155.445 167.212 157.746 168.398C163.349 171.42 170.073 172.787 175.333 173.646C182.48 174.802 190.424 175.144 199.613 174.685C201.542 174.6 205.085 174.429 206.915 172.76C206.947 172.738 206.976 172.714 207.002 172.688L207.052 172.652C207.703 172.025 208.072 171.268 208.11 170.485C208.152 169.537 208.061 168.589 207.836 167.655C209.85 168.088 211.745 168.768 213.439 169.666C214.154 170.027 214.785 170.469 215.307 170.975V170.975C215.328 171.002 215.353 171.028 215.382 171.051C216.05 171.769 216.647 172.521 217.168 173.3C217.191 173.342 217.218 173.382 217.249 173.421C217.833 174.31 218.348 175.222 218.793 176.151C224.714 188.367 227.428 201.482 230.055 214.165C230.429 215.964 230.796 217.763 231.182 219.562C231.179 219.585 231.179 219.607 231.182 219.63C233 228.175 235.278 238.102 239.219 247.596C239.219 247.596 239.219 247.632 239.25 247.654C239.267 247.71 239.29 247.764 239.319 247.816C240.153 249.845 241 251.72 241.902 253.515C242.257 254.243 242.662 255.076 242.388 255.593C241.921 256.443 239.636 256.582 238.31 256.591C233.366 256.626 228.427 256.349 223.549 255.764C218.059 255.116 212.537 254.064 207.195 253.065C200.179 251.716 192.914 250.335 185.499 249.818C181.872 249.576 178.225 249.519 174.586 249.647H174.524C174.493 249.647 174.468 249.647 174.437 249.647C167.622 249.928 160.855 250.648 154.216 251.797C153.251 243.328 154.347 234.211 155.225 228.908C165.727 227.402 165.758 225.63 165.758 224.946V224.91C165.79 221.97 165.484 219.034 164.843 216.131C164.768 215.807 164.518 215.518 164.148 215.327C163.778 215.137 163.318 215.06 162.87 215.114C162.421 215.169 162.021 215.349 161.758 215.617C161.494 215.884 161.388 216.216 161.463 216.54C161.898 218.55 162.179 220.575 162.303 222.607C159.899 222.074 157.428 221.711 154.926 221.523H154.733C148.57 221.003 142.368 220.755 136.162 220.781C130.983 220.781 125.866 220.939 121.333 221.231C121.311 221.229 121.288 221.229 121.265 221.231H121.184C115.444 221.609 111.983 222.131 109.866 222.652C108.914 211.012 111.709 199.624 117.965 189.59H117.941ZM151.676 257.549C142.338 260.315 133.548 262.38 127.322 263.715C126.603 262.052 126.037 260.355 125.629 258.638C123.195 249.148 122.834 235.475 122.834 228.166C122.834 227.717 122.834 227.298 122.834 226.898C122.834 226.786 122.834 226.673 122.834 226.565C122.834 226.201 122.834 225.85 122.834 225.531V225.481C122.834 225.117 122.834 224.784 122.834 224.483V224.379C122.834 224.082 122.834 223.813 122.834 223.583C126.918 223.349 131.437 223.223 136.007 223.223C141.552 223.207 147.094 223.405 152.61 223.817C152.573 223.984 152.535 224.172 152.498 224.366C152.498 224.447 152.467 224.514 152.448 224.6C152.448 224.757 152.38 224.933 152.349 225.103C152.318 225.274 152.293 225.364 152.268 225.508C152.243 225.652 152.199 225.864 152.162 226.043C152.125 226.223 152.1 226.367 152.069 226.547C152 226.907 151.932 227.294 151.863 227.699C150.904 233.199 149.497 243.863 150.867 253.434C150.867 253.434 150.867 253.465 150.867 253.483C150.954 254.122 151.06 254.729 151.166 255.327L151.241 255.728C151.359 256.321 151.477 256.906 151.614 257.468L151.676 257.549ZM94.7381 245.406C95.728 241.214 97.2283 237.009 98.6851 232.938L98.7972 232.614C100.876 226.808 103.423 220.021 106.38 213.225C106.005 217.06 106.02 220.91 106.423 224.744V224.933C106.423 226.772 110.781 228.211 119.41 229.219C119.447 236.509 119.864 248.788 121.987 257.936C114.143 259.353 104.195 260.864 94.0657 260.895H93.3C93.074 255.713 93.5641 250.527 94.763 245.415L94.7381 245.406ZM95.5474 263.338C105.433 263.176 114.99 261.745 122.616 260.369C122.987 261.736 123.463 263.088 124.041 264.417C117 265.847 112.406 266.567 112.356 266.571C111.942 266.635 111.576 266.807 111.327 267.054C111.078 267.301 110.965 267.606 111.009 267.91C111.053 268.214 111.252 268.495 111.566 268.7C111.88 268.905 112.288 269.018 112.711 269.018C112.832 269.018 112.953 269.009 113.072 268.991C113.128 268.991 118.582 268.132 126.725 266.436C136.071 264.477 145.263 262.151 154.26 259.47C156.451 258.813 158.655 258.12 161.008 257.338C170.035 254.338 173.746 252.71 174.972 252.125C178.352 252.01 181.738 252.064 185.107 252.287C192.248 252.786 199.37 254.149 206.274 255.462C211.69 256.501 217.293 257.567 222.946 258.237C227.461 258.774 232.028 259.057 236.604 259.083L237.725 295.104C235.166 296.301 222.995 300.65 187.255 297.074C188.674 294.101 189.848 291.071 190.772 287.998C192.684 281.566 197.994 276.241 205.352 273.381C207.969 272.353 210.767 271.587 213.67 271.105C214.112 271.03 214.495 270.831 214.735 270.552C214.974 270.272 215.05 269.936 214.946 269.616C214.842 269.297 214.566 269.02 214.18 268.847C213.793 268.674 213.328 268.619 212.885 268.694C209.688 269.231 206.605 270.076 203.721 271.208C195.491 274.411 189.546 280.339 187.423 287.481C186.39 290.938 185.032 294.34 183.358 297.663C182.586 299.152 181.752 300.645 180.868 302.103C179.565 304.262 178.089 306.364 176.448 308.399C168.75 309.651 160.897 310.343 153.009 310.464C129.47 310.913 107.258 307.162 95.9832 304.842H95.8898L95.7591 304.815C93.5802 304.365 91.9056 303.987 90.8597 303.744L95.5474 263.338ZM91.8868 343.728C92.0096 343.341 92.2506 342.978 92.592 342.667C92.9334 342.356 93.3667 342.104 93.8603 341.929C94.0306 341.872 94.2174 341.845 94.4049 341.851C94.5924 341.858 94.7751 341.897 94.9373 341.965C100.291 344.038 120.231 350.222 152.448 343.094C152.936 343.189 153.385 343.366 153.76 343.61C154.134 343.855 154.423 344.161 154.602 344.501C155.044 345.585 153.233 346.647 152.112 347.2C151.877 347.313 151.684 347.466 151.55 347.646C151.417 347.825 151.347 348.026 151.346 348.23V351.293C150.808 351.401 150.279 351.535 149.765 351.693C148.097 352.21 146.453 352.674 144.859 353.123C135.297 355.822 127.023 358.165 123.979 368.388C122.342 370.349 120.599 372.342 118.837 374.271C118.82 374.292 118.802 374.311 118.781 374.33C112.064 381.697 105.085 388.137 102.738 388.272C102.396 388.292 102.052 388.292 101.711 388.272C101.623 388.272 101.524 388.245 101.437 388.241C101.15 388.214 100.87 388.182 100.565 388.133C100.428 388.133 100.285 388.07 100.142 388.043C99.8741 387.989 99.6127 387.939 99.3388 387.867C99.1645 387.822 98.9839 387.764 98.8033 387.71C98.6228 387.656 98.3053 387.566 98.0501 387.481C97.7948 387.395 97.6579 387.332 97.4275 387.256C97.1972 387.179 96.9481 387.071 96.7053 386.968C96.4626 386.864 96.3007 386.774 96.0828 386.675C95.8649 386.577 95.6221 386.451 95.3918 386.329C95.1614 386.208 94.9933 386.095 94.7692 385.978C94.5451 385.861 94.321 385.709 94.1031 385.565C93.8852 385.421 93.7234 385.295 93.5428 385.16C93.3623 385.025 93.2565 384.939 93.1133 384.831L93.6113 369.54L94.9623 348.851C94.9724 348.686 94.9374 348.522 94.8594 348.368C94.7814 348.214 94.6619 348.072 94.5078 347.951C92.5779 346.305 91.6441 344.87 91.9118 343.737L91.8868 343.728ZM86.9064 395.738C86.4271 392.194 85.7672 387.341 85.4435 381.823C85.2692 378.773 85.8917 376.542 86.8317 374.91C86.8347 374.943 86.8347 374.976 86.8317 375.009C86.7819 375.207 86.7322 375.423 86.6886 375.638C86.6886 375.728 86.645 375.814 86.6263 375.908C86.5579 376.232 86.4893 376.565 86.4271 376.92C86.1294 378.545 86.3082 380.198 86.9517 381.77C87.5952 383.342 88.6891 384.799 90.1624 386.046C90.5779 386.405 91.0184 386.749 91.4822 387.076C91.7188 387.242 91.9678 387.391 92.2106 387.526C92.4534 387.66 92.6713 387.831 92.914 387.975C93.2502 388.173 93.6051 388.349 93.9537 388.524C94.1156 388.605 94.2712 388.695 94.4331 388.771C94.8253 388.96 95.2299 389.127 95.6408 389.293C95.7653 389.343 95.8898 389.401 96.0206 389.446C96.4314 389.608 96.8548 389.743 97.2657 389.896L97.6454 390.017C98.0438 390.13 98.4485 390.224 98.8469 390.314L99.3201 390.418C99.6812 390.489 100.036 390.539 100.391 390.584C100.596 390.611 100.802 390.638 101.013 390.656C101.225 390.674 101.605 390.696 101.897 390.705C102.041 390.705 102.19 390.732 102.333 390.732C102.476 390.732 102.794 390.732 103.024 390.732C106.305 390.543 111.74 385.942 116.72 380.932C118.065 379.583 119.372 378.207 120.599 376.884C123.415 379.066 126.438 381.104 129.644 382.983C124.378 387.93 102.128 409.888 102.657 425.908C95.4914 424.667 87.3734 423.273 84.1112 422.715C85.5804 412.879 87.4543 402.925 87.473 402.84C87.7096 401.603 87.3983 399.273 86.9064 395.747V395.738ZM187.759 456.906C179.909 455.736 103.815 450.703 103.043 450.654C91.476 449.889 84.9143 445.554 82.6233 441.753C82.3867 441.344 81.7954 438.942 83.7502 425.153C88.9733 426.052 103.672 428.575 110.781 429.835L113.128 430.257C121.62 431.804 129.671 433.163 137.283 434.332C137.386 434.358 137.492 434.375 137.601 434.382C160.903 437.957 180.04 439.756 194.782 439.756C198.392 439.756 201.748 439.648 204.829 439.432C220.032 438.367 231.294 437.184 241.23 436.154C251.85 435.047 261.917 434.004 274.791 433.289C275.028 433.482 275.271 433.662 275.507 433.878C281.278 439.235 278.801 447.569 278.128 449.489C277.506 449.777 276.883 450.056 276.192 450.326L276.055 450.375C254.577 458.615 193.935 457.832 187.772 456.919L187.759 456.906ZM362.639 448.054C358.393 450.092 303.186 451.625 281.291 450.515C281.664 449.584 284.914 440.971 279.878 434.251C286.813 433.995 304.25 433.352 311.933 433.095C314.759 432.996 319.988 432.942 326.046 432.879C344.952 432.686 360.958 432.43 365.266 431.467C365.459 431.535 366.275 432.214 366.735 434.355C367.75 438.978 366.3 445.594 362.652 448.068L362.639 448.054Z" fill="#1D1D1B" fill-opacity="0.7"/>
<path d="M202.786 103.69C205.406 103.69 207.529 102.156 207.529 100.263C207.529 98.3702 205.406 96.8358 202.786 96.8358C200.166 96.8358 198.042 98.3702 198.042 100.263C198.042 102.156 200.166 103.69 202.786 103.69Z" fill="#1D1D1B" fill-opacity="0.7"/>
<path d="M254.353 92.3872C253.413 92.3863 252.494 92.5868 251.712 92.9634C250.931 93.3399 250.321 93.8756 249.96 94.5025C249.6 95.1295 249.505 95.8196 249.687 96.4856C249.87 97.1516 250.322 97.7635 250.986 98.2439C251.65 98.7243 252.496 99.0515 253.418 99.1843C254.34 99.3171 255.295 99.2494 256.163 98.9898C257.032 98.7302 257.774 98.2903 258.296 97.7259C258.818 97.1614 259.097 96.4978 259.097 95.8189C259.095 94.9099 258.595 94.0384 257.706 93.3952C256.817 92.752 255.611 92.3896 254.353 92.3872V92.3872Z" fill="#1D1D1B" fill-opacity="0.7"/>
<path d="M155.256 124.397C155.633 124.425 156.004 124.489 156.358 124.586C157.181 124.884 157.891 125.322 158.425 125.864C158.755 125.46 158.916 124.996 158.89 124.528C158.863 124.059 158.65 123.606 158.276 123.224C157.861 122.811 157.318 122.474 156.691 122.24C156.065 122.006 155.371 121.88 154.665 121.874C154.005 121.861 153.349 121.942 152.733 122.114C152.118 122.285 151.555 122.543 151.079 122.873C150.196 123.469 149.669 124.29 149.61 125.162C150.718 124.919 151.571 124.685 152.349 124.546C152.103 124.867 151.937 125.217 151.857 125.58C151.754 126.163 151.883 126.754 152.231 127.285C152.579 127.793 153.314 128.463 154.347 128.405C154.423 127.92 154.608 127.447 154.895 127.006C155.063 126.645 155.182 126.273 155.25 125.895C155.313 125.515 155.327 125.131 155.294 124.748L155.256 124.397Z" fill="#1D1D1B" fill-opacity="0.7"/>
</svg>
