<svg width="97" height="42" viewBox="0 0 97 42" fill="none" xmlns="http://www.w3.org/2000/svg">
<path d="M56.5375 14.3511L56.8115 15.0235L57.4969 15.4633L58.7582 15.7465H59.526L60.191 15.6264L60.4544 15.4584L60.438 15.0942H60.6353L60.8822 15.236L61.7046 15.9182L62.3332 17.1571L62.7136 18.3249L63.1126 19.3357L63.2168 19.6141L63.1179 19.7498L62.7189 19.8316L62.312 19.91L62.4946 21.0276L62.8528 22.3723L63.0647 22.9335L63.125 23.2417L62.9716 23.3529L62.2259 23.3938L61.7826 23.3284L60.6091 23.1212L59.7756 22.9389L59.2166 22.8277L58.2985 22.757L57.6264 22.8023L57.2535 23.0349L56.8102 22.9389L54.2584 23.5471L53.1398 23.7445L52.2736 23.7854V22.9965C52.2736 22.9765 52.4163 21.9857 52.4163 21.9857L52.8273 20.4537L53.1726 19.3378L53.5841 18.2039L54.2366 16.7324L54.6973 15.9387L55.3441 14.9985L56.0024 14.5334L56.5375 14.3511Z" fill="#105E74"/>
<path d="M52.0621 33.7871L51.8138 33.9359L51.7198 34.4125V35.5794L51.8284 36.3475L51.7841 37.1609L51.5944 38.1692L51.6613 38.4844L52.4509 38.663L54.4552 39.1012L55.7466 39.364L57.7917 39.7008L58.9107 39.8234C58.9107 39.8234 60.2048 39.8288 60.2376 39.8234C60.2704 39.8181 61.9865 39.586 61.9865 39.586L63.3631 39.4699L64.9148 39.2778L65.3581 39.2071L65.5062 39.3113L66.3175 39.2843L68.7305 39.2336C68.7412 39.2336 70.2911 39.1715 70.2911 39.1715C70.2911 39.1715 71.6654 39.1057 71.6769 39.1057C71.7303 39.0462 71.7803 38.9843 71.8268 38.9201L71.5851 38.3609L71.1906 38.1014L70.5105 37.8116L69.7431 37.4879L69.1911 37.1846L68.6534 36.8576L68.3027 36.5477L67.8456 36.2375L67.4178 35.9273L67.0707 35.624C67.0707 35.624 66.5662 35.2095 66.5551 35.203C66.544 35.1964 65.8387 34.5759 65.8387 34.5759L64.7653 33.4842L64.2892 32.8743L63.8459 32.3045L63.4291 32.0082L63.0053 31.8496L62.7309 31.9808L62.351 32.2036L61.8575 32.5506L61.2706 32.9614L61.0932 33.2937L61.0458 33.8108L60.9571 34.0703L60.7159 34.3193L60.2699 34.7444L59.8386 34.9262L59.6338 34.9937L58.9479 34.4738L58.3352 33.7912L57.7119 33.0464L57.3821 32.4668L57.1214 32.1231L56.7273 31.9187L56.3247 32.0413L55.6447 32.3041L55.0962 32.5935L54.8037 33.1212L54.6263 33.5103L53.983 34.4272L53.5224 34.9933L53.1943 35.2913L52.88 35.3248L52.4269 35.1498L52.0319 34.5698L52.0621 33.7871Z" fill="#105E74"/>
<path d="M56.6807 14.8326L56.878 12.5371L56.8562 12.2289L56.4337 12.1582L56.0556 11.794V11.2732L56.2586 10.7423L56.5818 10.616L56.729 10.5252L55.1782 2.40586L55.5728 2.62822L56.072 2.99732L56.1651 1.9358L56.9986 2.62332L57.1963 1.54136L57.9309 2.3703L58.4026 1.32391L59.0822 2.08745L59.5047 1.17227L60.1901 1.86468L60.7163 1.04065L61.4514 1.94071L61.8681 1.04065L62.4054 1.92068L63.0851 1.16205L63.5732 2.00652L64.4067 1.15714L64.6261 6.46023L64.9604 6.77905L65.1084 7.20373L65.0867 7.46656L65.5748 8.12873L65.7171 8.63435L65.7721 9.18534L65.6076 9.71099L65.2539 10.1864L65.0428 10.3785L65.1142 10.7676L64.9387 11.046L64.8562 11.3137L65.2539 12.7092L65.3443 13.0173L65.1745 13.3411L63.864 13.8062L62.8497 13.9325L62.1093 13.9427L61.7493 13.9276L61.6265 14.1095L61.3742 14.4079L60.9797 14.5698L60.6068 14.5796L60.4752 14.701L60.3821 15.3987L60.3435 15.6476L59.8718 15.798L59.1811 15.7727L58.2816 15.6717L57.7225 15.5303L57.1191 15.2217L56.7685 14.9891L56.6807 14.8326Z" fill="#F1A61C"/>
<path d="M54.3333 20.2007V21.151L54.4778 22.8649L54.6728 24.0024H54.9034L56.7131 23.4056L56.6018 22.7888V21.312L56.7131 20.4128V20.2007L55.9235 20.1095L54.3333 20.2007Z" fill="#F1A61C"/>
<path d="M62.3097 19.8872L62.7335 21.8083L62.8506 21.1543V19.816L62.3097 19.8872Z" fill="#F1A61C"/>
<path d="M52.5236 27.7637L52.5785 30.6858V30.9486L53.3021 31.2188L54.574 31.3329L56.1208 31.1407L56.5592 31.0255L56.6359 28.2893L55.2651 28.2693L54.4592 28.1553L53.6971 28.0367L52.5236 27.7637Z" fill="#F1A61C"/>
<path d="M58.7346 27.3391L58.8459 30.5445L58.9062 30.896L59.4054 30.9892H60.3155L61.1628 30.9234L61.8508 30.8224L62.229 30.7035L62.1687 29.8619L62.1306 27.7409L62.1137 27.0762L61.8207 27.1711L61.341 27.1948L60.5948 27.2103L59.7915 27.1948L59.3806 27.0889L58.994 27.0509L58.8814 27.0861L58.7346 27.3391Z" fill="#F1A61C"/>
<path d="M60.6051 11.0251C61.776 11.0251 62.7251 10.15 62.7251 9.07048C62.7251 7.99096 61.776 7.11584 60.6051 7.11584C59.4343 7.11584 58.4851 7.99096 58.4851 9.07048C58.4851 10.15 59.4343 11.0251 60.6051 11.0251Z" fill="white"/>
<path d="M65.7726 8.97683C65.7731 9.25881 65.7071 9.53751 65.5792 9.79363C65.4513 10.0498 65.2645 10.2772 65.0318 10.4602L64.8576 10.1397L64.4333 9.99135H63.5023L62.6263 9.9096L62.4729 10.0175L62.222 10.4197C61.9615 10.2005 61.7644 9.92475 61.6487 9.61756C61.5329 9.31037 61.5021 8.98141 61.5591 8.66047C61.616 8.33954 61.7589 8.03678 61.9749 7.77963C62.1908 7.52247 62.4728 7.31905 62.7956 7.18779C63.1183 7.05652 63.4714 7.00157 63.823 7.0279C64.1745 7.05424 64.5134 7.16103 64.8089 7.33861C65.1044 7.51618 65.3472 7.75892 65.5152 8.04484C65.6833 8.33076 65.7713 8.65081 65.7713 8.97601L65.7726 8.97683Z" fill="white"/>
<path d="M54.7016 24.0731L54.5242 23.4763L53.2634 23.7342L52.4025 23.7751L52.238 25.9239L52.105 27.1624V27.592L52.5767 27.7894L54.4573 28.1573L55.4114 28.239L56.5521 28.2897L58.164 28.1262L58.4602 27.9443L58.9155 27.0496L59.8859 27.1861C59.8859 27.1861 60.6533 27.2061 60.6919 27.2061C60.7305 27.2061 62.2272 27.0193 62.2272 27.0193L62.7867 26.8522L62.7538 26.2051L62.7042 23.4297L61.7289 23.3202L61.0798 23.2123L60.4272 23.0455L59.6709 22.8988L58.9084 22.7876L58.3272 22.7467L57.9982 22.7823L56.9728 23.2372L56.4301 23.5152L55.1742 23.9239L54.7016 24.0731Z" fill="white"/>
<path d="M52.7164 30.9994L52.4717 30.9221L52.3219 30.9605L52.1973 31.1477L52.2713 31.4882L52.36 31.6669L52.3197 32.4925C52.3197 32.4925 52.2589 33.6317 52.2753 33.5961C52.2917 33.5606 52.1796 34.6237 52.1796 34.6237L52.3294 35.0182L52.5998 35.261L52.8486 35.3182H53.1119L53.6856 34.8126C53.6856 34.8126 54.3838 33.8823 54.406 33.8622C54.4282 33.8422 54.9065 32.9315 54.9065 32.9315L55.4988 32.3793L56.0636 32.1516L56.6062 31.9648L56.6399 31.7372L56.6931 31.5655L56.8749 31.33L56.8146 31.1355L56.6399 31.0227L56.2831 31.1044L55.1534 31.3292L54.3364 31.3672L53.4918 31.2561L52.7164 30.9994Z" fill="white"/>
<path d="M58.9054 30.9295L58.7081 31.0374L58.5986 31.1722L58.643 31.3742L58.7352 31.6305L58.7086 32.9344L58.6243 33.9023L58.7086 34.2865C58.7086 34.2865 59.4622 34.8739 59.4622 34.8816C59.4622 34.8894 59.6396 35.041 59.6396 35.041C59.6396 35.041 60.1547 34.7247 60.1694 34.721C60.184 34.7173 60.7727 34.2493 60.7727 34.2493L61.0596 33.8888V33.4894L61.1802 33.019L61.948 32.4876L62.5181 32.0829L62.4796 31.2135L62.5181 30.9507L62.3098 30.7382L62.03 30.7737L61.4271 30.9303L60.7745 31.0365L59.9575 31.001L59.0584 30.9883L58.9054 30.9295Z" fill="white"/>
<path d="M58.4593 37.2793L58.2531 37.5986L58.1011 37.9472L58.2948 38.2971L58.7811 38.5583L59.8704 38.6544H61.669L63.007 38.5583L63.8551 38.3511L64.2949 38.1962L63.95 38.0208L63.0726 37.5986L62.495 37.2454H62.1345L61.0621 37.4073L60.3749 37.601L59.8633 37.7445L59.3659 37.6296L58.708 37.4073L58.4593 37.2793Z" fill="white"/>
<path d="M65.484 36.7844L65.218 36.9691L65.0762 37.2454V37.601L65.484 38.0748L66.67 38.3176L68.3591 38.3916L69.3752 38.3376L70.4206 38.1962L70.7495 38.0208L70.691 37.8794L69.8283 37.4817L69.0755 37.1244L68.6548 36.8579L68.4171 36.8547L68.0079 36.9761L67.5034 37.1915L67.0109 37.2724L66.5312 37.2454L65.9788 37.0096L65.484 36.7844Z" fill="white"/>
<path d="M55.1108 34.7189L54.7163 35.2454L54.081 36.1941L53.6203 36.9016L53.412 37.5287L53.2346 38.0948L53.169 38.5979V38.7614L51.6617 38.4835L51.5947 38.6535L51.4697 39.6713L51.5212 40.1434L51.7552 40.5477C51.7552 40.5477 52.1644 40.8174 52.1937 40.8174C52.223 40.8174 53.1588 41.0668 53.1588 41.0668L54.7965 41.1894L56.8146 41.3782L58.9053 41.5802L59.929 41.6071L61.7786 41.668L62.9193 41.534L64.4767 41.3038L65.573 40.936L65.9166 41.0263L68.2636 41.0598L70.2671 40.9858L71.5465 40.8174L71.828 40.5072L71.9996 39.8254L71.9194 39.2066L71.828 39.0717L71.4366 39.0852L70.6244 39.171H68.8191L67.4084 39.2466L66.1068 39.3006L65.5074 39.3108L65.2858 39.2196L64.5911 39.2805L62.5588 39.5299L61.1632 39.6971L59.9999 39.7657L59.0423 39.7997L58.0989 39.7338L55.5182 39.341L55.5107 38.9433L55.7155 38.1916L56.1176 37.8381L56.8487 37.3067C56.8487 37.3067 57.2801 37.0034 57.3093 36.9764C57.3386 36.9495 57.5434 36.6122 57.5434 36.6122L57.2291 36.3478L56.6146 35.8381L56.2564 35.6337L55.9642 35.1767L55.6286 34.9932L55.1108 34.7189Z" fill="white"/>
<path d="M62.0051 34.7177L61.7347 35.1289L61.4788 35.5794L61.2594 36.0167L61.2124 36.21L61.9395 36.8342L62.9751 37.5385L63.2043 37.6701L63.5262 37.4747L64.4035 36.5444L64.2497 36.1941L63.7305 35.8377L63.2921 35.5794L62.8975 35.1224L62.444 34.882L62.0051 34.7177Z" fill="white"/>
<path d="M56.6382 25.4277C56.6479 25.4276 56.6576 25.4265 56.667 25.4245C57.1618 25.3137 57.8015 24.9785 58.1145 24.4798C58.2032 24.3456 58.2608 24.1958 58.2837 24.04C58.3066 23.8842 58.2943 23.7257 58.2475 23.5745C58.2384 23.5458 58.2174 23.5217 58.1891 23.5074C58.1607 23.493 58.1274 23.4897 58.0963 23.498C58.0653 23.5064 58.0391 23.5258 58.0235 23.5519C58.008 23.578 58.0044 23.6088 58.0134 23.6374C58.091 23.8827 58.0542 24.1279 57.9039 24.3674C57.6286 24.806 57.0399 25.1097 56.6098 25.2062C56.5809 25.2128 56.5556 25.2288 56.5387 25.2514C56.5218 25.274 56.5144 25.3015 56.518 25.3287C56.5215 25.3559 56.5357 25.381 56.558 25.3993C56.5802 25.4175 56.6089 25.4276 56.6386 25.4277H56.6382Z" fill="#1D1D1B"/>
<path d="M54.2087 32.0763C54.73 32.0702 55.2491 32.013 55.7573 31.9059C55.7729 31.9028 55.7878 31.8969 55.8009 31.8885C55.8141 31.8801 55.8254 31.8693 55.8341 31.8569C55.8427 31.8445 55.8487 31.8306 55.8516 31.8161C55.8544 31.8016 55.8542 31.7867 55.8508 31.7722C55.8474 31.7578 55.841 31.7441 55.8319 31.732C55.8228 31.7198 55.8112 31.7094 55.7977 31.7014C55.7842 31.6934 55.7692 31.6879 55.7534 31.6853C55.7377 31.6826 55.7215 31.6829 55.7058 31.686C53.7787 32.0702 53.0627 31.6623 53.0494 31.6545C53.0361 31.6463 53.0212 31.6405 53.0055 31.6375C52.9898 31.6346 52.9736 31.6345 52.9579 31.6373C52.9422 31.6401 52.9272 31.6457 52.9138 31.6539C52.9005 31.662 52.889 31.6725 52.88 31.6848C52.8711 31.697 52.8648 31.7108 52.8616 31.7252C52.8584 31.7397 52.8583 31.7546 52.8614 31.7691C52.8644 31.7836 52.8705 31.7974 52.8793 31.8097C52.8882 31.822 52.8996 31.8326 52.9128 31.8409C52.9346 31.8544 53.3034 32.0763 54.2087 32.0763Z" fill="#1D1D1B"/>
<path d="M71.9842 39.0954C71.9639 39.0618 71.9375 39.0315 71.9061 39.0059C71.9252 38.7198 71.8126 38.0985 71.0683 37.9191C71.0393 37.9118 71.0107 37.9032 70.9827 37.8933H70.9783C70.4981 37.7298 69.0586 37.0186 68.8503 36.88C68.715 36.7812 68.586 36.6751 68.4641 36.5624C68.301 36.4186 68.16 36.2943 68.0624 36.2428C67.8301 36.1017 67.6079 35.9467 67.3974 35.7789C67.4078 35.7724 67.4178 35.7653 67.4272 35.7576C67.4506 35.7375 67.4696 35.7134 67.4829 35.6865C67.4962 35.6597 67.5037 35.6307 67.5048 35.6012C67.506 35.5717 67.5008 35.5423 67.4896 35.5146C67.4784 35.487 67.4614 35.4616 67.4396 35.44C67.3726 35.3734 67.2463 35.299 67.0268 35.3227C66.9747 35.3286 66.9233 35.3386 66.873 35.3526L66.7573 35.2532C66.794 35.2364 66.8254 35.2112 66.8486 35.1801C66.885 35.1308 66.8986 35.0702 66.8866 35.0117C66.8745 34.9531 66.8377 34.9013 66.7843 34.8678C66.681 34.8032 66.5055 34.7427 66.2417 34.7934C66.1929 34.7484 66.1441 34.7035 66.0958 34.6577C66.1457 34.6407 66.1881 34.6091 66.2166 34.5678C66.2452 34.5264 66.2583 34.4776 66.2539 34.4288C66.2495 34.3799 66.2279 34.3338 66.1924 34.2973C66.1569 34.2609 66.1094 34.2361 66.0573 34.2269C65.9265 34.207 65.7927 34.2119 65.664 34.2412C65.6055 34.1835 65.5479 34.1255 65.4916 34.0679C65.5456 34.0474 65.5898 34.0095 65.6157 33.9612C65.6299 33.9347 65.6382 33.9059 65.6403 33.8764C65.6424 33.847 65.6381 33.8174 65.6278 33.7895C65.6174 33.7615 65.6012 33.7357 65.5801 33.7136C65.5589 33.6914 65.5332 33.6733 65.5044 33.6603C65.3591 33.5949 65.1966 33.5687 65.0358 33.5847C64.9813 33.5246 64.929 33.465 64.878 33.4065C64.9158 33.4003 64.9514 33.3858 64.982 33.3643C65.0125 33.3429 65.037 33.315 65.0535 33.283C65.0701 33.251 65.0781 33.2159 65.0769 33.1805C65.0758 33.1451 65.0655 33.1105 65.0469 33.0795C64.9888 32.9835 64.8461 32.8257 64.5313 32.8379C64.499 32.8401 64.4669 32.8438 64.4351 32.849C63.822 32.0008 63.3268 31.6616 62.871 31.7834C62.7688 31.8127 62.6739 31.8603 62.5917 31.9236L62.5735 31.3076C62.668 31.158 62.6884 31.0215 62.6347 30.8988C62.5735 30.7603 62.4357 30.6875 62.3417 30.6536L62.2663 27.1694C62.7017 27.0615 62.8568 26.9303 62.8701 26.9181C62.8819 26.9074 62.8912 26.8947 62.8975 26.8806C62.9037 26.8666 62.9068 26.8515 62.9065 26.8363L62.8254 23.5034C63.0293 23.4813 63.1614 23.4061 63.2168 23.2769C63.2722 23.1478 63.2204 23.0247 63.1845 22.9311C63.1211 22.7701 63.0616 22.6041 63.0031 22.4202C63.008 22.1051 62.9854 21.7486 62.9637 21.4037C62.9504 21.1944 62.9375 20.9974 62.9309 20.8134C62.9171 20.4161 62.9118 20.2604 62.9526 19.9011H62.9708C63.0255 19.903 63.08 19.8925 63.1294 19.8706C63.1787 19.8486 63.2216 19.8159 63.2541 19.7752C63.2873 19.7336 63.3089 19.6852 63.3171 19.6341C63.3253 19.583 63.3198 19.5308 63.301 19.4821C63.1707 19.1434 63.0498 18.8243 62.9384 18.5249C62.2601 16.7215 61.85 15.6313 61.0658 15.2005C60.9037 15.0901 60.7187 15.0118 60.5222 14.9704C60.5462 14.8069 60.583 14.6904 60.626 14.6716C60.6908 14.6548 60.7574 14.6447 60.8246 14.6413C61.119 14.614 61.5579 14.571 61.8172 14.0323C61.9981 14.0421 62.1719 14.0483 62.3399 14.0483C63.8149 14.0483 64.737 13.6906 65.3023 13.3031C65.3832 13.2473 65.4413 13.1677 65.4669 13.0775C65.4925 12.9873 65.4842 12.8918 65.4432 12.8065C65.2867 12.484 64.9347 11.6926 64.9711 11.1809C65.0841 11.092 65.1642 10.9727 65.2002 10.8398C65.2361 10.7068 65.2261 10.5669 65.1715 10.4394C65.3977 10.2484 65.5783 10.016 65.7016 9.75707C65.8249 9.4981 65.8882 9.21825 65.8876 8.93543C65.8869 8.6526 65.8222 8.37302 65.6977 8.11454C65.5732 7.85607 65.3915 7.62439 65.1644 7.43432C65.2129 7.23443 65.1936 7.0256 65.109 6.8362C65.0243 6.6468 64.8785 6.48601 64.6913 6.37566L64.522 1.10691C64.5213 1.08399 64.513 1.06182 64.4982 1.04337C64.4835 1.02492 64.4629 1.01107 64.4394 1.00369C64.4158 0.996303 64.3904 0.995733 64.3665 1.00206C64.3426 1.00838 64.3214 1.02129 64.3056 1.03906L63.5914 1.84634L63.1955 1.04683C63.1866 1.02901 63.1728 1.01364 63.1555 1.00223C63.1382 0.990831 63.1179 0.983792 63.0968 0.981811C63.0756 0.97983 63.0542 0.982973 63.0348 0.990934C63.0153 0.998896 62.9984 1.0114 62.9858 1.02721L62.4264 1.73638L61.9764 0.934013C61.9661 0.914775 61.9499 0.898768 61.9298 0.888004C61.9097 0.87724 61.8865 0.872198 61.8633 0.873517C61.8402 0.874291 61.8178 0.881123 61.7987 0.893211C61.7796 0.905299 61.7647 0.922146 61.7556 0.941779L61.4009 1.7184L60.8046 0.915619C60.7927 0.899773 60.7765 0.887027 60.7576 0.878604C60.7388 0.87018 60.7179 0.866361 60.697 0.867509C60.6761 0.868658 60.6558 0.874737 60.6382 0.885165C60.6206 0.895593 60.6061 0.91002 60.5963 0.927065L60.1693 1.67343L59.6094 1.03334C59.5962 1.01791 59.5787 1.006 59.5589 0.998823C59.539 0.991642 59.5174 0.989448 59.4964 0.992464C59.4754 0.995416 59.4555 1.00338 59.4389 1.01557C59.4223 1.02776 59.4094 1.04375 59.4015 1.06195L59.0508 1.86963L58.5139 1.18703C58.5011 1.17101 58.484 1.15839 58.4642 1.15042C58.4445 1.14246 58.4228 1.13943 58.4013 1.14166C58.3798 1.14387 58.3593 1.15137 58.342 1.16338C58.3247 1.17539 58.3112 1.19146 58.3029 1.20992L57.8795 2.1435L57.2686 1.40121C57.2541 1.3835 57.2342 1.37017 57.2115 1.36289C57.1888 1.35561 57.1642 1.35472 57.1409 1.36034C57.118 1.36621 57.0974 1.37811 57.0816 1.39458C57.0659 1.41106 57.0557 1.4314 57.0523 1.45312L56.906 2.39692L56.2308 1.78789C56.2142 1.773 56.1934 1.76276 56.1707 1.75839C56.148 1.75401 56.1245 1.75567 56.1028 1.76318C56.0812 1.77068 56.0623 1.78371 56.0483 1.80075C56.0344 1.8178 56.026 1.83814 56.0242 1.85941L55.9475 2.75866L55.1051 2.11611C55.0812 2.09781 55.0505 2.08879 55.0195 2.09092C54.9885 2.09306 54.9596 2.10619 54.9389 2.12755C54.9179 2.1491 54.9067 2.17721 54.9074 2.20615C54.9081 2.23509 54.9208 2.26268 54.9429 2.28328C55.2479 2.56941 56.0827 7.39712 56.5513 10.4554C56.4912 10.4639 56.4329 10.4804 56.378 10.5044C56.1412 10.6086 55.9962 10.8412 55.947 11.1948C55.8929 11.5872 55.9559 11.8831 56.1346 12.0744C56.331 12.2845 56.6067 12.3103 56.7579 12.3156C56.773 12.5698 56.6927 13.4568 56.6054 14.2555C56.5905 14.2499 56.5744 14.2476 56.5584 14.2485C55.2727 14.3115 54.3861 16.1251 53.9081 17.0995C53.7563 17.4111 53.6321 17.7334 53.5366 18.0634C53.1172 19.0268 52.779 20.1631 52.5312 21.0472L52.5227 21.0767C52.4181 21.4507 52.3099 21.8377 52.2381 22.2277C52.1438 22.7432 52.1097 23.2665 52.1361 23.7887C52.1377 23.8172 52.1508 23.844 52.1729 23.864C52.195 23.8839 52.2245 23.8954 52.2554 23.8962H52.2918L51.9517 27.6342C51.9493 27.6589 51.956 27.6837 51.9706 27.7046C51.9852 27.7255 52.007 27.7413 52.0324 27.7495C52.0382 27.7495 52.1685 27.7936 52.3973 27.8553L52.4491 30.8048C52.3974 30.8043 52.3463 30.8158 52.3006 30.8384C52.2319 30.8703 52.1722 30.9164 52.126 30.9731C52.0799 31.0298 52.0486 31.0956 52.0346 31.1654C52.0045 31.3313 52.079 31.5099 52.2536 31.6967L52.165 33.4654C51.9748 33.552 51.535 33.8426 51.5727 34.6736C51.5957 35.1821 51.6432 35.6264 51.6777 35.9514C51.7083 36.2342 51.7323 36.4574 51.7221 36.5412C51.7221 36.551 51.5767 37.5222 51.4707 38.4525C51.2934 39.9865 51.3647 40.1365 51.3949 40.2007C51.5855 40.6058 52.1206 41.066 53.0503 41.1441C54.5674 41.272 58.6035 41.6227 59.0566 41.7086C59.2029 41.7364 59.7349 41.7638 60.446 41.7638C61.983 41.7638 64.354 41.6358 65.4734 41.1098C65.8108 41.1445 66.4642 41.1625 67.2285 41.1625C69.0462 41.1625 71.4766 41.0619 71.7208 40.8522C72.1571 40.4684 72.2063 39.4498 71.9842 39.0954ZM71.6619 38.961C71.3369 39.0427 69.9005 39.0632 68.9451 39.0758C68.5115 39.0816 68.1374 39.0865 67.9317 39.0954C67.3154 39.1224 65.8165 39.1927 65.5 39.2075C65.4902 39.1968 65.4805 39.185 65.4703 39.1747C65.4583 38.9986 65.3541 38.4169 64.5025 38.1055C64.1453 37.974 63.7955 37.8262 63.4544 37.6624C63.837 37.4171 64.2937 36.8629 64.4781 36.6266C64.5331 36.6646 64.5926 36.6967 64.6554 36.7223C64.8055 36.7781 64.9619 36.8179 65.1218 36.8408L65.2052 36.8555C65.0801 36.9521 64.9878 37.0798 64.9392 37.2234C64.8727 37.44 64.9285 37.673 65.105 37.9154C65.4095 38.3335 66.6686 38.5097 67.9711 38.5097C69.1584 38.5097 70.3793 38.363 70.9477 38.1198C70.9689 38.1267 70.9893 38.1324 71.0057 38.1365C71.6051 38.2808 71.6632 38.7676 71.6619 38.961ZM53.2884 38.7182C53.2028 37.3493 54.8019 35.328 55.1583 34.896C55.2657 34.9664 55.3805 35.0265 55.501 35.0754C55.8207 35.198 55.9674 35.3885 56.0969 35.5557C56.1657 35.6558 56.2515 35.745 56.3509 35.8202C56.3926 35.848 56.4338 35.8745 56.4768 35.9019C56.6834 36.0343 56.9175 36.1852 57.3821 36.6107C57.3777 36.683 57.2974 36.9785 56.3802 37.5026C55.4075 38.0576 55.3641 38.8367 55.4 39.1813C54.9079 39.0826 54.3906 38.9701 53.8483 38.8437L53.6794 38.8028L53.2884 38.7182ZM56.9627 31.167C56.9364 31.1135 56.8989 31.0654 56.8523 31.0253C56.8057 30.9853 56.7511 30.9541 56.6914 30.9336L56.7526 28.3953C57.3093 28.3782 57.8628 28.3109 58.4053 28.1946C58.4361 28.1876 58.4627 28.1701 58.4798 28.1455C58.4838 28.1398 58.5388 28.0593 58.6212 27.915L58.736 30.8768C58.6224 30.9292 58.534 31.0189 58.4882 31.1282C58.4412 31.2532 58.4661 31.3906 58.5618 31.5369L58.58 33.1821C58.578 33.1828 58.5761 33.1836 58.5742 33.1846C58.5388 33.199 58.5048 33.2164 58.4727 33.2365C58.4412 33.2569 58.4116 33.2796 58.384 33.3043L58.3699 33.317C58.385 33.2626 58.3775 33.205 58.3488 33.1554C58.32 33.1059 58.2722 33.0682 58.2147 33.0497C58.0933 33.0112 57.9657 32.9923 57.8374 32.9937C57.8214 32.979 57.8055 32.9638 57.7895 32.9503C57.7598 32.925 57.7009 32.8073 57.6565 32.7125C57.5045 32.4034 57.2447 31.8778 56.7592 31.8541V31.6624C57.0474 31.456 56.9977 31.2491 56.9627 31.167ZM52.6961 30.8809L52.6442 27.9183C53.4422 28.1202 54.8383 28.4043 56.3429 28.4043C56.3979 28.4043 56.4533 28.4043 56.5087 28.4043L56.4476 30.9479C54.4313 31.4952 53.15 31.0812 52.6939 30.8788L52.6961 30.8809ZM61.0556 34.11C61.2786 34.374 61.5533 34.597 61.8655 34.7676C61.6935 34.9221 61.4404 35.2733 61.1358 36.065L60.9727 35.9399C60.9864 35.9215 60.997 35.9012 61.0041 35.8798C61.022 35.8226 61.0145 35.7612 60.9833 35.709C60.9522 35.6569 60.8999 35.6182 60.8379 35.6015C60.7284 35.5737 60.6143 35.5651 60.5014 35.5761C60.4127 35.5079 60.3241 35.4396 60.2385 35.3718C60.2593 35.3477 60.2744 35.3198 60.2828 35.29C60.2984 35.2322 60.2885 35.1711 60.2552 35.1201C60.222 35.0691 60.1681 35.0323 60.1055 35.0178C60.0567 35.0069 60.0071 34.9999 59.957 34.9969C60.2673 34.8608 60.7142 34.6291 60.8747 34.3671C60.9283 34.2767 60.9879 34.1894 61.0534 34.1059L61.0556 34.11ZM59.832 37.8255C59.954 37.827 60.0753 37.8078 60.1897 37.7687C60.9305 37.5058 61.7534 37.3464 62.4015 37.3378C62.7008 37.5537 63.3613 37.8995 64.0782 38.1876C62.5403 38.7349 59.0606 38.5776 58.5175 38.3585C58.3539 38.2927 58.2679 38.1897 58.255 38.0433C58.2324 37.7948 58.4231 37.505 58.5157 37.4098C58.9493 37.6415 59.4245 37.8255 59.832 37.8255ZM62.4671 37.0942C62.4095 37.0411 62.2047 36.8833 61.8292 36.596L61.6452 36.4554L61.3349 36.2175C61.7197 35.1923 62.0047 34.9405 62.0925 34.8837C62.1896 34.9299 62.2929 34.9749 62.4029 35.0166C62.7167 35.1335 62.863 35.3027 63.0045 35.4662C63.1459 35.6297 63.2811 35.7862 63.5515 35.8782C63.794 35.96 63.9647 36.1406 64.1279 36.3143C64.1811 36.3699 64.2351 36.4267 64.2919 36.4803C63.9887 36.871 63.485 37.431 63.2009 37.543C62.8386 37.3517 62.5687 37.1858 62.4671 37.0922V37.0942ZM59.128 35.9334C59.0836 35.895 59.0216 35.8471 58.948 35.794C59.2862 35.586 59.6883 35.4032 59.9588 35.4482L60.1959 35.6334C59.8719 35.7274 59.5447 35.9129 59.2787 36.0924C59.2328 36.0353 59.1825 35.9815 59.128 35.9313V35.9334ZM60.7 36.0323L60.7146 36.0348L61.1097 36.338L61.3646 36.533C61.0649 36.5436 60.7612 36.6262 60.501 36.699C60.2793 36.7603 60.0519 36.8216 59.9565 36.7967C59.8355 36.7619 59.6954 36.6131 59.5664 36.4549C59.9774 36.1786 60.4353 35.9591 60.7 36.0303V36.0323ZM59.4622 35.0538C59.1328 35.1461 58.8008 35.328 58.529 35.512C58.4142 35.4384 58.2963 35.3644 58.185 35.2957C58.4811 35.0681 58.8642 34.8502 59.2078 34.8461C59.2893 34.9119 59.3749 34.9814 59.4622 35.0517V35.0538ZM57.7638 35.0431L57.7031 35.0084C57.5953 34.9479 57.5413 34.851 57.4788 34.7386C57.4637 34.7114 57.4473 34.6828 57.4295 34.6528C57.7297 34.3895 58.099 34.1566 58.4364 34.1684C58.4598 34.1929 58.4851 34.2183 58.5148 34.2465C58.5445 34.2747 58.5694 34.2976 58.5986 34.325L58.6265 34.3507C58.6673 34.3883 58.7126 34.4284 58.7595 34.4697C58.3863 34.5821 58.0342 34.8138 57.7638 35.0411V35.0431ZM58.2275 33.4727V33.4703L58.2338 33.4682L58.2275 33.4727ZM57.9172 33.4486C57.9846 33.5377 58.056 33.6379 58.1327 33.749C57.7456 33.8337 57.3865 34.076 57.1037 34.3213C57.0474 34.2804 56.9822 34.2371 56.9029 34.1827L56.7291 34.0638C57.07 33.72 57.5107 33.4045 57.9154 33.4466L57.9172 33.4486ZM56.6586 32.0838C57.0181 32.0405 57.223 32.3863 57.43 32.8073C57.4655 32.883 57.5053 32.9569 57.5492 33.0288C57.0811 33.1351 56.655 33.4727 56.3407 33.7928L56.1811 33.6787C55.6934 33.3272 55.126 33.3199 54.8383 33.3448C55.0488 32.6532 55.5126 32.4864 56.1381 32.26C56.2538 32.2191 56.3731 32.175 56.4928 32.1271C56.545 32.1052 56.6001 32.0899 56.6568 32.0818L56.6586 32.0838ZM54.7523 33.5815C54.9243 33.5565 55.5347 33.4997 56.0308 33.8561L56.1807 33.9632C56.0542 34.1048 55.9365 34.2529 55.8282 34.4067C55.8023 34.4312 55.7826 34.4606 55.7706 34.493C55.7585 34.5253 55.7545 34.5598 55.7588 34.5937C55.763 34.6277 55.7754 34.6604 55.7951 34.6894C55.8148 34.7183 55.8413 34.7429 55.8726 34.7613C55.9039 34.7796 55.9392 34.7913 55.9761 34.7954C56.0129 34.7996 56.0503 34.7961 56.0854 34.7852C56.1206 34.7744 56.1527 34.7564 56.1794 34.7326C56.2061 34.7089 56.2266 34.6799 56.2396 34.6479C56.3397 34.5038 56.4493 34.3655 56.5677 34.2338C56.6386 34.2829 56.7007 34.3258 56.7574 34.3638C56.8244 34.4096 56.8803 34.4455 56.9295 34.4819C56.7862 34.6219 56.6529 34.7703 56.5305 34.9262C56.5029 34.9495 56.4814 34.9782 56.4676 35.0101C56.4537 35.0421 56.4478 35.0765 56.4503 35.1109C56.4528 35.1452 56.4636 35.1786 56.482 35.2086C56.5004 35.2386 56.5258 35.2643 56.5564 35.284C56.5871 35.3037 56.6221 35.3168 56.659 35.3223C56.6958 35.3278 56.7336 35.3256 56.7694 35.3159C56.8052 35.3061 56.8382 35.2891 56.8659 35.266C56.8936 35.2429 56.9153 35.2144 56.9295 35.1825C57.0283 35.0558 57.1355 34.9349 57.2504 34.8204C57.2544 34.8273 57.2584 34.8343 57.262 34.8412C57.3311 34.9638 57.4096 35.1069 57.5767 35.2005L57.5834 35.2046C57.4025 35.3775 57.2824 35.5283 57.2518 35.597L57.2464 35.6088C57.2464 35.6121 57.2464 35.615 57.2442 35.6182C57.2366 35.6402 57.2326 35.6631 57.2323 35.6861C57.2323 35.7435 57.2556 35.7987 57.2976 35.8411C57.3395 35.8834 57.3972 35.9097 57.4592 35.9148C57.5211 35.9199 57.5829 35.9035 57.6324 35.8687C57.6819 35.834 57.7155 35.7834 57.7266 35.727C57.8078 35.627 57.8984 35.5338 57.9975 35.4486C58.103 35.5132 58.2156 35.5835 58.3273 35.653C58.186 35.7555 58.0562 35.8708 57.9398 35.9972C57.9168 36.0228 57.9001 36.0527 57.8908 36.0849C57.8816 36.1171 57.8801 36.1507 57.8863 36.1835C57.8926 36.2162 57.9066 36.2474 57.9272 36.2747C57.9479 36.302 57.9747 36.3248 58.0059 36.3416C58.0371 36.3584 58.0718 36.3687 58.1078 36.3718C58.1437 36.375 58.1799 36.3709 58.214 36.3598C58.248 36.3487 58.279 36.3309 58.3049 36.3077C58.3307 36.2845 58.3508 36.2563 58.3636 36.2252C58.4796 36.1157 58.6055 36.0156 58.74 35.926C58.8169 35.9779 58.8909 36.0332 58.9617 36.092C59.0071 36.1337 59.0492 36.1784 59.0876 36.2256C58.9311 36.3409 58.811 36.4419 58.7476 36.497C58.7161 36.5151 58.6894 36.5394 58.6694 36.5682C58.6493 36.597 58.6366 36.6295 58.6319 36.6634C58.6273 36.6974 58.6309 36.7318 58.6426 36.7643C58.6542 36.7967 58.6736 36.8264 58.6993 36.8511C58.7249 36.8758 58.7562 36.8948 58.7909 36.907C58.8256 36.9191 58.8628 36.9239 58.8997 36.9211C58.9367 36.9182 58.9725 36.9078 59.0045 36.8906C59.0366 36.8734 59.064 36.8498 59.0849 36.8216C59.1736 36.7456 59.2703 36.6667 59.3758 36.5882C59.5336 36.7824 59.6994 36.9561 59.8869 37.008C59.9291 37.0193 59.9729 37.0248 60.0168 37.0243C60.1662 37.0243 60.3524 36.9724 60.5741 36.9107C60.9208 36.8142 61.3504 36.6957 61.6988 36.7828C61.8762 36.9189 62.0291 37.0358 62.1369 37.12C61.5078 37.1609 60.7851 37.3141 60.1042 37.5553C59.4777 37.7785 58.2169 37.0591 57.5856 36.4774C57.086 36.0164 56.8266 35.85 56.6182 35.7163C56.5766 35.6894 56.5367 35.6636 56.4963 35.6346C56.4188 35.5732 56.3518 35.5012 56.2977 35.4212C56.1567 35.2393 55.9812 35.0125 55.5977 34.8649C55.1761 34.7014 54.6396 34.1913 54.4579 34.0106C54.5767 33.8418 54.6791 33.6885 54.7509 33.5794L54.7523 33.5815ZM55.6518 39.2324C55.6074 39.0035 55.5511 38.2432 56.5101 37.6963C57.2194 37.2904 57.4894 36.9859 57.5829 36.7864C57.8106 36.9709 58.0527 37.1397 58.3073 37.2912C58.2224 37.3961 58.1516 37.51 58.0963 37.6305C57.9114 38.0589 58.0329 38.4071 58.4208 38.5645C58.7423 38.6941 59.7296 38.7877 60.8414 38.7877C62.1448 38.7877 63.6171 38.6581 64.3881 38.3074L64.4125 38.3164C65.0429 38.5469 65.1861 38.9381 65.218 39.12C64.3234 39.1854 63.6171 39.2786 62.8741 39.3775C62.1311 39.4764 61.3699 39.5778 60.293 39.6742C59.2162 39.7707 57.6556 39.6195 55.6504 39.2303L55.6518 39.2324ZM70.6258 37.998C69.2714 38.4067 65.7438 38.3883 65.3094 37.7936C65.1763 37.6092 65.132 37.4396 65.1763 37.2896C65.2353 37.0955 65.4308 36.9749 65.5133 36.9311C65.7036 36.9893 65.8859 37.0675 66.0568 37.1641C66.3161 37.3113 66.6146 37.3896 66.9191 37.3902C67.3708 37.3902 67.7694 37.223 68.0718 37.0963C68.2823 37.008 68.4996 36.9168 68.5732 36.9626C68.621 37.001 68.6676 37.0366 68.7093 37.0644C68.9052 37.1919 69.9927 37.7306 70.6245 37.9959L70.6258 37.998ZM68.3302 36.755C68.2072 36.793 68.0868 36.8381 67.9698 36.8899C67.5065 37.084 66.8717 37.3505 66.1809 36.9716C65.9819 36.8585 65.7682 36.7691 65.5448 36.7055H65.5412C65.4185 36.672 65.2939 36.6448 65.1679 36.6238C65.0254 36.6038 64.8859 36.5689 64.7521 36.5195C64.5898 36.4549 64.4564 36.3152 64.3154 36.1664C64.1381 35.9808 63.9386 35.7703 63.6384 35.6681C63.4318 35.5974 63.3228 35.4719 63.1951 35.3264C63.0417 35.1494 62.8679 34.9487 62.4942 34.8097C61.7179 34.5208 61.334 34.0895 61.2121 33.9297C61.4417 33.691 61.7117 33.5022 61.9156 33.5316C62.1537 33.5671 62.4423 33.6411 62.8307 33.8815C62.7013 34.029 62.5903 34.1896 62.4999 34.3601C62.477 34.387 62.4608 34.4184 62.4526 34.4518C62.4445 34.4852 62.4445 34.5199 62.4528 34.5533C62.461 34.5867 62.4773 34.618 62.5004 34.6449C62.5235 34.6718 62.5528 34.6935 62.5862 34.7086C62.6196 34.7236 62.6562 34.7316 62.6933 34.7319C62.7305 34.7323 62.7673 34.7249 62.801 34.7104C62.8347 34.696 62.8644 34.6747 62.888 34.6483C62.9117 34.6218 62.9286 34.5908 62.9375 34.5575C63.0131 34.4129 63.107 34.2771 63.2173 34.1529C63.2452 34.1745 63.2731 34.1962 63.3019 34.2199C63.4052 34.3017 63.5063 34.3797 63.6052 34.4509C63.489 34.5754 63.3811 34.7063 63.282 34.8428C63.256 34.8668 63.2362 34.8958 63.2238 34.9277C63.2115 34.9596 63.2069 34.9936 63.2106 35.0274C63.2142 35.0611 63.2258 35.0936 63.2447 35.1227C63.2636 35.1517 63.2892 35.1766 63.3198 35.1954C63.3503 35.2142 63.385 35.2266 63.4214 35.2316C63.4577 35.2366 63.4948 35.2341 63.5299 35.2243C63.5651 35.2145 63.5975 35.1977 63.6248 35.175C63.652 35.1523 63.6735 35.1243 63.6876 35.093C63.7819 34.9612 63.8856 34.8353 63.998 34.7161C64.1571 34.8159 64.2981 34.8968 64.4143 34.9614C64.2955 35.0756 64.1857 35.1974 64.0858 35.326C64.0578 35.3486 64.0358 35.3767 64.0212 35.4082C64.0065 35.4397 63.9998 35.4739 64.0013 35.5081C64.0029 35.5424 64.0127 35.5758 64.0301 35.6061C64.0476 35.6364 64.0721 35.6627 64.102 35.6831C64.1318 35.7035 64.1663 35.7175 64.2028 35.724C64.2393 35.7305 64.2769 35.7295 64.3129 35.7209C64.3488 35.7122 64.3823 35.6963 64.4107 35.6742C64.4392 35.6522 64.4619 35.6245 64.4772 35.5933C64.5771 35.4644 64.6881 35.3431 64.8093 35.2307C64.8824 35.3125 64.9569 35.4118 65.0176 35.494L65.0429 35.5275C64.9316 35.6418 64.8363 35.7686 64.7592 35.9048C64.7361 35.9316 64.7197 35.9629 64.7114 35.9963C64.7031 36.0297 64.703 36.0644 64.7111 36.0978C64.7192 36.1313 64.7354 36.1626 64.7583 36.1896C64.7813 36.2165 64.8105 36.2384 64.8438 36.2536C64.8772 36.2688 64.9137 36.2769 64.9509 36.2773C64.9881 36.2778 65.0249 36.2706 65.0586 36.2562C65.0924 36.2419 65.1222 36.2207 65.146 36.1944C65.1697 36.168 65.1868 36.1371 65.1959 36.1038C65.2534 36.0036 65.3239 35.9103 65.406 35.8259C65.5275 35.8954 65.672 35.9779 65.805 36.0597C65.7357 36.1393 65.672 36.223 65.6144 36.3102C65.5892 36.3351 65.5703 36.3647 65.559 36.3971C65.5478 36.4294 65.5445 36.4637 65.5493 36.4974C65.5542 36.5311 65.5672 36.5633 65.5872 36.5918C65.6073 36.6203 65.634 36.6444 65.6654 36.6622C65.6967 36.68 65.732 36.6912 65.7687 36.6949C65.8053 36.6987 65.8424 36.6948 65.8772 36.6837C65.912 36.6726 65.9437 36.6545 65.9701 36.6307C65.9964 36.6069 66.0166 36.578 66.0293 36.5461C66.0825 36.4646 66.1425 36.3871 66.2089 36.3143C66.2478 36.3403 66.2849 36.3684 66.3201 36.3985C66.4146 36.4856 66.7426 36.7664 66.9891 36.6806L67.0335 36.6659C67.7512 36.4173 67.9082 36.4296 67.9361 36.4378C68.0057 36.4729 68.1578 36.6074 68.2908 36.7264L68.3302 36.755ZM65.9806 34.8723C65.6985 34.9941 65.4408 35.1592 65.2185 35.3603C65.1479 35.2623 65.072 35.1676 64.991 35.0766C65.2699 34.8572 65.5536 34.7161 65.7717 34.6757C65.8391 34.7394 65.9087 34.8052 65.9788 34.8702L65.9806 34.8723ZM67.6431 36.2473C67.408 36.3034 67.1769 36.3726 66.951 36.4545L66.9102 36.4684C66.8615 36.4852 66.6886 36.4124 66.4975 36.2383C66.4612 36.2064 66.4229 36.1767 66.3827 36.1492C66.6225 35.9407 66.8752 35.8157 67.0215 35.7785C67.2445 35.9579 67.4555 36.1173 67.6413 36.2453L67.6431 36.2473ZM65.9743 35.8888C65.8356 35.8071 65.695 35.7253 65.5829 35.6595C65.8081 35.4658 66.0785 35.3002 66.2953 35.243C66.3203 35.2362 66.3458 35.231 66.3716 35.2275C66.4552 35.3019 66.5384 35.3745 66.6212 35.4453C66.3801 35.5585 66.1609 35.7077 65.9726 35.8868L65.9743 35.8888ZM64.6 34.7991C64.4847 34.7345 64.3376 34.6516 64.1695 34.5473C64.4989 34.2412 64.8576 34.0282 65.1276 34.0303C65.218 34.1251 65.3108 34.2205 65.406 34.3164C65.1085 34.4325 64.8349 34.5951 64.5974 34.7971L64.6 34.7991ZM63.7723 34.282C63.6726 34.2109 63.5701 34.1341 63.466 34.0495C63.4367 34.0258 63.4088 34.0049 63.38 33.9824C63.7191 33.6493 64.1443 33.3783 64.444 33.3031C64.4581 33.2998 64.4683 33.2986 64.4808 33.2961C64.5694 33.4065 64.6665 33.5214 64.7703 33.6395C64.416 33.7462 64.0662 33.9951 63.7697 34.28L63.7723 34.282ZM62.9406 31.9967C63.2576 31.9117 63.6783 32.2191 64.1882 32.9095C63.798 33.0435 63.3489 33.3485 62.9912 33.7082C62.6396 33.4874 62.3115 33.3611 61.9555 33.3084C61.6895 33.2675 61.3969 33.4404 61.1456 33.6693C61.1456 33.4404 61.2342 33.0713 61.7418 32.7725C62.0459 32.5966 62.3372 32.4026 62.6139 32.1917C62.7606 32.0785 62.8347 32.0213 62.938 31.9947L62.9406 31.9967ZM62.4086 30.9814C62.4312 31.0333 62.4157 31.1016 62.3669 31.1825C62.2282 31.2234 61.7742 31.355 61.3681 31.393C61.3374 31.3964 61.3093 31.4104 61.2894 31.4322C61.2695 31.454 61.2593 31.4819 61.2609 31.5104C61.2625 31.5388 61.2757 31.5656 61.2979 31.5854C61.3201 31.6052 61.3496 31.6165 61.3805 31.617H61.3929C61.7118 31.581 62.0264 31.518 62.3328 31.429L62.3528 32.0981C62.1156 32.2725 61.8679 32.4345 61.6111 32.5833C60.8184 33.0493 60.8849 33.691 60.9292 33.8913C60.8292 34.0052 60.7392 34.1263 60.6601 34.2534C60.5054 34.5064 59.9113 34.7734 59.6227 34.8837L59.5731 34.8428C59.6151 34.8209 59.6491 34.788 59.6708 34.7482C59.6925 34.7084 59.7008 34.6636 59.6948 34.6194C59.6888 34.5752 59.6686 34.5337 59.6369 34.5001C59.6052 34.4666 59.5634 34.4424 59.5168 34.4308C59.3631 34.3934 59.2028 34.385 59.0455 34.4063C58.9684 34.3405 58.8983 34.2792 58.8345 34.2215L58.8238 33.2618L58.8065 31.6791C58.9484 31.7221 59.1745 31.7642 59.5216 31.7642C59.76 31.7627 59.998 31.7466 60.2341 31.7159C60.2656 31.7114 60.2939 31.6957 60.3129 31.6721C60.332 31.6486 60.3403 31.6191 60.3361 31.59C60.3318 31.5608 60.3154 31.5344 60.2903 31.5163C60.2652 31.4982 60.2334 31.4899 60.2017 31.4932C59.2237 31.6158 58.8495 31.4621 58.7728 31.4233C58.7157 31.3362 58.6957 31.2618 58.7179 31.2021C58.744 31.1306 58.8283 31.0828 58.877 31.0623C59.2893 31.1028 59.7037 31.1232 60.1184 31.1233C60.79 31.1233 61.5991 31.0656 62.2215 30.8465C62.2827 30.8649 62.3771 30.9087 62.4077 30.9794L62.4086 30.9814ZM62.0983 30.6544C61.0467 31.0068 59.4033 30.8874 58.9785 30.849L58.8455 27.4805C58.8925 27.3804 58.9342 27.2761 58.9785 27.1748C59.5928 27.2595 60.2128 27.3047 60.8339 27.31C61.2318 27.3144 61.6292 27.2838 62.0207 27.2185L62.0983 30.6544ZM62.6875 20.8171C62.6937 20.9925 62.7052 21.1793 62.7181 21.375C62.6068 20.8927 62.5217 20.4182 62.4481 19.9796C62.5318 19.9517 62.618 19.9303 62.7057 19.9158C62.6666 20.2592 62.6728 20.43 62.6861 20.8134L62.6875 20.8171ZM63.0714 19.5533C63.0769 19.5673 63.0785 19.5824 63.0761 19.5972C63.0737 19.6119 63.0674 19.6259 63.0577 19.6379C63.0487 19.6489 63.0371 19.6578 63.0236 19.6638C63.0102 19.6699 62.9954 19.6729 62.9805 19.6726C62.9402 19.6726 62.8989 19.6726 62.8582 19.6751C62.8582 19.6751 62.8546 19.6751 62.8533 19.6751C62.7024 19.6828 62.5532 19.7092 62.4099 19.7535C62.3904 19.6334 62.3705 19.5128 62.351 19.3926C62.1701 18.2776 61.9812 17.1265 61.588 16.0376C61.9555 16.598 62.2761 17.447 62.7074 18.5943C62.8191 18.8903 62.9393 19.2099 63.0701 19.5496L63.0714 19.5533ZM65.6427 8.93687C65.6429 9.17771 65.5911 9.41617 65.4901 9.6383C65.3892 9.86043 65.2412 10.0618 65.0549 10.2306C65.0319 10.2007 65.007 10.1722 64.9804 10.1451C64.9729 10.1378 64.9649 10.1312 64.9569 10.1239C64.9353 10.1027 64.9126 10.0826 64.8886 10.0638C64.8758 10.0532 64.862 10.0438 64.8483 10.0344C64.8345 10.025 64.8079 10.0062 64.7871 9.99348C64.7663 9.98081 64.7565 9.97509 64.7428 9.96691C64.729 9.95874 64.6984 9.94484 64.6776 9.93503C64.6568 9.92522 64.6466 9.92073 64.6306 9.91459C64.6032 9.90407 64.5753 9.89493 64.5468 9.88721C64.5362 9.88394 64.5255 9.87985 64.5145 9.87699C64.4759 9.86741 64.4366 9.86044 64.397 9.85614C64.3841 9.85614 64.3708 9.85614 64.3575 9.85369C64.3376 9.85369 64.3181 9.85001 64.2981 9.85001C64.2782 9.85001 64.2693 9.85001 64.2538 9.85001L64.205 9.85246H64.1673H64.1509H64.1066H64.0897H64.037H64.0246H63.9638H63.9528H63.8809H63.8765H63.7985H63.79H63.7067H63.6983H63.6096H63.6021H63.5076H63.4921H63.3959H62.7039C62.7065 9.84592 62.7088 9.83898 62.7114 9.83244C62.7354 9.77726 62.7557 9.72126 62.7761 9.66485C62.7761 9.65995 62.7792 9.65463 62.7806 9.64973C62.7979 9.59536 62.8125 9.54059 62.8249 9.48623C62.8276 9.4756 62.8302 9.46456 62.8324 9.45353C62.8444 9.3963 62.8533 9.33785 62.8599 9.2794C62.8599 9.26714 62.8599 9.25528 62.8635 9.24343C62.8692 9.18253 62.8728 9.12081 62.8728 9.05908C62.8728 8.99042 62.8692 8.92215 62.8621 8.85471C62.8621 8.83264 62.8551 8.81057 62.852 8.78849C62.8457 8.74353 62.8395 8.69898 62.8302 8.65483C62.8249 8.62867 62.8169 8.60333 62.8103 8.57758C62.8005 8.5367 62.7908 8.49869 62.7784 8.46027C62.7695 8.43329 62.7589 8.40672 62.7487 8.37852C62.7354 8.34214 62.7221 8.30577 62.7043 8.27021C62.6924 8.24323 62.6791 8.21707 62.6658 8.18846C62.6489 8.15453 62.6321 8.1206 62.613 8.08749C62.5979 8.06092 62.5815 8.03518 62.5656 8.00943C62.5452 7.97754 62.5248 7.94607 62.5026 7.915C62.4804 7.88394 62.4658 7.86473 62.4463 7.83979C62.4268 7.81486 62.3989 7.78052 62.374 7.75191C62.3492 7.7233 62.3297 7.70409 62.3093 7.68079C62.2965 7.6673 62.2849 7.653 62.2716 7.63992C62.5465 7.38454 62.8974 7.21016 63.2799 7.13889C63.6624 7.06761 64.0593 7.10264 64.4202 7.23954C64.781 7.37644 65.0897 7.60904 65.307 7.90787C65.5244 8.20669 65.6406 8.55828 65.641 8.91807L65.6427 8.93687ZM62.0167 7.73679C62.2104 7.9099 62.3641 8.11724 62.4689 8.3464C62.5736 8.57557 62.6272 8.82185 62.6263 9.07053C62.6261 9.14142 62.6217 9.21224 62.613 9.28267C62.613 9.28512 62.613 9.28757 62.613 9.28962C62.6043 9.35725 62.5916 9.42439 62.5749 9.49072L62.5722 9.50339C62.5552 9.56794 62.5346 9.63165 62.5106 9.69428C62.5084 9.69959 62.5066 9.70532 62.5044 9.71063C62.4796 9.77246 62.4514 9.83304 62.4197 9.89211C62.4162 9.89824 62.4135 9.90478 62.4099 9.91091L62.4073 9.91541C62.405 9.91868 62.4029 9.92209 62.4011 9.92563C62.399 9.92877 62.3973 9.93205 62.3958 9.93544C62.3282 10.0559 62.2459 10.1689 62.1506 10.2722C61.8888 10.5592 61.5393 10.7667 61.1477 10.8677C60.756 10.9688 60.3405 10.9587 59.9552 10.8388C59.5699 10.7189 59.2327 10.4947 58.9876 10.1955C58.7426 9.89625 58.601 9.5359 58.5813 9.1614C58.5617 8.78689 58.6649 8.41562 58.8774 8.09599C59.09 7.77637 59.4022 7.52322 59.7731 7.36957C60.1441 7.21591 60.5566 7.16888 60.957 7.2346C61.3574 7.30033 61.727 7.47576 62.0176 7.73802L62.0167 7.73679ZM56.3168 11.9244C56.1838 11.7834 56.1394 11.5463 56.1869 11.2201C56.2246 10.9471 56.3234 10.7734 56.4804 10.7039C56.7606 10.5813 57.1609 10.8008 57.1649 10.8032C57.1924 10.8179 57.2251 10.8221 57.256 10.8149C57.2868 10.8077 57.3134 10.7897 57.33 10.7646C57.3466 10.7396 57.352 10.7096 57.3449 10.681C57.3378 10.6523 57.3189 10.6274 57.2921 10.6115C57.1389 10.5287 56.9702 10.4732 56.7947 10.448C56.5939 9.1347 55.81 4.12306 55.3131 2.56287L55.9701 3.06481C55.9873 3.07789 56.0081 3.08635 56.0302 3.08929C56.0523 3.09223 56.0748 3.08953 56.0953 3.08148C56.1158 3.07343 56.1336 3.06034 56.1466 3.04363C56.1596 3.02693 56.1674 3.00725 56.1691 2.98674L56.2436 2.11325L56.9042 2.70961C56.9204 2.72404 56.9405 2.73408 56.9625 2.73862C56.9845 2.74317 57.0074 2.74204 57.0287 2.73537C57.05 2.72869 57.0689 2.71673 57.0833 2.70079C57.0977 2.68485 57.1071 2.66556 57.1103 2.64503L57.2491 1.74824L57.8117 2.43125C57.8247 2.4469 57.8419 2.45912 57.8617 2.46671C57.8814 2.4743 57.903 2.47699 57.9242 2.47451C57.9454 2.47203 57.9655 2.46446 57.9826 2.45257C57.9996 2.44068 58.013 2.42487 58.0214 2.40673L58.4421 1.47765L58.9817 2.16352C58.9945 2.1798 59.0118 2.1926 59.0318 2.20059C59.0518 2.20859 59.0738 2.21149 59.0955 2.20898C59.1171 2.20647 59.1376 2.19866 59.1549 2.18635C59.1721 2.17404 59.1855 2.15769 59.1936 2.139L59.5482 1.3215L60.0935 1.94485C60.1062 1.95931 60.1225 1.97062 60.1411 1.97776C60.1597 1.9849 60.1799 1.98764 60.1999 1.98572C60.22 1.98389 60.2393 1.97752 60.2561 1.96718C60.2729 1.95685 60.2866 1.94286 60.2961 1.92645L60.716 1.19316L61.3225 2.00411C61.3347 2.02084 61.3516 2.03414 61.3715 2.04258C61.3913 2.05101 61.4133 2.05425 61.4351 2.05194C61.4568 2.04997 61.4775 2.04262 61.4951 2.03068C61.5126 2.01873 61.5264 2.00263 61.5348 1.98408L61.8757 1.24098L62.2969 1.99185C62.3064 2.00883 62.3205 2.02329 62.3378 2.03386C62.3551 2.04442 62.3751 2.05073 62.3958 2.05221C62.4164 2.05368 62.4372 2.05026 62.456 2.04227C62.4749 2.03429 62.4912 2.02199 62.5035 2.00656L63.0568 1.30597L63.4478 2.09485C63.4564 2.11227 63.4696 2.12738 63.4863 2.13875C63.503 2.15012 63.5225 2.15738 63.5431 2.15984C63.5637 2.16242 63.5847 2.16 63.604 2.15284C63.6232 2.14567 63.6402 2.134 63.6531 2.11897L64.2866 1.40612L64.4484 6.4337C64.449 6.45407 64.4557 6.4739 64.4676 6.49104C64.4796 6.50818 64.4964 6.52199 64.5162 6.53099C64.6562 6.60145 64.771 6.70795 64.8465 6.8375C64.922 6.96705 64.9549 7.11406 64.9414 7.2606C64.5138 6.98293 63.993 6.85452 63.4722 6.89832C62.9513 6.94213 62.4643 7.15529 62.0983 7.49971C61.6866 7.16332 61.1553 6.97788 60.6051 6.97856C60.2242 6.97851 59.8494 7.06699 59.5153 7.2358C59.1813 7.40462 58.8987 7.64834 58.6938 7.94444C58.489 8.24054 58.3683 8.57948 58.3431 8.92994C58.3178 9.2804 58.3887 9.63107 58.5494 9.94956C58.71 10.268 58.955 10.5441 59.2619 10.7522C59.5688 10.9602 59.9276 11.0937 60.3053 11.1401C60.6829 11.1865 61.0671 11.1444 61.4224 11.0177C61.7777 10.8911 62.0926 10.6839 62.3381 10.4153C62.4315 10.314 62.514 10.2045 62.5842 10.0883C63.5063 10.0973 64.0077 10.0838 64.2662 10.0707C64.4879 10.0601 64.7255 10.1807 64.8642 10.3675C64.884 10.3935 64.9017 10.4208 64.917 10.4492C64.972 10.5526 65.0691 10.8171 64.7751 11.0301L64.7632 11.0399C64.5796 11.1694 64.1926 11.3146 63.4012 11.2982H63.3981C63.3821 11.298 63.3662 11.3007 63.3514 11.3062C63.3365 11.3117 63.3229 11.3198 63.3115 11.3301C63.3 11.3404 63.2909 11.3527 63.2845 11.3663C63.2782 11.3798 63.2749 11.3944 63.2747 11.4092C63.2745 11.4239 63.2774 11.4386 63.2834 11.4523C63.2893 11.466 63.2981 11.4785 63.3093 11.4891C63.3205 11.4996 63.3338 11.5081 63.3485 11.5139C63.3632 11.5197 63.379 11.5228 63.395 11.523H63.5303C64.0383 11.523 64.4373 11.4552 64.7241 11.3219C64.7512 11.8459 65.0345 12.5073 65.2194 12.8866C65.2377 12.9252 65.2414 12.9684 65.2297 13.0091C65.218 13.0499 65.1917 13.0858 65.1551 13.111C64.2742 13.7147 62.468 14.2379 58.8699 13.3023C58.6562 13.2467 58.6234 13.2381 58.5694 13.297C58.5541 13.3138 58.5443 13.3342 58.5413 13.356C58.5384 13.3777 58.5422 13.3998 58.5525 13.4196C58.5624 13.4386 58.5778 13.4546 58.5971 13.4659C58.6164 13.4772 58.6387 13.4832 58.6616 13.4834C58.6868 13.4891 58.744 13.5038 58.8039 13.5193C59.8634 13.7948 60.7727 13.9452 61.5525 14.0053C61.3508 14.3536 61.0582 14.3822 60.7989 14.4067C60.7114 14.4108 60.6248 14.4246 60.5409 14.4476C60.2483 14.5469 60.2385 15.2042 60.2522 15.5316C60.1751 15.5892 60.0173 15.5986 59.9268 15.6039C59.2946 15.6448 58.7525 15.6146 58.267 15.514C57.9159 15.4413 57.469 15.3256 57.1068 15.0767C56.9826 14.9931 56.8757 14.8897 56.7911 14.7713C57.1072 12.1116 57.0057 12.1002 56.8656 12.0859C56.8523 12.0859 56.8328 12.0838 56.808 12.0834C56.6967 12.0863 56.4653 12.0818 56.3185 11.9244H56.3168ZM54.128 17.1887C54.5656 16.2947 55.3654 14.6606 56.4356 14.484C56.4401 14.5272 56.4471 14.5702 56.4564 14.6127C56.4746 14.695 56.5063 14.7743 56.5504 14.8478C56.5504 14.8514 56.554 14.8551 56.5562 14.8588C56.6605 15.0175 56.7989 15.1549 56.9627 15.2626C57.3617 15.5373 57.8405 15.6616 58.2151 15.7396C58.7241 15.8447 59.2898 15.8758 59.9441 15.8341C60.0816 15.8263 60.3338 15.8108 60.4642 15.6591C60.4665 15.6571 60.4685 15.6549 60.4704 15.6526L60.4739 15.6493C60.5203 15.5923 60.5466 15.5235 60.5493 15.4523C60.5523 15.3662 60.5457 15.2801 60.5298 15.1952C60.6732 15.2345 60.8081 15.2963 60.9288 15.3779C60.9797 15.4108 61.0246 15.4509 61.0618 15.4969C61.0632 15.4994 61.065 15.5017 61.0671 15.5038C61.1147 15.5691 61.1572 15.6374 61.1943 15.7082C61.196 15.712 61.1979 15.7157 61.2001 15.7192C61.2416 15.8 61.2783 15.8828 61.31 15.9673C61.7317 17.0775 61.9249 18.2694 62.112 19.422C62.1386 19.5855 62.1648 19.749 62.1923 19.9125C62.1921 19.9146 62.1921 19.9166 62.1923 19.9187C62.3217 20.6953 62.484 21.5974 62.7646 22.4603C62.7646 22.4603 62.7646 22.4635 62.7668 22.4656C62.7681 22.4706 62.7697 22.4755 62.7717 22.4803C62.8311 22.6646 62.8914 22.8351 62.9557 22.9982C62.981 23.0644 63.0098 23.14 62.9903 23.187C62.957 23.2643 62.7943 23.2769 62.6999 23.2778C62.3478 23.2809 61.9961 23.2558 61.6487 23.2025C61.2577 23.1437 60.8645 23.048 60.4841 22.9573C59.9845 22.8347 59.4671 22.7092 58.9391 22.6622C58.6808 22.6402 58.4211 22.635 58.1619 22.6467H58.1575C58.1553 22.6467 58.1535 22.6467 58.1513 22.6467C57.666 22.6722 57.1841 22.7376 56.7113 22.842C56.6426 22.0724 56.7207 21.2438 56.7832 20.7619C57.5311 20.625 57.5333 20.4639 57.5333 20.4018V20.3985C57.5355 20.1314 57.5137 19.8645 57.4681 19.6007C57.4628 19.5712 57.445 19.545 57.4186 19.5276C57.3922 19.5103 57.3595 19.5034 57.3276 19.5083C57.2957 19.5132 57.2672 19.5296 57.2484 19.5539C57.2296 19.5782 57.222 19.6084 57.2274 19.6379C57.2584 19.8205 57.2784 20.0046 57.2872 20.1893C57.116 20.1408 56.94 20.1078 56.7619 20.0908H56.7481C56.3092 20.0435 55.8676 20.021 55.4257 20.0233C55.0568 20.0233 54.6924 20.0376 54.3697 20.0642C54.368 20.064 54.3664 20.064 54.3648 20.0642H54.359C53.9503 20.0985 53.7038 20.1459 53.553 20.1934C53.4852 19.1355 53.6843 18.1006 54.1298 17.1887H54.128ZM56.5305 23.3648C55.8655 23.6162 55.2395 23.8038 54.7961 23.9252C54.7449 23.774 54.7046 23.6199 54.6756 23.4637C54.5022 22.6013 54.4765 21.3587 54.4765 20.6945C54.4765 20.6536 54.4765 20.6156 54.4765 20.5792C54.4765 20.569 54.4765 20.5588 54.4765 20.549C54.4765 20.5159 54.4765 20.484 54.4765 20.455V20.4505C54.4765 20.4173 54.4765 20.3871 54.4765 20.3597V20.3503C54.4765 20.3233 54.4765 20.2988 54.4765 20.278C54.7673 20.2567 55.0892 20.2453 55.4146 20.2453C55.8095 20.2437 56.2042 20.2617 56.597 20.2992C56.5943 20.3143 56.5916 20.3315 56.589 20.3491C56.589 20.3564 56.5868 20.3626 56.5854 20.3703C56.5854 20.3846 56.5806 20.4006 56.5783 20.4161C56.5761 20.4317 56.5744 20.4398 56.5726 20.4529C56.5708 20.466 56.5677 20.4852 56.565 20.5016C56.5624 20.5179 56.5606 20.531 56.5584 20.5473C56.5535 20.58 56.5486 20.6152 56.5438 20.652C56.4755 21.1519 56.3753 22.121 56.4728 22.9908C56.4728 22.9908 56.4728 22.9937 56.4728 22.9953C56.479 23.0534 56.4866 23.1085 56.4941 23.1629L56.4994 23.1993C56.5079 23.2532 56.5163 23.3064 56.526 23.3575L56.5305 23.3648ZM52.4757 22.2612C52.5462 21.8803 52.6531 21.4981 52.7568 21.1282L52.7648 21.0987C52.9129 20.571 53.0942 19.9542 53.3048 19.3366C53.2781 19.6852 53.2791 20.035 53.3079 20.3834V20.4006C53.3079 20.5678 53.6182 20.6986 54.2327 20.7901C54.2353 21.4527 54.265 22.5686 54.4162 23.4C53.8576 23.5287 53.1492 23.6661 52.4279 23.6689H52.3733C52.3572 23.1979 52.3921 22.7266 52.4775 22.262L52.4757 22.2612ZM52.5334 23.8909C53.2374 23.8762 53.9179 23.7462 54.461 23.6211C54.4874 23.7454 54.5213 23.8682 54.5625 23.989C54.0611 24.119 53.7339 24.1844 53.7304 24.1848C53.7009 24.1905 53.6748 24.2062 53.6571 24.2286C53.6394 24.2511 53.6313 24.2788 53.6344 24.3064C53.6376 24.3341 53.6517 24.3596 53.6741 24.3782C53.6965 24.3968 53.7255 24.4071 53.7556 24.4071C53.7643 24.4071 53.7729 24.4063 53.7814 24.4047C53.7853 24.4047 54.1737 24.3266 54.7536 24.1725C55.4192 23.9944 56.0738 23.783 56.7144 23.5394C56.8705 23.4797 57.0274 23.4167 57.195 23.3456C57.8379 23.073 58.1021 22.925 58.1894 22.8719C58.4301 22.8614 58.6712 22.8663 58.9112 22.8866C59.4197 22.932 59.9268 23.0558 60.4185 23.1752C60.8042 23.2696 61.2032 23.3665 61.6057 23.4274C61.9273 23.4761 62.2525 23.5018 62.5784 23.5042L62.6582 26.7779C62.476 26.8866 61.6093 27.2818 59.0641 26.9569C59.1652 26.6867 59.2488 26.4113 59.3146 26.132C59.4507 25.5475 59.8289 25.0636 60.3529 24.8036C60.5392 24.7102 60.7385 24.6406 60.9452 24.5968C60.9767 24.59 61.004 24.5719 61.021 24.5465C61.0381 24.5211 61.0435 24.4905 61.0361 24.4615C61.0287 24.4324 61.009 24.4073 60.9815 24.3916C60.954 24.3759 60.9208 24.3709 60.8893 24.3777C60.6616 24.4264 60.4421 24.5033 60.2367 24.6062C59.6506 24.8972 59.2273 25.4359 59.0761 26.085C59.0025 26.3992 58.9058 26.7084 58.7866 27.0104C58.7316 27.1457 58.6722 27.2814 58.6093 27.4139C58.5165 27.6101 58.4114 27.8012 58.2945 27.9861C57.7463 28.0999 57.1871 28.1628 56.6253 28.1737C54.9491 28.2146 53.3673 27.8737 52.5644 27.6628H52.5578L52.5484 27.6603C52.3933 27.6195 52.274 27.5851 52.1995 27.5631L52.5334 23.8909ZM52.2727 31.1968C52.2814 31.1616 52.2986 31.1287 52.3229 31.1004C52.3472 31.0721 52.3781 31.0492 52.4132 31.0333C52.4253 31.0281 52.4387 31.0257 52.452 31.0263C52.4654 31.0269 52.4784 31.0304 52.4899 31.0366C52.8712 31.225 54.2912 31.7871 56.5854 31.1392C56.6202 31.1478 56.6522 31.1639 56.6788 31.1861C56.7055 31.2084 56.726 31.2361 56.7388 31.2671C56.7703 31.3656 56.6413 31.4621 56.5615 31.5124C56.5447 31.5226 56.531 31.5365 56.5215 31.5529C56.512 31.5692 56.507 31.5874 56.507 31.606V31.8843C56.4686 31.8942 56.431 31.9063 56.3944 31.9207C56.2755 31.9677 56.1585 32.0098 56.045 32.0507C55.3641 32.2959 54.7749 32.5089 54.5581 33.438C54.4415 33.6162 54.3173 33.7973 54.1919 33.9726C54.1907 33.9745 54.1894 33.9763 54.1879 33.9779C53.7095 34.6475 53.2126 35.2328 53.0454 35.2451C53.0211 35.2469 52.9966 35.2469 52.9723 35.2451C52.9661 35.2451 52.959 35.2426 52.9528 35.2422C52.9324 35.2397 52.9124 35.2369 52.8907 35.2324C52.8809 35.2324 52.8707 35.2267 52.8605 35.2242C52.8415 35.2193 52.8229 35.2148 52.8034 35.2083C52.7909 35.2042 52.7781 35.1989 52.7652 35.194C52.7524 35.1891 52.7298 35.1809 52.7116 35.1731C52.6934 35.1653 52.6837 35.1596 52.6673 35.1527C52.6509 35.1457 52.6331 35.1359 52.6158 35.1265C52.5985 35.1171 52.587 35.1089 52.5715 35.0999C52.556 35.091 52.5387 35.0795 52.5223 35.0685C52.5059 35.0574 52.4939 35.0472 52.478 35.0366C52.462 35.026 52.446 35.0121 52.4305 34.999C52.415 34.9859 52.4035 34.9745 52.3906 34.9622C52.3778 34.9499 52.3702 34.9422 52.36 34.9324L52.3955 33.5426L52.4917 31.6624C52.4924 31.6475 52.4899 31.6326 52.4844 31.6185C52.4788 31.6045 52.4703 31.5916 52.4593 31.5806C52.3219 31.431 52.2554 31.3006 52.2745 31.1976L52.2727 31.1968ZM51.918 35.9236C51.8839 35.6015 51.8369 35.1604 51.8138 34.6589C51.8014 34.3818 51.8458 34.179 51.9127 34.0307C51.9129 34.0337 51.9129 34.0367 51.9127 34.0397C51.9092 34.0576 51.9056 34.0773 51.9025 34.0969C51.9025 34.1051 51.8994 34.1128 51.8981 34.1214C51.8932 34.1508 51.8883 34.1811 51.8839 34.2134C51.8627 34.3611 51.8754 34.5112 51.9212 34.6541C51.9671 34.797 52.045 34.9294 52.1499 35.0427C52.1795 35.0754 52.2108 35.1066 52.2439 35.1363C52.2607 35.1515 52.2785 35.1649 52.2957 35.1772C52.313 35.1895 52.3285 35.205 52.3458 35.2181C52.3698 35.2361 52.3951 35.252 52.4199 35.2679C52.4314 35.2753 52.4425 35.2835 52.454 35.2904C52.4819 35.3076 52.5108 35.3227 52.54 35.3378C52.5489 35.3423 52.5578 35.3476 52.5671 35.3517C52.5963 35.3665 52.6265 35.3787 52.6557 35.3926L52.6828 35.4036C52.7111 35.4139 52.74 35.4225 52.7683 35.4306L52.802 35.44C52.8277 35.4466 52.853 35.4511 52.8783 35.4552C52.8929 35.4576 52.9075 35.4601 52.9226 35.4617C52.9377 35.4633 52.9647 35.4654 52.9856 35.4662C52.9958 35.4662 53.0064 35.4686 53.0166 35.4686C53.0268 35.4686 53.0494 35.4686 53.0658 35.4686C53.2994 35.4515 53.6865 35.0333 54.0411 34.578C54.1369 34.4554 54.23 34.3303 54.3173 34.2101C54.5179 34.4084 54.7331 34.5936 54.9615 34.7644C54.5864 35.214 53.002 37.2095 53.0397 38.6655C52.5294 38.5526 51.9513 38.4259 51.719 38.3752C51.8236 37.4813 51.957 36.5768 51.9584 36.569C51.9752 36.4566 51.953 36.2449 51.918 35.9244V35.9236ZM59.1 41.4825C58.541 41.3763 53.1221 40.9189 53.0671 40.9144C52.2434 40.8449 51.7762 40.4509 51.613 40.1055C51.5962 40.0683 51.554 39.85 51.6933 38.5968C52.0652 38.6785 53.1119 38.9078 53.6182 39.0223L53.7853 39.0607C54.39 39.2013 54.9634 39.3248 55.5055 39.431C55.5128 39.4334 55.5204 39.4349 55.5281 39.4355C57.1875 39.7605 58.5503 39.924 59.6001 39.924C59.8572 39.924 60.0962 39.9142 60.3156 39.8946C61.3983 39.7977 62.2003 39.6902 62.9078 39.5966C63.6641 39.496 64.381 39.4012 65.2978 39.3362C65.3147 39.3538 65.332 39.3701 65.3488 39.3897C65.7598 39.8766 65.5833 40.634 65.5354 40.8085C65.4911 40.8347 65.4468 40.86 65.3976 40.8845L65.3878 40.889C63.8583 41.6379 59.5398 41.5667 59.1009 41.4838L59.1 41.4825ZM71.5537 40.6781C71.2513 40.8633 67.3199 41.0027 65.7607 40.9017C65.7873 40.8171 66.0187 40.0343 65.66 39.4237C66.1539 39.4004 67.3957 39.3419 67.9428 39.3186C68.144 39.3096 68.5164 39.3047 68.9478 39.299C70.2942 39.2814 71.434 39.2581 71.7408 39.1707C71.7545 39.1768 71.8126 39.2385 71.8454 39.4331C71.9177 39.8533 71.8144 40.4545 71.5546 40.6793L71.5537 40.6781Z" fill="#1D1D1B"/>
<path d="M60.1701 9.38196C60.3567 9.38196 60.5079 9.24252 60.5079 9.0705C60.5079 8.89848 60.3567 8.75903 60.1701 8.75903C59.9835 8.75903 59.8323 8.89848 59.8323 9.0705C59.8323 9.24252 59.9835 9.38196 60.1701 9.38196Z" fill="#1D1D1B"/>
<path d="M63.8424 8.35474C63.7754 8.35466 63.71 8.37288 63.6543 8.4071C63.5986 8.44132 63.5552 8.49 63.5295 8.54698C63.5039 8.60396 63.4971 8.66668 63.5101 8.7272C63.5231 8.78773 63.5553 8.84334 63.6026 8.887C63.6499 8.93065 63.7101 8.9604 63.7758 8.97246C63.8414 8.98453 63.9094 8.97838 63.9713 8.95478C64.0331 8.93119 64.086 8.89122 64.1231 8.83992C64.1603 8.78862 64.1802 8.72831 64.1802 8.66661C64.1801 8.584 64.1445 8.5048 64.0811 8.44635C64.0178 8.38789 63.932 8.35495 63.8424 8.35474Z" fill="#1D1D1B"/>
<path d="M56.7854 11.2639C56.8123 11.2664 56.8386 11.2722 56.8639 11.281C56.9225 11.3081 56.973 11.3479 57.0111 11.3971C57.0345 11.3604 57.046 11.3183 57.0441 11.2757C57.0423 11.2331 57.0271 11.192 57.0004 11.1572C56.9709 11.1197 56.9322 11.0891 56.8876 11.0678C56.843 11.0465 56.7935 11.0351 56.7433 11.0346C56.6963 11.0333 56.6496 11.0407 56.6057 11.0563C56.5619 11.0719 56.5219 11.0953 56.4879 11.1253C56.425 11.1795 56.3875 11.2541 56.3833 11.3333C56.4622 11.3113 56.5229 11.29 56.5784 11.2773C56.5609 11.3066 56.549 11.3384 56.5433 11.3714C56.536 11.4243 56.5452 11.478 56.5699 11.5263C56.5948 11.5725 56.6471 11.6334 56.7207 11.6281C56.7261 11.584 56.7392 11.5411 56.7597 11.5009C56.7717 11.4681 56.7801 11.4343 56.785 11.4C56.7894 11.3654 56.7904 11.3305 56.7881 11.2957L56.7854 11.2639Z" fill="#1D1D1B"/>
<path d="M0.640173 26.0895C0.213391 25.6535 0 25.0267 0 24.2092V23.6337H1.62349V24.3245C1.62349 24.9785 1.92008 25.3047 2.51326 25.303C2.80438 25.303 3.02605 25.2239 3.17826 25.0656C3.33047 24.9072 3.40584 24.6507 3.40436 24.2959C3.40436 23.8738 3.30091 23.502 3.09402 23.1804C2.88714 22.8589 2.50202 22.4726 1.9387 22.0216C1.23114 21.4461 0.73682 20.9256 0.455747 20.4602C0.174673 19.9948 0.0342844 19.4694 0.03458 18.8841C0.03458 18.0878 0.252995 17.4713 0.689827 17.0345C1.12666 16.5977 1.7621 16.3797 2.59616 16.3805C3.4181 16.3805 4.03995 16.5985 4.46171 17.0345C4.88347 17.4705 5.0942 18.0966 5.0939 18.9127V19.33H3.46554V18.8121C3.46554 18.4666 3.39268 18.2147 3.24697 18.0564C3.10126 17.898 2.88802 17.8189 2.60724 17.8189C2.03446 17.8189 1.74821 18.1403 1.74851 18.7831C1.74738 19.1449 1.85844 19.4994 2.06859 19.805C2.28169 20.123 2.66901 20.5073 3.23057 20.9581C3.94877 21.5341 4.44309 22.057 4.71352 22.5268C4.98395 22.9966 5.11932 23.5484 5.11961 24.1822C5.11961 25.0076 4.89795 25.6409 4.45461 26.0821C4.01128 26.5233 3.36859 26.744 2.52656 26.7443C1.69545 26.7443 1.06666 26.526 0.640173 26.0895Z" fill="#1D1D1B"/>
<path d="M6.10388 16.5253H8.25804L9.92852 22.5559H9.95955V16.5253H11.4895V26.6005H9.72547L7.66397 19.2455H7.63294V26.6005H6.10388V16.5253Z" fill="#1D1D1B"/>
<path d="M12.7694 16.5253H17.4528V17.9645H14.4864V20.627H16.8436V22.0666H14.4864V25.1609H17.4528V26.6005H12.7694V16.5253Z" fill="#1D1D1B"/>
<path d="M19.7629 16.5253H22.0887L23.8686 26.6005H22.1512L21.8408 24.5976V24.6266H19.8902L19.5776 26.5984H17.9834L19.7629 16.5253ZM21.636 23.261L20.8713 18.2812H20.8398L20.0906 23.261H21.636Z" fill="#1D1D1B"/>
<path d="M24.6956 16.5253H26.413V20.7713L28.5982 16.5253H30.3157L28.2706 20.2244L30.3467 26.6009H28.5517L27.0998 22.11L26.413 23.391V26.6009H24.6956V16.5253Z" fill="#1D1D1B"/>
<path d="M31.1606 16.5253H35.8436V17.9645H32.8777V20.627H35.2349V22.0666H32.8777V25.1609H35.8436V26.6005H31.1606V16.5253Z" fill="#1D1D1B"/>
<path d="M36.8252 16.5253H39.3695C40.2538 16.5253 40.899 16.7148 41.3051 17.0938C41.7112 17.4729 41.9142 18.0558 41.9142 18.8425V19.4613C41.9142 20.5071 41.5396 21.1693 40.7904 21.4478V21.4764C41.2062 21.5917 41.5001 21.8267 41.6722 22.1815C41.8442 22.5363 41.93 23.0113 41.9297 23.6064V25.3771C41.927 25.61 41.9374 25.8429 41.9608 26.0748C41.9826 26.2565 42.0355 26.4339 42.1173 26.6005H40.3688C40.31 26.4513 40.2681 26.2969 40.2437 26.1398C40.2177 25.8817 40.2073 25.6224 40.2127 25.3632V23.5193C40.2127 23.0588 40.132 22.7374 39.9706 22.5551C39.8093 22.3728 39.5309 22.2817 39.1354 22.2817H38.5422V26.5997H36.8252V16.5253ZM39.1664 20.8433C39.5102 20.8433 39.7677 20.7615 39.9392 20.598C40.1106 20.4345 40.1964 20.1611 40.1967 19.7777V19.001C40.1967 18.6367 40.1265 18.3729 39.9862 18.2097C39.8458 18.0465 39.6241 17.9647 39.3212 17.9645H38.5422V20.8433H39.1664Z" fill="#1D1D1B"/>
<path d="M43.4596 26.0895C43.0326 25.6535 42.8192 25.0267 42.8195 24.2092V23.6337H44.4429V24.3245C44.4429 24.9785 44.7395 25.3047 45.3327 25.303C45.6241 25.303 45.8458 25.2239 45.9977 25.0656C46.1496 24.9072 46.225 24.6507 46.2238 24.2959C46.2238 23.8738 46.1204 23.502 45.9135 23.1804C45.7066 22.8589 45.3215 22.4726 44.7582 22.0216C44.0506 21.4461 43.5563 20.9256 43.2752 20.4602C42.9941 19.9948 42.8537 19.4694 42.854 18.8841C42.854 18.0878 43.0725 17.4713 43.5093 17.0345C43.9461 16.5977 44.5816 16.3797 45.4156 16.3805C46.2376 16.3805 46.8594 16.5985 47.2812 17.0345C47.7029 17.4705 47.9137 18.0966 47.9134 18.9127V19.33H46.2899V18.8121C46.2899 18.4666 46.217 18.2147 46.0713 18.0564C45.9256 17.898 45.7124 17.8189 45.4316 17.8189C44.8588 17.8189 44.5725 18.1403 44.5728 18.7831C44.5717 19.1449 44.6828 19.4994 44.8929 19.805C45.106 20.1219 45.4936 20.5057 46.0558 20.9564C46.774 21.5325 47.2683 22.0554 47.5387 22.5252C47.8092 22.995 47.9445 23.5468 47.9448 24.1806C47.9448 25.006 47.7232 25.6393 47.2798 26.0805C46.8365 26.5216 46.1923 26.7429 45.3473 26.7443C44.5154 26.7443 43.8861 26.526 43.4596 26.0895Z" fill="#1D1D1B"/>
<path d="M67.7121 26.0895C67.2856 25.6535 67.0724 25.0267 67.0724 24.2092V23.6337H68.6959V24.3245C68.6959 24.9785 68.9925 25.3047 69.5856 25.303C69.8771 25.303 70.0987 25.2239 70.2506 25.0656C70.4026 24.9072 70.4781 24.6507 70.4772 24.2959C70.4772 23.8738 70.3737 23.502 70.1669 23.1804C69.96 22.8589 69.5749 22.4726 69.0115 22.0216C68.3022 21.4461 67.8079 20.9256 67.5286 20.4602C67.2493 19.9948 67.1087 19.4694 67.107 18.8841C67.107 18.0878 67.3255 17.4713 67.7627 17.0345C68.1998 16.5977 68.8352 16.3797 69.669 16.3805C70.4909 16.3805 71.1128 16.5985 71.5345 17.0345C71.9563 17.4705 72.167 18.0966 72.1667 18.9127V19.33H70.5432V18.8121C70.5432 18.4666 70.4704 18.2147 70.3247 18.0564C70.179 17.898 69.9656 17.8189 69.6845 17.8189C69.1123 17.8189 68.8261 18.1403 68.8258 18.7831C68.8248 19.1449 68.9359 19.4994 69.1459 19.805C69.359 20.1219 69.7467 20.5057 70.3092 20.9564C71.0268 21.5325 71.5211 22.0554 71.7921 22.5252C72.0631 22.995 72.1984 23.5468 72.1978 24.1806C72.1978 25.006 71.9761 25.6393 71.5328 26.0805C71.0894 26.5216 70.4467 26.7424 69.6047 26.7426C68.7698 26.7437 68.1389 26.526 67.7121 26.0895Z" fill="#1D1D1B"/>
<path d="M74.5186 17.9645H72.7231V16.5253H78.0307V17.9645H76.2357V26.6005H74.5186V17.9645Z" fill="#1D1D1B"/>
<path d="M79.3421 26.0821C78.8946 25.6407 78.6709 25.0169 78.6709 24.2109V18.9144C78.6709 18.1083 78.8946 17.4847 79.3421 17.0435C79.7896 16.6023 80.4349 16.3816 81.2781 16.3813C82.1211 16.3813 82.7663 16.6021 83.2137 17.0435C83.6612 17.485 83.8849 18.1086 83.8849 18.9144V24.2109C83.8849 25.0169 83.6612 25.6407 83.2137 26.0821C82.7663 26.5236 82.1211 26.7443 81.2781 26.7443C80.4349 26.7443 79.7896 26.5236 79.3421 26.0821ZM82.1679 24.3119V18.8138C82.1679 18.1516 81.8713 17.8205 81.2781 17.8205C80.685 17.8205 80.3884 18.1516 80.3884 18.8138V24.3119C80.3884 24.974 80.685 25.305 81.2781 25.3047C81.8713 25.3044 82.1679 24.9735 82.1679 24.3119Z" fill="#1D1D1B"/>
<path d="M85.0403 16.5253H87.5846C88.4692 16.5253 89.1145 16.7148 89.5206 17.0938C89.9267 17.4729 90.1296 18.0558 90.1293 18.8425V19.4613C90.1293 20.5071 89.7545 21.1693 89.005 21.4478V21.4764C89.4214 21.5917 89.7155 21.8267 89.8872 22.1815C90.059 22.5363 90.1448 23.0113 90.1448 23.6064V25.3771C90.1421 25.61 90.1525 25.8429 90.1758 26.0748C90.1977 26.2565 90.2505 26.4339 90.3323 26.6005H88.5838C88.5251 26.4513 88.4832 26.2969 88.4588 26.1398C88.4327 25.8817 88.4224 25.6224 88.4278 25.3632V23.5193C88.4278 23.0588 88.3471 22.7374 88.1857 22.5551C88.0244 22.3728 87.7459 22.2817 87.3505 22.2817H86.7573V26.5997H85.0403V16.5253ZM87.3815 20.8433C87.7252 20.8433 87.9828 20.7615 88.1543 20.598C88.3257 20.4345 88.4115 20.1611 88.4118 19.7777V19.001C88.4118 18.6367 88.3416 18.3729 88.2012 18.2097C88.0609 18.0465 87.8392 17.9647 87.5362 17.9645H86.7555V20.8433H87.3815Z" fill="#1D1D1B"/>
<path d="M91.3312 16.5253H96.0146V17.9645H93.05V20.627H95.4072V22.0666H93.05V25.1609H96.0159V26.6005H91.3312V16.5253Z" fill="#1D1D1B"/>
</svg>
