<svg width="24" height="22" viewBox="0 0 24 22" fill="none" xmlns="http://www.w3.org/2000/svg">
<path d="M9 20.7589C9.55228 20.7589 10 20.3461 10 19.8369C10 19.3277 9.55228 18.9149 9 18.9149C8.44772 18.9149 8 19.3277 8 19.8369C8 20.3461 8.44772 20.7589 9 20.7589Z" stroke="black" stroke-width="2" stroke-linecap="round" stroke-linejoin="round"/>
<path d="M20 20.7589C20.5523 20.7589 21 20.3461 21 19.8369C21 19.3277 20.5523 18.9149 20 18.9149C19.4477 18.9149 19 19.3277 19 19.8369C19 20.3461 19.4477 20.7589 20 20.7589Z" stroke="black" stroke-width="2" stroke-linecap="round" stroke-linejoin="round"/>
<path d="M1 1.39722H5L7.68 13.7426C7.77144 14.1671 8.02191 14.5484 8.38755 14.8198C8.75318 15.0911 9.2107 15.2353 9.68 15.227H19.4C19.8693 15.2353 20.3268 15.0911 20.6925 14.8198C21.0581 14.5484 21.3086 14.1671 21.4 13.7426L23 6.00715H6" stroke="black" stroke-width="2" stroke-linecap="round" stroke-linejoin="round"/>
</svg>
