<svg width="75" height="141" viewBox="0 0 75 141" fill="none" xmlns="http://www.w3.org/2000/svg">
<path d="M18.7244 46.3647L19.7143 48.6768L22.1906 50.1891L26.7476 51.1631H29.5218L31.9244 50.7499L32.8759 50.1723L32.8166 48.92H33.5294L34.4216 49.4077L37.3928 51.7535L39.6641 56.0135L41.0384 60.0291L42.48 63.5049L42.8564 64.462L42.4992 64.9286L41.0576 65.2097L39.5872 65.4796L40.2471 69.3222L41.5413 73.9463L42.307 75.8761L42.5248 76.9358L41.9706 77.3181L39.2765 77.4587L37.6747 77.2338L33.4349 76.5212L30.4236 75.8944L28.4038 75.5121L25.0865 75.2689L22.6583 75.4249L21.3112 76.2247L19.7095 75.8944L10.4898 77.9858L6.44856 78.6646L3.31873 78.8052V76.0925C3.31873 76.0237 3.83449 72.6167 3.83449 72.6167L5.31931 67.3489L6.56708 63.5119L8.05351 59.613L10.4113 54.5532L12.0755 51.8237L14.4125 48.5911L16.7911 46.9916L18.7244 46.3647Z" fill="#105E74"/>
<path d="M2.55471 113.197L1.65773 113.708L1.31816 115.347V119.36L1.71058 122.001L1.5504 124.798L0.864868 128.265L1.10673 129.349L3.95944 129.963L11.201 131.47L15.8669 132.373L23.2557 133.531L27.2986 133.953C27.2986 133.953 31.9741 133.971 32.0926 133.953C32.2112 133.935 38.4115 133.136 38.4115 133.136L43.385 132.737L48.9911 132.077L50.5929 131.834L51.1278 132.192L54.0591 132.099L62.7774 131.925C62.8158 131.925 68.4156 131.711 68.4156 131.711C68.4156 131.711 73.381 131.485 73.4226 131.485C73.6154 131.281 73.7961 131.068 73.964 130.847L73.0911 128.924L71.6655 128.032L69.2084 127.035L66.4358 125.922L64.4416 124.879L62.4987 123.755L61.2317 122.689L59.5803 121.623L58.0346 120.556L56.7804 119.513C56.7804 119.513 54.9576 118.088 54.9176 118.065C54.8775 118.043 52.3292 115.909 52.3292 115.909L48.4513 112.155L46.731 110.058L45.1293 108.099L43.6236 107.08L42.0924 106.535L41.1009 106.986L39.7282 107.752L37.9454 108.945L35.8247 110.358L35.184 111.5L35.0126 113.278L34.6923 114.171L33.8209 115.027L32.2095 116.488L30.651 117.114L29.911 117.346L27.4331 115.558L25.2195 113.211L22.9674 110.65L21.7757 108.657L20.8339 107.475L19.4099 106.772L17.9556 107.194L15.4985 108.097L13.5171 109.093L12.46 110.907L11.8193 112.245L9.49511 115.398L7.83089 117.344L6.64559 118.369L5.50995 118.484L3.87294 117.883L2.4458 115.888L2.55471 113.197Z" fill="#105E74"/>
<path d="M19.2418 48.0205L19.9546 40.1272L19.8761 39.0675L18.3496 38.8243L16.9834 37.572V35.7814L17.7169 33.9557L18.8846 33.5214L19.4164 33.2093L13.8135 5.29044L15.239 6.05504L17.0426 7.32422L17.379 3.67411L20.3903 6.03818L21.1047 2.31781L23.7588 5.16816L25.463 1.57008L27.9185 4.19557L29.445 1.04865L31.9213 3.42956L33.8226 0.596069L36.4783 3.69098L37.9839 0.596069L39.9252 3.62211L42.3807 1.01351L44.1443 3.91726L47.1556 0.996634L47.9484 19.2316L49.1561 20.3279L49.6911 21.7882L49.6126 22.692L51.3762 24.9689L51.8903 26.7075L52.0889 28.6021L51.4947 30.4096L50.2165 32.0442L49.4541 32.7048L49.7119 34.0428L49.0777 34.9999L48.7797 35.9206L50.2165 40.7189L50.5433 41.7787L49.9298 42.8918L45.195 44.4913L41.5302 44.9256L38.8553 44.9607L37.5546 44.9087L37.111 45.5342L36.1996 46.5602L34.774 47.1168L33.4269 47.1505L32.9512 47.568L32.6148 49.9671L32.4755 50.8231L30.7712 51.3403L28.2757 51.2532L25.0257 50.906L23.0059 50.4197L20.826 49.3586L19.559 48.5588L19.2418 48.0205Z" fill="#F1A61C"/>
<path d="M10.7605 66.4788V69.7466L11.2827 75.6399L11.9874 79.5514H12.8204L19.3587 77.4994L18.9567 75.3785V70.3004L19.3587 67.2083V66.4788L16.506 66.1654L10.7605 66.4788Z" fill="#F1A61C"/>
<path d="M39.5792 65.4009L41.1105 72.0068L41.5334 69.758V65.1564L39.5792 65.4009Z" fill="#F1A61C"/>
<path d="M4.22192 92.4849L4.42054 102.533V103.437L7.03461 104.366L11.63 104.758L17.2185 104.097L18.8027 103.701L19.0798 94.2923L14.1272 94.2235L11.2152 93.8313L8.46176 93.4237L4.22192 92.4849Z" fill="#F1A61C"/>
<path d="M26.6624 91.0248L27.0644 102.047L27.2822 103.255L29.0858 103.576H32.3742L35.4352 103.35L37.9211 103.003L39.2874 102.594L39.0695 99.6996L38.9318 92.4064L38.8709 90.1211L37.8121 90.4471L36.0791 90.5287L33.3833 90.5821L30.4809 90.5287L28.9961 90.1646L27.5994 90.0339L27.1925 90.1548L26.6624 91.0248Z" fill="#F1A61C"/>
<path d="M33.4207 34.9281C37.651 34.9281 41.0803 31.9189 41.0803 28.207C41.0803 24.495 37.651 21.4858 33.4207 21.4858C29.1904 21.4858 25.7611 24.495 25.7611 28.207C25.7611 31.9189 29.1904 34.9281 33.4207 34.9281Z" fill="white"/>
<path d="M52.0906 27.8851C52.0923 28.8547 51.8538 29.813 51.3917 30.6937C50.9295 31.5744 50.2547 32.3564 49.414 32.9857L48.7845 31.8838L47.2517 31.3736H43.888L40.7229 31.0925L40.1687 31.4635L39.2621 32.8465C38.3209 32.0926 37.609 31.1446 37.1908 30.0883C36.7726 29.032 36.6613 27.9008 36.8671 26.7973C37.0729 25.6937 37.5892 24.6527 38.3693 23.7684C39.1494 22.8842 40.1686 22.1847 41.3345 21.7333C42.5005 21.282 43.7763 21.093 45.0465 21.1836C46.3167 21.2741 47.541 21.6413 48.6086 22.2519C49.6762 22.8625 50.5534 23.6972 51.1605 24.6804C51.7677 25.6635 52.0857 26.764 52.0857 27.8823L52.0906 27.8851Z" fill="white"/>
<path d="M12.091 79.7944L11.4503 77.7423L6.89497 78.6292L3.78436 78.7698L3.19012 86.1585L2.70959 90.4172V91.8944L4.41384 92.5732L11.2085 93.8382L14.6555 94.1193L18.7768 94.2935L24.6007 93.7313L25.6707 93.1059L27.3157 90.0292L30.8219 90.4987C30.8219 90.4987 33.5946 90.5675 33.7339 90.5675C33.8733 90.5675 39.2808 89.9252 39.2808 89.9252L41.3022 89.3504L41.1837 87.1255L41.0043 77.5821L37.4804 77.2054L35.1355 76.8344L32.7777 76.261L30.0451 75.7564L27.2901 75.3741L25.1902 75.2335L24.0017 75.3558L20.2968 76.9201L18.3363 77.8759L13.7985 79.2814L12.091 79.7944Z" fill="white"/>
<path d="M4.91909 103.611L4.03492 103.345L3.49353 103.478L3.04344 104.121L3.31094 105.292L3.63129 105.906L3.48553 108.745C3.48553 108.745 3.26609 112.663 3.32535 112.54C3.38462 112.418 2.97937 116.074 2.97937 116.074L3.52076 117.43L4.49783 118.265L5.39641 118.462H6.34786L8.42052 116.723C8.42052 116.723 10.9433 113.524 11.0234 113.455C11.1035 113.386 12.8317 110.255 12.8317 110.255L14.9717 108.356L17.0123 107.573L18.9729 106.931L19.0946 106.148L19.2868 105.558L19.9435 104.748L19.7257 104.079L19.0946 103.691L17.8052 103.972L13.7239 104.745L10.7719 104.876L7.72055 104.494L4.91909 103.611Z" fill="white"/>
<path d="M27.2795 103.371L26.5668 103.742L26.1711 104.205L26.3313 104.9L26.6645 105.781L26.5684 110.265L26.264 113.593L26.5684 114.914C26.5684 114.914 29.2914 116.934 29.2914 116.96C29.2914 116.987 29.9321 117.508 29.9321 117.508C29.9321 117.508 31.7933 116.421 31.8461 116.408C31.899 116.395 34.0261 114.786 34.0261 114.786L35.0625 113.546V112.173L35.4981 110.555L38.2724 108.728L40.3322 107.337L40.1929 104.347L40.3322 103.444L39.5794 102.713L38.5687 102.835L36.3903 103.373L34.0325 103.739L31.0805 103.617L27.8322 103.573L27.2795 103.371Z" fill="white"/>
<path d="M25.6679 125.205L24.923 126.303L24.3737 127.502L25.0736 128.705L26.8307 129.603L30.7662 129.933H37.2646L42.0986 129.603L45.1628 128.89L46.7517 128.358L45.5056 127.755L42.3357 126.303L40.2486 125.089H38.9464L35.0717 125.645L32.589 126.311L30.7406 126.805L28.9434 126.41L26.5664 125.645L25.6679 125.205Z" fill="white"/>
<path d="M51.0481 123.503L50.087 124.138L49.5745 125.088V126.311L51.0481 127.94L55.3328 128.775L61.4354 129.029L65.1066 128.844L68.8836 128.358L70.0721 127.755L69.8607 127.268L66.7436 125.901L64.0239 124.672L62.5038 123.756L61.6453 123.745L60.1669 124.162L58.3441 124.903L56.5645 125.181L54.8314 125.088L52.8356 124.277L51.0481 123.503Z" fill="white"/>
<path d="M13.5699 116.401L12.1443 118.211L9.849 121.473L8.18477 123.906L7.43196 126.062L6.79126 128.009L6.5542 129.739V130.301L1.10824 129.346L0.866378 129.93L0.414673 133.43L0.600482 135.053L1.44621 136.443C1.44621 136.443 2.92463 137.371 3.03035 137.371C3.13606 137.371 6.51735 138.228 6.51735 138.228L12.4342 138.65L19.7254 139.299L27.2793 139.994L30.9777 140.086L37.6602 140.296L41.7815 139.835L47.4085 139.044L51.3696 137.779L52.611 138.089L61.0907 138.204L68.329 137.95L72.9516 137.371L73.9688 136.304L74.5886 133.96L74.2987 131.832L73.9688 131.368L72.5544 131.414L69.62 131.71H63.0976L58.0009 131.97L53.2981 132.155L51.1326 132.19L50.3317 131.877L47.8217 132.086L40.4793 132.944L35.437 133.518L31.234 133.755L27.7742 133.871L24.3657 133.645L15.0419 132.294L15.0146 130.927L15.7547 128.342L17.2074 127.126L19.8487 125.299C19.8487 125.299 21.4072 124.256 21.513 124.163C21.6187 124.071 22.3587 122.911 22.3587 122.911L21.223 122.002L19.003 120.249L17.7088 119.546L16.6532 117.975L15.4407 117.344L13.5699 116.401Z" fill="white"/>
<path d="M38.4787 116.397L37.5016 117.811L36.5774 119.36L35.7845 120.864L35.6147 121.528L38.2416 123.675L41.9833 126.096L42.8114 126.549L43.9743 125.877L47.1442 122.678L46.5884 121.474L44.7127 120.248L43.1286 119.36L41.703 117.788L40.0644 116.962L38.4787 116.397Z" fill="white"/>
<path d="M19.0879 84.4526C19.123 84.4522 19.1579 84.4484 19.192 84.4414C20.9796 84.0605 23.2909 82.908 24.4218 81.1932C24.7423 80.7315 24.9504 80.2165 25.0331 79.6807C25.1158 79.145 25.0713 78.6 24.9023 78.08C24.8696 77.9816 24.7936 77.8987 24.6912 77.8494C24.5888 77.8001 24.4682 77.7885 24.3561 77.8172C24.2439 77.8459 24.1494 77.9125 24.0932 78.0024C24.037 78.0923 24.0238 78.1981 24.0565 78.2965C24.3369 79.1398 24.2039 79.9831 23.6609 80.8067C22.6662 82.3148 20.5391 83.3591 18.9854 83.6908C18.881 83.7134 18.7897 83.7687 18.7285 83.8463C18.6674 83.9239 18.6407 84.0184 18.6535 84.1121C18.6663 84.2058 18.7177 84.2921 18.798 84.3548C18.8783 84.4175 18.982 84.4523 19.0895 84.4526H19.0879Z" fill="#1D1D1B"/>
<path d="M10.3104 107.314C12.1937 107.293 14.0692 107.097 15.9053 106.728C15.9619 106.718 16.0155 106.697 16.0631 106.668C16.1107 106.639 16.1514 106.603 16.1828 106.56C16.2142 106.517 16.2356 106.469 16.246 106.42C16.2564 106.37 16.2555 106.318 16.2433 106.269C16.2311 106.219 16.2079 106.172 16.1749 106.13C16.142 106.088 16.1 106.053 16.0514 106.025C16.0028 105.998 15.9484 105.979 15.8915 105.97C15.8345 105.961 15.7761 105.961 15.7195 105.972C8.7567 107.293 6.16986 105.891 6.12181 105.864C6.07385 105.835 6.01998 105.816 5.96328 105.805C5.90657 105.795 5.84815 105.795 5.79133 105.805C5.73451 105.814 5.68041 105.834 5.63213 105.862C5.58385 105.89 5.54234 105.926 5.50995 105.968C5.47755 106.01 5.45493 106.057 5.44335 106.107C5.43178 106.157 5.43148 106.208 5.44249 106.258C5.4535 106.308 5.47557 106.355 5.50748 106.398C5.5394 106.44 5.58052 106.476 5.62848 106.505C5.70696 106.551 7.03962 107.314 10.3104 107.314Z" fill="#1D1D1B"/>
<path d="M74.5328 131.45C74.4593 131.334 74.364 131.23 74.2508 131.142C74.3197 130.158 73.9129 128.022 71.2236 127.405C71.1189 127.38 71.0157 127.35 70.9144 127.316H70.8984C69.1637 126.754 63.9628 124.309 63.21 123.832C62.7212 123.492 62.2554 123.127 61.8149 122.74C61.2254 122.245 60.7161 121.818 60.3637 121.641C59.524 121.156 58.7214 120.623 57.961 120.046C57.9985 120.023 58.0344 119.999 58.0684 119.973C58.1532 119.904 58.2216 119.82 58.2698 119.728C58.3179 119.636 58.3449 119.536 58.3491 119.435C58.3532 119.333 58.3345 119.232 58.2941 119.137C58.2536 119.042 58.1921 118.955 58.1132 118.88C57.8713 118.651 57.4148 118.396 56.622 118.477C56.4337 118.497 56.2478 118.532 56.0662 118.58L55.6481 118.238C55.7807 118.18 55.8943 118.094 55.9781 117.987C56.1095 117.817 56.1589 117.609 56.1153 117.407C56.0718 117.206 55.9389 117.028 55.7458 116.913C55.3726 116.691 54.7383 116.483 53.7853 116.657C53.6091 116.502 53.4329 116.348 53.2583 116.19C53.4384 116.132 53.5917 116.023 53.6948 115.881C53.7979 115.739 53.8452 115.571 53.8294 115.403C53.8136 115.235 53.7356 115.077 53.6073 114.951C53.479 114.826 53.3075 114.741 53.1189 114.709C52.6465 114.641 52.1631 114.657 51.6982 114.758C51.4868 114.56 51.2785 114.36 51.0751 114.162C51.2705 114.092 51.4299 113.961 51.5236 113.795C51.5748 113.704 51.605 113.605 51.6125 113.504C51.62 113.403 51.6046 113.301 51.5673 113.205C51.5299 113.109 51.4713 113.02 51.3948 112.944C51.3184 112.868 51.2255 112.806 51.1216 112.761C50.5964 112.536 50.0095 112.446 49.4285 112.501C49.2315 112.294 49.0425 112.089 48.8583 111.888C48.9949 111.867 49.1236 111.817 49.234 111.743C49.3443 111.669 49.4329 111.573 49.4926 111.463C49.5522 111.354 49.5812 111.233 49.577 111.111C49.5728 110.989 49.5356 110.87 49.4685 110.764C49.2587 110.433 48.743 109.891 47.6057 109.933C47.4892 109.94 47.3732 109.953 47.2581 109.971C45.0429 107.055 43.2537 105.888 41.6072 106.307C41.2378 106.408 40.8949 106.571 40.598 106.789L40.5324 104.671C40.8736 104.156 40.9472 103.687 40.7534 103.265C40.5324 102.789 40.0342 102.539 39.6946 102.422L39.4224 90.4415C40.9953 90.0705 41.5559 89.6193 41.6039 89.5772C41.6465 89.5406 41.6801 89.4968 41.7027 89.4485C41.7253 89.4002 41.7363 89.3483 41.7353 89.2961L41.4422 77.8356C42.179 77.7597 42.6563 77.5011 42.8565 77.0569C43.0567 76.6128 42.8693 76.1897 42.7396 75.8679C42.5105 75.3141 42.2959 74.7435 42.0845 74.111C42.1021 73.0274 42.0204 71.8018 41.9419 70.6155C41.8939 69.8959 41.8474 69.2185 41.8234 68.586C41.7737 67.2198 41.7545 66.6843 41.9019 65.4489H41.9675C42.1654 65.4555 42.3622 65.4194 42.5406 65.344C42.719 65.2685 42.8736 65.1559 42.9911 65.016C43.1111 64.873 43.1893 64.7063 43.2189 64.5307C43.2485 64.355 43.2286 64.1756 43.1608 64.0082C42.6899 62.8436 42.2532 61.7463 41.8506 60.7166C39.3999 54.5155 37.9183 50.767 35.0848 49.2856C34.4993 48.906 33.8308 48.6366 33.1211 48.4943C33.2076 47.9321 33.3405 47.5316 33.4959 47.4669C33.73 47.4093 33.9706 47.3744 34.2135 47.3629C35.277 47.2687 36.8628 47.1211 37.7998 45.2687C38.4533 45.3024 39.0812 45.3235 39.6883 45.3235C45.0173 45.3235 48.3489 44.0937 50.3912 42.7613C50.6838 42.5692 50.8934 42.2957 50.986 41.9855C51.0785 41.6754 51.0484 41.3468 50.9005 41.0536C50.3351 39.9446 49.0633 37.2236 49.1946 35.4639C49.6031 35.1582 49.8925 34.748 50.0223 34.2909C50.1521 33.8338 50.1159 33.3525 49.9186 32.9143C50.7361 32.2576 51.3884 31.4585 51.8339 30.568C52.2794 29.6775 52.5082 28.7152 52.5058 27.7427C52.5034 26.7702 52.2698 25.8088 51.8199 24.9201C51.37 24.0313 50.7137 23.2346 49.893 22.5811C50.0684 21.8937 49.9985 21.1757 49.6928 20.5244C49.387 19.8732 48.8602 19.3203 48.1839 18.9408L47.5721 0.823889C47.5695 0.745076 47.5396 0.668831 47.4862 0.605386C47.4329 0.541941 47.3587 0.494336 47.2736 0.468945C47.1886 0.443553 47.0967 0.441593 47.0103 0.463334C46.9239 0.485076 46.8472 0.529479 46.7904 0.590579L44.21 3.36645L42.7796 0.617284C42.7474 0.556004 42.6976 0.503151 42.635 0.463943C42.5724 0.424736 42.4993 0.400532 42.4228 0.39372C42.3463 0.386907 42.2691 0.397715 42.1988 0.425091C42.1285 0.452467 42.0676 0.495457 42.022 0.549814L40.0006 2.98837L38.3748 0.229364C38.3377 0.163213 38.2791 0.108172 38.2064 0.0711592C38.1338 0.0341467 38.0502 0.0168098 37.9664 0.0213439C37.8828 0.0240078 37.8018 0.0474972 37.7329 0.0890626C37.6639 0.130628 37.6099 0.188557 37.5771 0.256069L36.2957 2.92652L34.1414 0.166115C34.0981 0.111629 34.0396 0.067801 33.9715 0.0388354C33.9034 0.00986983 33.828 -0.0032627 33.7524 0.000686811C33.6769 0.00463632 33.6037 0.0255406 33.54 0.0613969C33.4763 0.0972532 33.4241 0.146864 33.3885 0.205473L31.8461 2.77191L29.823 0.5709C29.7752 0.517864 29.7122 0.476908 29.6405 0.452216C29.5687 0.427525 29.4908 0.419981 29.4146 0.43035C29.3387 0.440504 29.2671 0.467892 29.207 0.509804C29.1469 0.551716 29.1003 0.606698 29.0718 0.669287L27.8048 3.44655L25.8651 1.09937C25.8189 1.0443 25.757 1.00089 25.6855 0.973498C25.6141 0.94611 25.5357 0.935717 25.4583 0.943362C25.3805 0.95098 25.3065 0.976777 25.2439 1.01806C25.1814 1.05935 25.1326 1.11461 25.1027 1.17808L23.573 4.38825L21.3658 1.83585C21.3134 1.77497 21.2416 1.7291 21.1595 1.70408C21.0774 1.67905 20.9886 1.676 20.9045 1.6953C20.8216 1.7155 20.7472 1.75641 20.6903 1.81306C20.6334 1.86971 20.5965 1.93965 20.5842 2.01435L20.0556 5.25965L17.6161 3.16546C17.5562 3.11426 17.4809 3.07907 17.3991 3.06403C17.3172 3.04898 17.2322 3.05469 17.1539 3.08049C17.0756 3.10629 17.0073 3.15111 16.957 3.20971C16.9067 3.26831 16.8764 3.33827 16.8697 3.41142L16.5926 6.50352L13.5492 4.29407C13.4628 4.23117 13.3519 4.20013 13.2399 4.20747C13.1279 4.2148 13.0235 4.25995 12.9486 4.33343C12.8728 4.40751 12.8321 4.50417 12.8348 4.60369C12.8375 4.70321 12.8833 4.79807 12.963 4.86892C14.065 5.85277 17.0811 22.4532 18.7742 32.9691C18.5572 32.9984 18.3462 33.0552 18.1479 33.1378C17.2926 33.4962 16.7688 34.2959 16.591 35.5117C16.3956 36.861 16.623 37.8786 17.2685 38.5363C17.9781 39.2588 18.9744 39.3473 19.5206 39.3656C19.575 40.2398 19.2851 43.2897 18.9696 46.0361C18.9157 46.017 18.8577 46.0089 18.7998 46.0122C14.1547 46.2286 10.9512 52.4649 9.22452 55.8156C8.67596 56.8867 8.22707 57.9951 7.88225 59.1298C6.36699 62.4425 5.14486 66.3498 4.24949 69.3899L4.21904 69.4911C3.84103 70.7771 3.45021 72.1082 3.19073 73.449C2.85016 75.2216 2.72665 77.021 2.82232 78.8166C2.82792 78.9145 2.8754 79.007 2.95528 79.0755C3.03515 79.144 3.14152 79.1836 3.25318 79.1863H3.38453L2.15598 92.0396C2.14734 92.1247 2.17134 92.2099 2.22414 92.2817C2.27695 92.3535 2.35556 92.4078 2.44751 92.4359C2.46834 92.4359 2.93925 92.5877 3.76575 92.8L3.95315 102.942C3.76606 102.94 3.58147 102.98 3.41656 103.057C3.16842 103.167 2.95255 103.326 2.78583 103.521C2.61911 103.716 2.50606 103.942 2.45551 104.182C2.34659 104.752 2.6157 105.367 3.24679 106.009L2.92644 112.09C2.23928 112.388 0.650348 113.388 0.786497 116.245C0.869788 117.994 1.04118 119.521 1.16611 120.639C1.27663 121.611 1.36313 122.379 1.32629 122.667C1.32629 122.701 0.800905 126.04 0.418086 129.239C-0.222614 134.514 0.0352739 135.03 0.144193 135.25C0.832947 136.643 2.76626 138.226 6.12513 138.494C11.6063 138.934 26.1887 140.14 27.8257 140.435C28.3542 140.531 30.2763 140.625 32.8456 140.625C38.3988 140.625 46.965 140.185 51.0094 138.376C52.2284 138.496 54.5894 138.558 57.3508 138.558C63.918 138.558 72.6988 138.212 73.5813 137.491C75.1575 136.171 75.3352 132.668 74.5328 131.45ZM73.3683 130.987C72.1942 131.269 67.0045 131.339 63.5528 131.382C61.9862 131.402 60.6344 131.419 59.8912 131.45C57.6647 131.543 52.2492 131.784 51.1055 131.835C51.0703 131.798 51.0351 131.758 50.9982 131.723C50.955 131.117 50.5786 129.117 47.5016 128.046C46.2111 127.594 44.9474 127.085 43.7151 126.522C45.0974 125.679 46.7472 123.773 47.4135 122.961C47.6122 123.091 47.8272 123.201 48.0542 123.29C48.5963 123.482 49.1616 123.618 49.7393 123.697L50.0404 123.748C49.5886 124.08 49.255 124.519 49.0793 125.013C48.8391 125.758 49.0409 126.559 49.6784 127.392C50.7788 128.83 55.3278 129.436 60.0337 129.436C64.3232 129.436 68.7344 128.931 70.7879 128.095C70.8647 128.119 70.9384 128.139 70.9977 128.153C73.1633 128.649 73.3731 130.323 73.3683 130.987ZM6.98527 130.153C6.67613 125.446 12.4537 118.495 13.7415 117.01C14.1292 117.252 14.5441 117.459 14.9796 117.627C16.1345 118.048 16.6647 118.703 17.1324 119.278C17.3812 119.622 17.691 119.929 18.0502 120.188C18.2007 120.283 18.3497 120.375 18.5051 120.469C19.2515 120.924 20.0972 121.443 21.7758 122.906C21.7598 123.155 21.4699 124.171 18.1559 125.973C14.6416 127.881 14.4847 130.56 14.6144 131.745C12.8365 131.406 10.9678 131.019 9.00828 130.584L8.39801 130.444L6.98527 130.153ZM20.2606 104.187C20.1654 104.004 20.0299 103.838 19.8617 103.7C19.6934 103.563 19.4959 103.455 19.2803 103.385L19.5014 94.6566C21.5127 94.5978 23.5126 94.3666 25.4727 93.9665C25.5837 93.9427 25.6801 93.8823 25.7418 93.7979C25.7562 93.7782 25.9548 93.5013 26.2528 93.0052L26.6676 103.189C26.257 103.37 25.9377 103.678 25.7722 104.054C25.6024 104.484 25.6921 104.956 26.0381 105.459L26.1038 111.116C26.0966 111.119 26.0896 111.122 26.083 111.125C25.9548 111.175 25.8321 111.234 25.7162 111.303C25.6025 111.374 25.4954 111.452 25.3958 111.537L25.3446 111.58C25.3994 111.393 25.3722 111.195 25.2684 111.025C25.1646 110.855 24.9917 110.725 24.7839 110.661C24.3455 110.529 23.8844 110.464 23.4209 110.469C23.3632 110.418 23.3055 110.366 23.2479 110.32C23.1406 110.232 22.9275 109.828 22.7673 109.502C22.2179 108.439 21.2793 106.632 19.5254 106.55V105.891C20.5665 105.181 20.3871 104.47 20.2606 104.187ZM4.84533 103.203L4.65792 93.0164C7.54107 93.7107 12.585 94.6876 18.0213 94.6876C18.22 94.6876 18.4202 94.6876 18.6204 94.6876L18.3994 103.434C11.1146 105.316 6.48552 103.892 4.83732 103.196L4.84533 103.203ZM35.048 114.307C35.8537 115.215 36.8463 115.982 37.9744 116.568C37.3529 117.1 36.4383 118.307 35.3379 121.029L34.7484 120.599C34.798 120.536 34.8364 120.466 34.8622 120.393C34.9266 120.196 34.8996 119.985 34.787 119.805C34.6744 119.626 34.4855 119.493 34.2615 119.436C33.8661 119.34 33.4537 119.31 33.0458 119.348C32.7254 119.114 32.4051 118.879 32.0959 118.646C32.1711 118.563 32.2256 118.467 32.2561 118.365C32.3123 118.166 32.2764 117.956 32.1563 117.78C32.0362 117.605 31.8417 117.478 31.6154 117.429C31.4392 117.391 31.2597 117.367 31.0788 117.357C32.2001 116.889 33.8146 116.092 34.3945 115.191C34.5881 114.88 34.8037 114.58 35.04 114.293L35.048 114.307ZM30.6271 127.083C31.068 127.088 31.5063 127.022 31.9198 126.888C34.5963 125.984 37.5691 125.436 39.9109 125.406C40.9921 126.148 43.3787 127.337 45.9687 128.328C40.4122 130.21 27.8401 129.669 25.8779 128.916C25.2869 128.689 24.9762 128.335 24.9297 127.832C24.848 126.978 25.5368 125.981 25.8715 125.654C27.4381 126.451 29.1551 127.083 30.6271 127.083ZM40.148 124.569C39.9397 124.386 39.1997 123.843 37.843 122.855L37.1783 122.372L36.0571 121.554C37.4474 118.029 38.4773 117.163 38.7945 116.968C39.1452 117.126 39.5185 117.281 39.9157 117.424C41.0497 117.826 41.5783 118.408 42.0893 118.97C42.6002 119.533 43.0888 120.071 44.0658 120.387C44.942 120.668 45.5587 121.29 46.1481 121.887C46.3403 122.078 46.5357 122.273 46.7408 122.457C45.6452 123.801 43.8256 125.727 42.7988 126.112C41.4902 125.454 40.5148 124.883 40.148 124.562V124.569ZM28.0835 120.577C27.9234 120.445 27.6991 120.28 27.4332 120.098C28.6554 119.382 30.1082 118.754 31.0852 118.909L31.9422 119.545C30.7713 119.869 29.5892 120.507 28.6281 121.124C28.4625 120.927 28.2805 120.742 28.0835 120.57V120.577ZM33.7634 120.917L33.8162 120.925L35.2434 121.968L36.1644 122.639C35.0816 122.675 33.9844 122.959 33.0442 123.209C32.2433 123.42 31.4216 123.631 31.0772 123.545C30.64 123.426 30.1338 122.914 29.6677 122.37C31.1525 121.42 32.8071 120.665 33.7634 120.91V120.917ZM29.2913 117.552C28.1012 117.87 26.9015 118.495 25.9196 119.128C25.5047 118.875 25.0787 118.62 24.6766 118.384C25.7466 117.601 27.1305 116.852 28.3719 116.838C28.6666 117.065 28.9757 117.303 29.2913 117.545V117.552ZM23.155 117.516L22.9355 117.396C22.5463 117.188 22.3509 116.855 22.125 116.469C22.0706 116.375 22.0113 116.277 21.9472 116.173C23.0316 115.268 24.3659 114.467 25.5848 114.508C25.6697 114.592 25.761 114.679 25.8683 114.776C25.9756 114.873 26.0653 114.952 26.1711 115.046L26.272 115.135C26.4193 115.264 26.5827 115.402 26.7525 115.544C25.4038 115.93 24.132 116.727 23.155 117.509V117.516ZM24.8304 112.116V112.107L24.8528 112.1L24.8304 112.116ZM23.7092 112.033C23.9526 112.339 24.2105 112.684 24.4876 113.066C23.0893 113.357 21.7919 114.19 20.77 115.034C20.5665 114.893 20.3311 114.744 20.0444 114.557L19.4165 114.148C20.6482 112.966 22.2404 111.881 23.7028 112.026L23.7092 112.033ZM19.1618 107.34C20.4608 107.191 21.2008 108.38 21.9488 109.828C22.0773 110.088 22.2211 110.342 22.3797 110.589C20.6883 110.955 19.149 112.116 18.0133 113.216L17.4367 112.824C15.6748 111.615 13.6245 111.59 12.585 111.676C13.3458 109.298 15.0213 108.724 17.2813 107.946C17.6994 107.805 18.1303 107.653 18.5627 107.489C18.7513 107.413 18.9507 107.361 19.1554 107.333L19.1618 107.34ZM12.2743 112.49C12.8957 112.404 15.1013 112.209 16.8937 113.434L17.4351 113.802C16.9782 114.289 16.553 114.798 16.1617 115.327C16.068 115.411 15.9968 115.513 15.9534 115.624C15.9099 115.735 15.8954 115.854 15.9107 115.97C15.9261 116.087 15.971 116.2 16.0422 116.299C16.1133 116.399 16.2089 116.483 16.322 116.546C16.4351 116.61 16.5628 116.65 16.6959 116.664C16.8289 116.678 16.9639 116.666 17.091 116.629C17.2181 116.592 17.334 116.53 17.4304 116.448C17.5268 116.366 17.6012 116.267 17.6481 116.157C18.0097 115.661 18.4055 115.186 18.8334 114.733C19.0897 114.901 19.314 115.049 19.519 115.18C19.7608 115.337 19.9627 115.461 20.1405 115.586C19.6227 116.067 19.1412 116.578 18.6989 117.114C18.5995 117.194 18.5218 117.292 18.4716 117.402C18.4215 117.512 18.4001 117.631 18.4091 117.749C18.4181 117.867 18.4573 117.982 18.5237 118.085C18.5901 118.188 18.682 118.276 18.7927 118.344C18.9034 118.412 19.0301 118.457 19.1632 118.476C19.2964 118.495 19.4327 118.487 19.5621 118.453C19.6915 118.42 19.8107 118.361 19.9108 118.282C20.0109 118.203 20.0894 118.105 20.1405 117.995C20.4974 117.559 20.8847 117.143 21.3001 116.75C21.3145 116.774 21.329 116.798 21.3418 116.821C21.5917 117.243 21.8752 117.735 22.479 118.057L22.503 118.071C21.8495 118.665 21.4155 119.184 21.3049 119.42L21.2857 119.461C21.2857 119.472 21.2857 119.482 21.2777 119.493C21.2502 119.569 21.2357 119.647 21.2345 119.727C21.2345 119.924 21.3187 120.114 21.4704 120.259C21.6221 120.405 21.8304 120.495 22.0542 120.513C22.2781 120.531 22.5014 120.474 22.6802 120.355C22.859 120.235 22.9803 120.061 23.0204 119.867C23.3137 119.523 23.6412 119.203 23.9991 118.91C24.3803 119.132 24.7872 119.374 25.1908 119.613C24.6805 119.965 24.2115 120.362 23.7909 120.796C23.7076 120.884 23.6472 120.987 23.6138 121.098C23.5805 121.208 23.575 121.324 23.5977 121.437C23.6204 121.55 23.6708 121.657 23.7453 121.75C23.8199 121.844 23.9169 121.923 24.0295 121.981C24.1422 122.038 24.2678 122.074 24.3976 122.084C24.5275 122.095 24.6584 122.081 24.7814 122.043C24.9044 122.005 25.0165 121.944 25.1099 121.864C25.2032 121.784 25.2757 121.687 25.3221 121.58C25.741 121.204 26.196 120.86 26.682 120.552C26.9598 120.73 27.2271 120.92 27.4829 121.122C27.6468 121.266 27.7989 121.419 27.9378 121.582C27.3724 121.978 26.9383 122.325 26.7093 122.515C26.5955 122.577 26.4989 122.661 26.4266 122.76C26.3544 122.859 26.3082 122.971 26.2914 123.087C26.2747 123.204 26.2879 123.322 26.33 123.434C26.372 123.546 26.442 123.648 26.5347 123.732C26.6274 123.817 26.7405 123.883 26.8658 123.925C26.9911 123.966 27.1255 123.983 27.259 123.973C27.3925 123.963 27.5219 123.928 27.6376 123.868C27.7534 123.809 27.8527 123.728 27.9282 123.631C28.2485 123.37 28.5977 123.098 28.9789 122.829C29.5492 123.496 30.1482 124.093 30.8257 124.272C30.9782 124.311 31.1363 124.33 31.2951 124.328C31.8349 124.328 32.5076 124.15 33.3085 123.937C34.561 123.606 36.1131 123.198 37.3721 123.498C38.0128 123.966 38.5654 124.368 38.9546 124.657C36.6818 124.798 34.0709 125.325 31.6106 126.154C29.3473 126.921 24.792 124.448 22.5111 122.448C20.7059 120.862 19.7689 120.29 19.016 119.831C18.8655 119.738 18.7213 119.649 18.5755 119.549C18.2954 119.338 18.0534 119.091 17.858 118.816C17.3486 118.19 16.7143 117.41 15.3288 116.903C13.8055 116.341 11.8674 114.587 11.2107 113.965C11.64 113.385 12.01 112.858 12.2695 112.483L12.2743 112.49ZM15.5242 131.921C15.364 131.134 15.1606 128.519 18.6252 126.639C21.188 125.243 22.1635 124.196 22.5014 123.51C23.324 124.145 24.1988 124.725 25.1187 125.246C24.8119 125.606 24.5559 125.998 24.3563 126.413C23.6883 127.886 24.1272 129.083 25.5288 129.624C26.69 130.07 30.2571 130.392 34.2743 130.392C38.9835 130.392 44.3029 129.946 47.0883 128.74L47.1764 128.771C49.4541 129.564 49.9715 130.909 50.0868 131.534C46.8545 131.759 44.3029 132.08 41.6184 132.42C38.9338 132.76 36.1836 133.108 32.293 133.44C28.4023 133.772 22.7641 133.252 15.5194 131.914L15.5242 131.921ZM69.625 127.676C64.7316 129.082 51.9865 129.018 50.4168 126.973C49.9363 126.339 49.7761 125.756 49.9363 125.24C50.1493 124.573 50.8557 124.158 51.1536 124.008C51.841 124.208 52.4999 124.477 53.1173 124.809C54.0542 125.315 55.1325 125.584 56.2327 125.586C57.8649 125.586 59.3049 125.011 60.3973 124.576C61.1581 124.272 61.943 123.959 62.2089 124.116C62.3819 124.248 62.5501 124.37 62.7006 124.466C63.4086 124.904 67.3377 126.757 69.6202 127.669L69.625 127.676ZM61.3311 123.402C60.8866 123.533 60.4517 123.688 60.0289 123.866C58.3551 124.533 56.0614 125.45 53.5658 124.147C52.8468 123.758 52.0745 123.45 51.2673 123.232H51.2545C50.8111 123.117 50.3608 123.023 49.9058 122.951C49.391 122.882 48.8869 122.762 48.4034 122.592C47.8171 122.37 47.335 121.89 46.8257 121.378C46.185 120.74 45.4642 120.016 44.3798 119.665C43.6334 119.422 43.2393 118.99 42.778 118.49C42.2238 117.881 41.5959 117.191 40.2457 116.713C37.441 115.719 36.0539 114.237 35.6134 113.687C36.4431 112.866 37.4186 112.217 38.1554 112.318C39.0155 112.44 40.0583 112.695 41.4614 113.521C40.9938 114.029 40.593 114.581 40.2665 115.167C40.1834 115.26 40.125 115.367 40.0955 115.482C40.066 115.597 40.0662 115.717 40.0961 115.832C40.1259 115.946 40.1847 116.054 40.2681 116.146C40.3515 116.239 40.4574 116.314 40.578 116.365C40.6986 116.417 40.831 116.445 40.9652 116.446C41.0995 116.447 41.2324 116.422 41.3541 116.372C41.4758 116.322 41.5833 116.249 41.6686 116.158C41.754 116.067 41.8151 115.96 41.8474 115.846C42.1204 115.349 42.4597 114.882 42.8581 114.455C42.959 114.529 43.0599 114.604 43.164 114.685C43.5373 114.966 43.9025 115.235 44.2596 115.479C43.8398 115.907 43.4499 116.358 43.092 116.827C42.9982 116.909 42.9264 117.009 42.8818 117.119C42.8372 117.229 42.8208 117.346 42.8339 117.461C42.847 117.577 42.8891 117.689 42.9574 117.789C43.0256 117.889 43.1182 117.975 43.2286 118.039C43.3389 118.104 43.4642 118.147 43.5955 118.164C43.7268 118.181 43.8608 118.172 43.9879 118.139C44.1149 118.105 44.2319 118.047 44.3304 117.969C44.429 117.891 44.5065 117.795 44.5576 117.687C44.8982 117.234 45.2728 116.801 45.6788 116.391C46.2538 116.734 46.7632 117.013 47.1828 117.235C46.7537 117.627 46.3571 118.046 45.996 118.488C45.8951 118.566 45.8153 118.663 45.7626 118.771C45.7098 118.88 45.6853 118.997 45.691 119.115C45.6966 119.232 45.7322 119.347 45.7951 119.452C45.858 119.556 45.9467 119.646 46.0546 119.716C46.1625 119.786 46.2869 119.834 46.4188 119.857C46.5506 119.879 46.6865 119.876 46.8165 119.846C46.9465 119.816 47.0673 119.762 47.17 119.686C47.2728 119.61 47.3549 119.515 47.4103 119.408C47.771 118.964 48.1722 118.547 48.61 118.161C48.8743 118.442 49.1434 118.783 49.3628 119.066L49.4541 119.181C49.052 119.574 48.7076 120.01 48.429 120.479C48.3455 120.571 48.2865 120.678 48.2565 120.793C48.2265 120.908 48.2261 121.027 48.2554 121.142C48.2848 121.257 48.343 121.365 48.426 121.458C48.509 121.55 48.6145 121.626 48.7349 121.678C48.8553 121.73 48.9875 121.758 49.1218 121.76C49.2561 121.761 49.3891 121.736 49.511 121.687C49.633 121.638 49.7408 121.565 49.8266 121.474C49.9123 121.384 49.9739 121.277 50.0067 121.163C50.2146 120.819 50.4695 120.498 50.766 120.207C51.2048 120.446 51.727 120.73 52.2075 121.011C51.957 121.285 51.727 121.573 51.5188 121.873C51.4277 121.958 51.3594 122.06 51.3188 122.171C51.2782 122.283 51.2663 122.4 51.2839 122.516C51.3015 122.632 51.3483 122.743 51.4208 122.841C51.4933 122.939 51.5897 123.022 51.703 123.083C51.8164 123.144 51.9439 123.183 52.0762 123.196C52.2086 123.208 52.3426 123.195 52.4684 123.157C52.5943 123.119 52.7089 123.056 52.8039 122.975C52.899 122.893 52.9721 122.793 53.018 122.684C53.2101 122.404 53.4271 122.137 53.6667 121.887C53.8073 121.976 53.9416 122.073 54.0688 122.176C54.4099 122.476 55.5953 123.441 56.4858 123.146L56.646 123.096C59.2392 122.241 59.8063 122.283 59.9072 122.311C60.1586 122.432 60.708 122.895 61.1886 123.304L61.3311 123.402ZM52.8418 116.928C51.8227 117.347 50.8917 117.915 50.0884 118.606C49.8334 118.269 49.5592 117.944 49.2667 117.631C50.2742 116.876 51.2993 116.391 52.0874 116.252C52.3309 116.471 52.5824 116.698 52.8354 116.921L52.8418 116.928ZM58.8484 121.656C57.9993 121.849 57.1644 122.087 56.3481 122.369L56.2007 122.417C56.0245 122.474 55.3998 122.224 54.7095 121.625C54.5786 121.516 54.44 121.414 54.2946 121.319C55.1612 120.602 56.0742 120.172 56.6028 120.044C57.4084 120.661 58.1709 121.209 58.842 121.649L58.8484 121.656ZM52.8194 120.424C52.3181 120.143 51.8103 119.862 51.4051 119.635C52.2187 118.969 53.1958 118.4 53.9791 118.203C54.0694 118.18 54.1614 118.162 54.2546 118.15C54.5568 118.405 54.8574 118.655 55.1564 118.899C54.2852 119.288 53.4934 119.801 52.813 120.417L52.8194 120.424ZM47.854 116.677C47.4375 116.455 46.9058 116.169 46.2987 115.811C47.4888 114.758 48.7846 114.026 49.7601 114.033C50.0868 114.359 50.4221 114.687 50.766 115.017C49.691 115.416 48.7026 115.975 47.8444 116.67L47.854 116.677ZM44.8635 114.899C44.5031 114.654 44.1331 114.39 43.7567 114.099C43.651 114.017 43.5501 113.946 43.446 113.868C44.6713 112.723 46.2074 111.791 47.2902 111.533C47.3414 111.521 47.3783 111.517 47.4231 111.509C47.7435 111.888 48.0942 112.283 48.4691 112.689C47.1893 113.056 45.9255 113.912 44.8539 114.892L44.8635 114.899ZM41.8586 107.041C43.0039 106.748 44.5239 107.805 46.366 110.179C44.9564 110.64 43.3338 111.689 42.0412 112.925C40.771 112.166 39.5857 111.732 38.2995 111.551C37.3385 111.41 36.2813 112.005 35.3731 112.792C35.3731 112.005 35.6935 110.736 37.5275 109.708C38.6262 109.103 39.6786 108.436 40.6781 107.711C41.2083 107.322 41.4758 107.125 41.849 107.033L41.8586 107.041ZM39.9365 103.549C40.0182 103.728 39.9622 103.962 39.786 104.241C39.2846 104.381 37.6444 104.834 36.1772 104.965C36.0664 104.976 35.9648 105.024 35.8928 105.099C35.8209 105.174 35.7841 105.27 35.7898 105.368C35.7955 105.466 35.8433 105.558 35.9235 105.626C36.0038 105.694 36.1105 105.733 36.2221 105.735H36.2669C37.419 105.611 38.5556 105.395 39.6626 105.088L39.7347 107.389C38.8777 107.989 37.9831 108.546 37.055 109.057C34.191 110.66 34.4313 112.866 34.5915 113.555C34.2301 113.947 33.905 114.363 33.6192 114.8C33.0602 115.67 30.9139 116.588 29.8711 116.968L29.6917 116.827C29.8436 116.752 29.9665 116.638 30.0449 116.502C30.1232 116.365 30.1534 116.211 30.1316 116.059C30.1098 115.907 30.0369 115.764 29.9224 115.649C29.8078 115.533 29.6567 115.45 29.4883 115.41C28.9331 115.281 28.3538 115.253 27.7856 115.326C27.5069 115.1 27.2538 114.889 27.0232 114.691L26.9847 111.391L26.9223 105.948C27.4348 106.096 28.2517 106.241 29.5059 106.241C30.3672 106.236 31.2271 106.18 32.0799 106.075C32.1937 106.059 32.296 106.005 32.3649 105.924C32.4337 105.843 32.4637 105.742 32.4485 105.642C32.4332 105.542 32.3738 105.451 32.2831 105.388C32.1923 105.326 32.0774 105.298 31.963 105.309C28.4295 105.731 27.0776 105.202 26.8005 105.069C26.5939 104.769 26.5218 104.513 26.6019 104.308C26.6964 104.062 27.0008 103.898 27.177 103.828C28.6667 103.967 30.1637 104.037 31.6619 104.037C34.0885 104.037 37.0117 103.839 39.2606 103.085C39.4816 103.149 39.8228 103.299 39.9333 103.542L39.9365 103.549ZM38.8153 102.425C35.0159 103.636 29.0782 103.226 27.5438 103.094L27.0632 91.5111C27.233 91.1668 27.3836 90.8084 27.5438 90.4598C29.7632 90.7513 32.003 90.9067 34.2471 90.925C35.6845 90.9401 37.1204 90.8346 38.535 90.6102L38.8153 102.425ZM40.944 68.5986C40.9664 69.2016 41.0081 69.8439 41.0545 70.5171C40.6525 68.8586 40.345 67.2269 40.0791 65.7188C40.3817 65.6228 40.693 65.5494 41.0097 65.4995C40.8687 66.6801 40.8912 67.2676 40.9392 68.586L40.944 68.5986ZM42.3311 64.2528C42.3509 64.3011 42.3567 64.353 42.3481 64.4038C42.3394 64.4545 42.3165 64.5026 42.2815 64.5438C42.2492 64.5817 42.2071 64.6123 42.1586 64.633C42.1101 64.6538 42.0567 64.6642 42.0028 64.6632C41.857 64.6632 41.7081 64.6632 41.5607 64.6716C41.5607 64.6716 41.5479 64.6716 41.5431 64.6716C40.9978 64.6982 40.4591 64.789 39.9413 64.9415C39.8708 64.5283 39.7988 64.1137 39.7283 63.7005C39.0748 59.8662 38.3924 55.9083 36.9717 52.1641C38.2995 54.091 39.4576 57.0103 41.0161 60.9555C41.4197 61.9731 41.8538 63.0722 42.3263 64.2402L42.3311 64.2528ZM51.6213 27.7477C51.622 28.5758 51.4346 29.3958 51.0699 30.1596C50.7052 30.9234 50.1706 31.6157 49.4974 32.1961C49.4144 32.0936 49.3245 31.9955 49.2283 31.9024C49.201 31.8771 49.1722 31.8546 49.1434 31.8293C49.0655 31.7565 48.9832 31.6875 48.8967 31.6227C48.8503 31.5861 48.8006 31.5538 48.751 31.5215C48.7013 31.4891 48.6052 31.4245 48.5299 31.3809C48.4546 31.3373 48.4194 31.3177 48.3697 31.2896C48.3201 31.2614 48.2096 31.2137 48.1343 31.1799C48.059 31.1462 48.0222 31.1307 47.9645 31.1097C47.8656 31.0735 47.7645 31.042 47.6618 31.0155C47.6233 31.0042 47.5849 30.9902 47.5448 30.9803C47.4055 30.9474 47.2637 30.9235 47.1204 30.9087C47.0739 30.9087 47.0259 30.9087 46.9778 30.9002C46.9058 30.9002 46.8353 30.8876 46.7632 30.8876C46.6911 30.8876 46.6591 30.8876 46.603 30.8876L46.4268 30.896H46.2907H46.2314H46.0712H46.0104H45.8197H45.7749H45.5555H45.5154H45.2559H45.2399H44.958H44.9276H44.6264H44.596H44.2757H44.2484H43.9073H43.8512H43.5036H41.0033C41.0129 30.8735 41.0209 30.8496 41.0305 30.8272C41.117 30.6374 41.1907 30.4449 41.2644 30.2509C41.2644 30.234 41.2756 30.2158 41.2804 30.1989C41.3429 30.012 41.3957 29.8236 41.4406 29.6367C41.4502 29.6002 41.4598 29.5622 41.4678 29.5243C41.511 29.3275 41.5431 29.1265 41.5671 28.9255C41.5671 28.8833 41.5671 28.8426 41.5799 28.8018C41.6007 28.5924 41.6136 28.3802 41.6136 28.1679C41.6136 27.9318 41.6007 27.6971 41.5751 27.4652C41.5751 27.3893 41.5495 27.3134 41.5383 27.2375C41.5158 27.0829 41.4934 26.9297 41.4598 26.7779C41.4406 26.6879 41.4117 26.6008 41.3877 26.5123C41.3525 26.3717 41.3172 26.241 41.2724 26.1089C41.2404 26.0161 41.2019 25.9248 41.1651 25.8278C41.117 25.7027 41.069 25.5776 41.0049 25.4553C40.9616 25.3626 40.9136 25.2726 40.8655 25.1742C40.8047 25.0576 40.7438 24.9409 40.6749 24.8271C40.6205 24.7357 40.5612 24.6472 40.5035 24.5586C40.4299 24.449 40.3562 24.3408 40.2761 24.2339C40.196 24.1271 40.1431 24.0611 40.0727 23.9753C40.0022 23.8896 39.9013 23.7715 39.8116 23.6731C39.7219 23.5748 39.6514 23.5087 39.5777 23.4286C39.5313 23.3822 39.4896 23.333 39.4416 23.288C40.4347 22.4099 41.7027 21.8103 43.0846 21.5652C44.4666 21.3201 45.9003 21.4406 47.2042 21.9113C48.508 22.3821 49.6232 23.1819 50.4085 24.2094C51.1937 25.2369 51.6136 26.4459 51.6149 27.683L51.6213 27.7477ZM38.5206 23.6211C39.2202 24.2164 39.7758 24.9293 40.1542 25.7173C40.5327 26.5053 40.7261 27.3522 40.723 28.2073C40.7223 28.451 40.7063 28.6946 40.6749 28.9367C40.6749 28.9452 40.6749 28.9536 40.6749 28.9606C40.6436 29.1932 40.5976 29.4241 40.5372 29.6522L40.5276 29.6957C40.4661 29.9177 40.3917 30.1367 40.3049 30.3521C40.2969 30.3704 40.2905 30.39 40.2825 30.4083C40.1932 30.6209 40.091 30.8292 39.9766 31.0324C39.9637 31.0534 39.9541 31.0759 39.9413 31.097L39.9317 31.1125C39.9233 31.1237 39.9158 31.1354 39.9093 31.1476C39.9019 31.1584 39.8955 31.1697 39.8901 31.1813C39.6459 31.5957 39.3488 31.9842 39.0043 32.3395C38.0584 33.326 36.7956 34.0396 35.3807 34.387C33.9658 34.7345 32.4644 34.6998 31.0723 34.2875C29.6802 33.8752 28.462 33.1043 27.5766 32.0754C26.6911 31.0466 26.1795 29.8075 26.1085 28.5197C26.0375 27.232 26.4104 25.9553 27.1785 24.8563C27.9466 23.7572 29.0743 22.8868 30.4145 22.3584C31.7548 21.8301 33.2453 21.6683 34.6919 21.8943C36.1384 22.1203 37.4737 22.7236 38.5238 23.6254L38.5206 23.6211ZM17.9269 38.0205C17.4463 37.5356 17.2861 36.7204 17.4575 35.5988C17.5937 34.66 17.9509 34.0626 18.5179 33.8237C19.5302 33.402 20.9766 34.1568 20.991 34.1652C21.0905 34.2158 21.2086 34.2303 21.3201 34.2055C21.4316 34.1807 21.5276 34.1187 21.5877 34.0326C21.6477 33.9465 21.667 33.8432 21.6414 33.7448C21.6158 33.6464 21.5474 33.5607 21.4507 33.506C20.8972 33.2213 20.2875 33.0306 19.6535 32.9438C18.9279 28.428 16.096 11.1951 14.3005 5.8303L16.6743 7.55624C16.7365 7.6012 16.8116 7.63032 16.8914 7.64043C16.9711 7.65054 17.0525 7.64125 17.1267 7.61356C17.2009 7.58588 17.265 7.54087 17.312 7.48343C17.3591 7.42598 17.3872 7.35832 17.3935 7.2878L17.6626 4.28424L20.0492 6.33487C20.1076 6.38449 20.1805 6.41901 20.2598 6.43463C20.3392 6.45026 20.4219 6.44639 20.4989 6.42343C20.5759 6.40048 20.6441 6.35934 20.6962 6.30453C20.7483 6.24973 20.7821 6.18339 20.794 6.1128L21.2953 3.02912L23.328 5.37771C23.375 5.43151 23.4372 5.47355 23.5085 5.49965C23.5799 5.52574 23.6577 5.53499 23.7344 5.52646C23.811 5.51793 23.8838 5.49192 23.9454 5.45102C24.007 5.41013 24.0554 5.35578 24.0856 5.29338L25.6056 2.09868L27.555 4.45712C27.6013 4.51307 27.6639 4.55708 27.7362 4.58458C27.8086 4.61207 27.888 4.62203 27.9662 4.61342C28.0444 4.6048 28.1185 4.57794 28.1809 4.53561C28.2432 4.49328 28.2915 4.43706 28.3206 4.37279L29.602 1.56178L31.5722 3.70518C31.6178 3.7549 31.6768 3.79381 31.744 3.81836C31.8111 3.84291 31.8842 3.85232 31.9566 3.84573C32.0292 3.83943 32.0988 3.81754 32.1595 3.78199C32.2201 3.74644 32.2698 3.69833 32.3042 3.64192L33.821 1.12045L36.0122 3.90897C36.0563 3.96647 36.1176 4.01223 36.1894 4.04123C36.2611 4.07023 36.3406 4.08137 36.4191 4.07342C36.4975 4.06665 36.5725 4.04138 36.6359 4.00031C36.6993 3.95924 36.7489 3.90389 36.7795 3.8401L38.0112 1.2849L39.5329 3.8668C39.5674 3.9252 39.6183 3.97492 39.6808 4.01124C39.7433 4.04756 39.8153 4.06928 39.89 4.07434C39.9648 4.07941 40.0398 4.06765 40.1079 4.04018C40.176 4.01272 40.235 3.97045 40.2793 3.91739L42.2783 1.50837L43.691 4.22099C43.722 4.28087 43.7699 4.33283 43.8302 4.37193C43.8904 4.41104 43.9611 4.43599 44.0354 4.44446C44.1098 4.45331 44.1856 4.44501 44.2552 4.42037C44.3249 4.39572 44.386 4.35558 44.4326 4.30391L46.7215 1.85272L47.3062 19.1404C47.3085 19.2104 47.3325 19.2786 47.3757 19.3375C47.4189 19.3965 47.4796 19.444 47.5513 19.4749C48.0571 19.7172 48.4717 20.0834 48.7444 20.5289C49.0172 20.9744 49.1363 21.4799 49.0873 21.9837C47.5424 21.0289 45.6609 20.5874 43.7791 20.738C41.8973 20.8887 40.1378 21.6216 38.8153 22.8059C37.3277 21.6492 35.4082 21.0116 33.4206 21.0139C32.0442 21.0138 30.69 21.318 29.4831 21.8985C28.2761 22.479 27.2554 23.317 26.5151 24.3352C25.7749 25.3533 25.339 26.5188 25.2477 27.7239C25.1565 28.9289 25.4128 30.1347 25.9931 31.2299C26.5733 32.325 27.4588 33.2742 28.5676 33.9897C29.6764 34.7052 30.9728 35.1639 32.3371 35.3236C33.7014 35.4832 35.0895 35.3385 36.3732 34.9029C37.657 34.4673 38.7949 33.7549 39.6818 32.8314C40.0194 32.483 40.3171 32.1064 40.5708 31.707C43.9025 31.7379 45.714 31.6915 46.6479 31.6466C47.4487 31.61 48.3073 32.0246 48.8086 32.667C48.8801 32.7563 48.9439 32.8503 48.9992 32.9481C49.1979 33.3036 49.5486 34.213 48.4867 34.9453L48.4434 34.979C47.7803 35.4245 46.382 35.9235 43.5228 35.8673H43.5116C43.4538 35.8666 43.3964 35.876 43.3426 35.8948C43.2889 35.9136 43.2399 35.9416 43.1985 35.977C43.1571 36.0124 43.124 36.0547 43.1012 36.1013C43.0784 36.148 43.0663 36.1981 43.0655 36.2489C43.0648 36.2996 43.0755 36.35 43.0969 36.3972C43.1184 36.4443 43.1502 36.4873 43.1906 36.5236C43.231 36.56 43.2791 36.589 43.3323 36.609C43.3854 36.629 43.4426 36.6397 43.5004 36.6403H43.989C45.8246 36.6403 47.2661 36.407 48.3025 35.9488C48.4002 37.7506 49.4237 40.0248 50.0916 41.3291C50.1581 41.4618 50.1713 41.6103 50.1291 41.7505C50.0869 41.8906 49.9918 42.0141 49.8594 42.1007C46.6767 44.1766 40.1512 45.9757 27.1513 42.7585C26.3793 42.5673 26.2608 42.5378 26.0653 42.7402C26.0101 42.7979 25.975 42.8684 25.9642 42.9431C25.9534 43.0179 25.9674 43.0939 26.0045 43.1618C26.0402 43.2271 26.096 43.2822 26.1657 43.321C26.2354 43.3598 26.316 43.3806 26.3985 43.3811C26.4898 43.4008 26.6964 43.4514 26.9127 43.5048C30.7409 44.4521 34.0261 44.9693 36.8435 45.1759C36.1147 46.3734 35.0576 46.4718 34.1206 46.5561C33.8046 46.5703 33.4916 46.6175 33.1883 46.6967C32.1312 47.0382 32.0959 49.2983 32.1456 50.4241C31.8669 50.6222 31.2967 50.6546 30.9699 50.6728C28.6858 50.8134 26.7269 50.7094 24.973 50.3636C23.7044 50.1135 22.0898 49.7157 20.7812 48.8597C20.3325 48.5724 19.9463 48.2168 19.6407 47.8098C20.7828 38.6642 20.416 38.6249 19.9098 38.5757C19.8618 38.5757 19.7913 38.5687 19.7016 38.5672C19.2995 38.5771 18.4634 38.5616 17.9332 38.0205H17.9269ZM10.019 56.122C11.5999 53.0481 14.4895 47.4289 18.3561 46.8218C18.3724 46.9704 18.3976 47.1182 18.4314 47.2645C18.497 47.5475 18.6115 47.82 18.771 48.0727C18.771 48.0853 18.7838 48.098 18.7918 48.1106C19.1688 48.6562 19.6686 49.1287 20.2606 49.4992C21.7022 50.4437 23.4321 50.871 24.7855 51.1395C26.6244 51.5007 28.6682 51.6075 31.0324 51.4641C31.5289 51.4374 32.4403 51.384 32.9112 50.8626C32.9195 50.8558 32.9271 50.8482 32.9337 50.8401L32.9465 50.8288C33.1139 50.6327 33.209 50.3963 33.2188 50.1514C33.2296 49.8554 33.206 49.5592 33.1483 49.2673C33.6664 49.4026 34.154 49.6151 34.5899 49.8956C34.7739 50.0086 34.9361 50.1466 35.0704 50.3046C35.0757 50.3132 35.0821 50.3212 35.0896 50.3285C35.2615 50.5529 35.4152 50.7878 35.5493 51.0312C35.5552 51.0443 35.5622 51.057 35.5701 51.0692C35.7202 51.347 35.8528 51.6318 35.9674 51.9223C37.4907 55.7397 38.189 59.8381 38.865 63.8016C38.9611 64.3638 39.0555 64.926 39.1549 65.4882C39.1541 65.4953 39.1541 65.5023 39.1549 65.5093C39.6226 68.1798 40.2088 71.2817 41.2227 74.2487C41.2227 74.2487 41.2227 74.26 41.2307 74.267C41.2351 74.2842 41.241 74.3012 41.2484 74.3176C41.463 74.9515 41.6808 75.5376 41.9131 76.0984C42.0044 76.3261 42.1085 76.5861 42.038 76.7477C41.9179 77.0134 41.3301 77.0569 40.9889 77.0597C39.7168 77.0707 38.446 76.9842 37.1911 76.8011C35.7784 76.5987 34.3576 76.2699 32.9833 75.9578C31.1781 75.5362 29.3089 75.1047 27.4012 74.9431C26.4678 74.8676 25.5296 74.8497 24.5933 74.8897H24.5773C24.5693 74.8897 24.5629 74.8897 24.5549 74.8897C22.8014 74.9775 21.0604 75.2024 19.3524 75.5615C19.1041 72.9149 19.386 70.066 19.6119 68.4089C22.314 67.938 22.3221 67.3843 22.3221 67.1706V67.1594C22.3302 66.2407 22.2515 65.3231 22.0866 64.4158C22.0673 64.3146 22.0029 64.2243 21.9077 64.1648C21.8125 64.1052 21.6942 64.0812 21.5788 64.0982C21.4635 64.1152 21.3606 64.1716 21.2927 64.2552C21.2248 64.3387 21.1975 64.4426 21.2168 64.5438C21.3289 65.1718 21.4011 65.8047 21.4331 66.4398C20.8144 66.2732 20.1787 66.1597 19.535 66.101H19.4854C17.8995 65.9385 16.3039 65.861 14.7073 65.8691C13.3747 65.8691 12.058 65.9183 10.8919 66.0097C10.8861 66.009 10.8802 66.009 10.8743 66.0097H10.8535C9.37669 66.1277 8.48611 66.2908 7.94151 66.4538C7.69644 62.8164 8.41563 59.2577 10.0254 56.122H10.019ZM18.6989 77.3591C16.2963 78.2235 14.0346 78.8686 12.4328 79.2861C12.2477 78.7662 12.1022 78.2361 11.9972 77.6992C11.3709 74.7336 11.278 70.4609 11.278 68.177C11.278 68.0364 11.278 67.9057 11.278 67.7806C11.278 67.7455 11.278 67.7103 11.278 67.6766C11.278 67.5628 11.278 67.4531 11.278 67.3533V67.3379C11.278 67.224 11.278 67.12 11.278 67.0259V66.9935C11.278 66.9008 11.278 66.8164 11.278 66.7448C12.3287 66.6717 13.4916 66.6323 14.6673 66.6323C16.094 66.6271 17.52 66.689 18.9391 66.8178C18.9295 66.8699 18.9199 66.9289 18.9103 66.9893C18.9103 67.0146 18.9023 67.0357 18.8975 67.0624C18.8975 67.1116 18.8799 67.1664 18.8719 67.2198C18.8639 67.2732 18.8575 67.3013 18.851 67.3463C18.8446 67.3913 18.8334 67.4574 18.8238 67.5136C18.8142 67.5698 18.8078 67.6148 18.7998 67.671C18.7822 67.7834 18.7646 67.9043 18.7469 68.0308C18.5003 69.7497 18.1383 73.0822 18.4907 76.0731C18.4907 76.0731 18.4907 76.0829 18.4907 76.0886C18.5131 76.2881 18.5403 76.4779 18.5676 76.6648L18.5868 76.7899C18.6172 76.9754 18.6476 77.1581 18.6829 77.3338L18.6989 77.3591ZM4.04927 73.5643C4.30394 72.2543 4.68996 70.9402 5.06477 69.6682L5.09361 69.567C5.6286 67.7525 6.2837 65.6316 7.04453 63.5079C6.9482 64.7064 6.95195 65.9094 7.05576 67.1074V67.1664C7.05576 67.7413 8.17698 68.191 10.397 68.5059C10.4066 70.7842 10.5139 74.6212 11.0601 77.48C9.04193 77.9227 6.48232 78.395 3.87626 78.4048H3.67925C3.6211 76.7853 3.74719 75.1647 4.05566 73.5671L4.04927 73.5643ZM4.25748 79.168C6.80106 79.1174 9.25975 78.6704 11.2219 78.2404C11.3175 78.6676 11.4399 79.0899 11.5887 79.5053C9.77712 79.9523 8.59503 80.1772 8.58221 80.1786C8.47575 80.1984 8.38143 80.2521 8.31743 80.3294C8.25344 80.4066 8.2243 80.5019 8.23564 80.5969C8.24698 80.6919 8.29801 80.7798 8.37887 80.8438C8.45972 80.9077 8.56468 80.9431 8.67352 80.9431C8.70474 80.9431 8.73586 80.9403 8.76642 80.9347C8.78083 80.9347 10.184 80.6663 12.2791 80.1364C14.6838 79.5239 17.0488 78.7972 19.3636 77.9593C19.9274 77.7541 20.4944 77.5376 21.0999 77.2931C23.4225 76.3556 24.3771 75.8468 24.6927 75.6641C25.5622 75.6281 26.4334 75.645 27.3003 75.7147C29.1375 75.8707 30.9699 76.2966 32.7462 76.707C34.1398 77.0316 35.5814 77.3647 37.0357 77.5742C38.1976 77.7418 39.3726 77.8302 40.55 77.8384L40.8383 89.0951C40.18 89.4689 37.0486 90.828 27.8529 89.7107C28.218 88.7817 28.5202 87.8346 28.7579 86.8744C29.2496 84.8645 30.6159 83.2004 32.5092 82.3065C33.1824 81.9853 33.9023 81.7461 34.6491 81.5953C34.763 81.5718 34.8615 81.5096 34.9231 81.4224C34.9847 81.3351 35.0043 81.23 34.9775 81.1301C34.9507 81.0302 34.8798 80.9437 34.7804 80.8897C34.681 80.8356 34.5612 80.8185 34.4473 80.8419C33.6247 81.0095 32.8316 81.2738 32.0895 81.6276C29.972 82.6283 28.4424 84.4808 27.8962 86.7127C27.6304 87.7931 27.281 88.8562 26.8502 89.8948C26.6516 90.36 26.437 90.8266 26.2095 91.282C25.8742 91.9567 25.4945 92.6137 25.0723 93.2497C23.0917 93.641 21.0714 93.8571 19.0417 93.8949C12.9854 94.0354 7.27039 92.8632 4.36962 92.138H4.34559L4.31196 92.1295C3.75134 91.989 3.32047 91.8709 3.05138 91.795L4.25748 79.168ZM3.31565 104.29C3.34724 104.169 3.40923 104.056 3.49708 103.958C3.58493 103.861 3.69642 103.782 3.82341 103.728C3.86721 103.71 3.91528 103.702 3.96353 103.704C4.01178 103.705 4.05878 103.718 4.10051 103.739C5.47802 104.387 10.6084 106.32 18.8975 104.092C19.0229 104.121 19.1386 104.177 19.2349 104.253C19.3312 104.33 19.4055 104.425 19.4517 104.532C19.5654 104.87 19.0993 105.202 18.811 105.375C18.7505 105.41 18.7008 105.458 18.6664 105.514C18.6321 105.57 18.614 105.633 18.614 105.697V106.654C18.4754 106.688 18.3395 106.73 18.2072 106.779C17.7779 106.941 17.355 107.085 16.945 107.226C14.4847 108.069 12.3559 108.802 11.5727 111.996C11.1514 112.609 10.7029 113.232 10.2496 113.835C10.2454 113.841 10.2406 113.847 10.2352 113.853C8.50694 116.155 6.71137 118.168 6.10751 118.21C6.01956 118.216 5.93117 118.216 5.84322 118.21C5.8208 118.21 5.79518 118.202 5.77275 118.2C5.69907 118.192 5.62699 118.182 5.5485 118.166C5.51327 118.166 5.47642 118.147 5.43958 118.138C5.3707 118.121 5.30344 118.106 5.23296 118.084C5.18811 118.069 5.14165 118.051 5.0952 118.034C5.04874 118.017 4.96706 117.989 4.90139 117.963C4.83572 117.936 4.80048 117.916 4.74121 117.892C4.68195 117.869 4.61787 117.835 4.55541 117.802C4.49294 117.77 4.45129 117.742 4.39523 117.711C4.33917 117.68 4.2767 117.641 4.21744 117.603C4.15817 117.565 4.11493 117.53 4.05726 117.493C3.9996 117.457 3.94195 117.409 3.88588 117.364C3.82982 117.319 3.78817 117.28 3.74172 117.237C3.69527 117.195 3.66805 117.169 3.63121 117.135L3.75934 112.356L4.10693 105.891C4.10953 105.84 4.10054 105.788 4.08047 105.74C4.0604 105.692 4.02966 105.647 3.99 105.61C3.49346 105.095 3.25319 104.647 3.32206 104.293L3.31565 104.29ZM2.03425 120.543C1.91091 119.436 1.74113 117.919 1.65784 116.195C1.61299 115.242 1.77316 114.545 2.01503 114.034C2.01579 114.045 2.01579 114.055 2.01503 114.065C2.00221 114.127 1.9894 114.195 1.97819 114.262C1.97819 114.29 1.96698 114.317 1.96218 114.346C1.94456 114.448 1.92693 114.552 1.91091 114.663C1.83433 115.17 1.88034 115.687 2.0459 116.178C2.21147 116.669 2.4929 117.125 2.87196 117.514C2.97887 117.627 3.09222 117.734 3.21155 117.836C3.27242 117.888 3.33648 117.935 3.39895 117.977C3.46141 118.019 3.51748 118.072 3.57994 118.117C3.66644 118.179 3.75775 118.234 3.84744 118.289C3.88909 118.314 3.92914 118.342 3.97078 118.366C4.07169 118.425 4.1758 118.477 4.28151 118.529C4.31355 118.545 4.34558 118.563 4.37922 118.577C4.48493 118.627 4.59385 118.67 4.69957 118.717L4.79727 118.755C4.89978 118.791 5.00391 118.82 5.10642 118.848L5.22815 118.88C5.32105 118.903 5.41235 118.918 5.50365 118.932C5.55651 118.941 5.60937 118.949 5.66383 118.955C5.71828 118.961 5.816 118.968 5.89128 118.97C5.92812 118.97 5.96656 118.979 6.0034 118.979C6.04024 118.979 6.12192 118.979 6.18119 118.979C7.02531 118.92 8.42364 117.482 9.70504 115.916C10.051 115.495 10.3874 115.065 10.7029 114.651C11.4276 115.333 12.2052 115.97 13.0303 116.557C11.6752 118.103 5.95054 124.965 6.08669 129.971C4.24307 129.583 2.15438 129.148 1.31506 128.973C1.69308 125.9 2.17521 122.789 2.18001 122.762C2.24088 122.376 2.16079 121.648 2.03425 120.546V120.543ZM27.9826 139.658C25.9628 139.293 6.38462 137.72 6.186 137.704C3.20994 137.465 1.52169 136.111 0.932243 134.923C0.871376 134.795 0.719219 134.044 1.22217 129.735C2.56604 130.016 6.34778 130.805 8.17698 131.198L8.78083 131.33C10.9656 131.814 13.0372 132.238 14.9956 132.604C15.022 132.612 15.0495 132.617 15.0773 132.619C21.0727 133.737 25.9965 134.299 29.7894 134.299C30.7184 134.299 31.5818 134.265 32.3746 134.198C36.2861 133.865 39.1837 133.495 41.7401 133.173C44.4727 132.827 47.0627 132.501 50.3751 132.278C50.436 132.338 50.4985 132.394 50.5593 132.462C52.0442 134.136 51.4067 136.74 51.2337 137.34C51.0735 137.43 50.9133 137.517 50.7355 137.602L50.7003 137.617C45.1743 140.192 29.5716 139.948 27.9858 139.662L27.9826 139.658ZM72.9775 136.892C71.8851 137.529 57.6807 138.008 52.0474 137.661C52.1435 137.37 52.9796 134.678 51.6838 132.578C53.4681 132.498 57.9546 132.297 59.9312 132.217C60.6584 132.186 62.0039 132.169 63.5624 132.15C68.4269 132.089 72.545 132.009 73.6534 131.708C73.7031 131.73 73.9129 131.942 74.0314 132.611C74.2925 134.056 73.9193 136.123 72.9807 136.896L72.9775 136.892Z" fill="#1D1D1B"/>
<path d="M31.8488 29.2782C32.5229 29.2782 33.0694 28.7987 33.0694 28.2072C33.0694 27.6157 32.5229 27.1362 31.8488 27.1362C31.1747 27.1362 30.6283 27.6157 30.6283 28.2072C30.6283 28.7987 31.1747 29.2782 31.8488 29.2782Z" fill="#1D1D1B"/>
<path d="M45.1166 25.7461C44.8748 25.7458 44.6383 25.8085 44.4371 25.9261C44.2359 26.0438 44.0791 26.2112 43.9863 26.4071C43.8936 26.6031 43.8691 26.8187 43.9161 27.0268C43.9631 27.235 44.0794 27.4262 44.2502 27.5763C44.4211 27.7264 44.6388 27.8287 44.8759 27.8702C45.113 27.9117 45.3589 27.8905 45.5823 27.8094C45.8057 27.7283 45.9967 27.5908 46.131 27.4144C46.2654 27.238 46.3371 27.0307 46.3371 26.8185C46.3367 26.5344 46.208 26.2621 45.9792 26.0611C45.7505 25.8601 45.4403 25.7468 45.1166 25.7461Z" fill="#1D1D1B"/>
<path d="M19.6199 35.7493C19.7169 35.758 19.8122 35.7779 19.9034 35.8083C20.1151 35.9013 20.2977 36.0383 20.4352 36.2075C20.52 36.0813 20.5615 35.9363 20.5547 35.79C20.5479 35.6436 20.493 35.5021 20.3967 35.3824C20.29 35.2535 20.1504 35.1483 19.9891 35.0751C19.8278 35.0019 19.6493 34.9627 19.4677 34.9608C19.2981 34.9566 19.1291 34.982 18.9707 35.0355C18.8124 35.0891 18.6677 35.1698 18.5451 35.2728C18.3178 35.459 18.1822 35.7156 18.1671 35.9882C18.4522 35.9123 18.6717 35.8392 18.8719 35.7956C18.8087 35.8962 18.7659 36.0055 18.7453 36.1189C18.7187 36.3009 18.7521 36.4857 18.8414 36.6516C18.9311 36.8104 19.1202 37.0198 19.386 37.0015C19.4055 36.8501 19.4531 36.7024 19.527 36.5644C19.5702 36.4516 19.6008 36.3353 19.6183 36.2173C19.6344 36.0984 19.6381 35.9784 19.6295 35.8589L19.6199 35.7493Z" fill="#1D1D1B"/>
</svg>
