<svg width="214" height="91" viewBox="0 0 214 91" fill="none" xmlns="http://www.w3.org/2000/svg">
<path d="M125.803 30.0032L126.413 31.4993L127.938 32.478L130.745 33.1083H132.453L133.933 32.8409L134.519 32.4671L134.482 31.6567H134.921L135.471 31.9723L137.301 33.4903L138.7 36.247L139.546 38.8455L140.434 41.0947L140.666 41.7141L140.446 42.0161L139.558 42.198L138.652 42.3726L139.059 44.8592L139.856 47.8515L140.327 49.1003L140.461 49.7861L140.12 50.0335L138.461 50.1244L137.474 49.9789L134.863 49.5178L133.009 49.1121L131.765 48.8647L129.722 48.7074L128.226 48.8083L127.397 49.3259L126.41 49.1121L120.732 50.4655L118.243 50.9048L116.315 50.9957V49.2404C116.315 49.1958 116.633 46.9911 116.633 46.9911L117.548 43.5823L118.316 41.0993L119.231 38.5763L120.684 35.302L121.708 33.5357L123.148 31.4439L124.613 30.4088L125.803 30.0032Z" fill="#105E74"/>
<path d="M115.845 73.2508L115.292 73.5819L115.083 74.6424V77.239L115.325 78.948L115.226 80.7579L114.804 83.0017L114.953 83.703L116.71 84.1004L121.17 85.0754L124.043 85.6602L128.594 86.4097L131.084 86.6825C131.084 86.6825 133.963 86.6944 134.036 86.6825C134.109 86.6707 137.928 86.1541 137.928 86.1541L140.991 85.8958L144.444 85.4683L145.43 85.311L145.76 85.5429L147.565 85.4829L152.934 85.3701C152.958 85.3701 156.407 85.2319 156.407 85.2319C156.407 85.2319 159.465 85.0854 159.49 85.0854C159.609 84.9531 159.72 84.8153 159.824 84.6725L159.286 83.4283L158.408 82.8507L156.895 82.2059L155.187 81.4856L153.959 80.8107L152.763 80.0831L151.982 79.3937L150.965 78.7034L150.013 78.013L149.241 77.3382C149.241 77.3382 148.118 76.4159 148.094 76.4014C148.069 76.3868 146.499 75.0062 146.499 75.0062L144.111 72.5769L143.052 71.2198L142.065 69.952L141.138 69.2926L140.195 68.9397L139.584 69.2316L138.739 69.7273L137.641 70.4995L136.335 71.4136L135.94 72.153L135.835 73.3036L135.637 73.8811L135.101 74.435L134.108 75.3809L133.148 75.7856L132.693 75.9357L131.167 74.7788L129.803 73.2599L128.416 71.6028L127.682 70.3131L127.102 69.5482L126.225 69.0934L125.33 69.3663L123.816 69.9511L122.596 70.595L121.945 71.7692L121.55 72.6351L120.119 74.6751L119.094 75.9348L118.364 76.5978L117.665 76.6724L116.657 76.2831L115.778 74.9925L115.845 73.2508Z" fill="#105E74"/>
<path d="M126.122 31.0746L126.561 25.9668L126.513 25.281L125.573 25.1237L124.731 24.3133V23.1546L125.183 21.9731L125.902 21.6921L126.229 21.4902L122.779 3.42352L123.657 3.91831L124.768 4.7396L124.975 2.37758L126.829 3.90739L127.269 1.4999L128.904 3.3444L129.953 1.01604L131.466 2.71502L132.406 0.678609L133.931 2.21932L135.102 0.385742L136.737 2.38849L137.665 0.385742L138.86 2.34393L140.373 0.655871L141.459 2.53492L143.313 0.644952L143.802 12.445L144.545 13.1544L144.875 14.0994L144.827 14.6842L145.913 16.1577L146.229 17.2827L146.352 18.5088L145.986 19.6784L145.198 20.7362L144.729 21.1636L144.888 22.0295L144.497 22.6489L144.314 23.2446L145.198 26.3497L145.4 27.0355L145.022 27.7558L142.106 28.7908L139.849 29.0719L138.201 29.0946L137.4 29.061L137.127 29.4657L136.566 30.1296L135.688 30.4898L134.858 30.5116L134.565 30.7818L134.358 32.3343L134.272 32.8882L133.223 33.2229L131.686 33.1665L129.684 32.9419L128.44 32.6272L127.098 31.9405L126.317 31.423L126.122 31.0746Z" fill="#F1A61C"/>
<path d="M120.899 43.0192V45.1339L121.22 48.9475L121.654 51.4786H122.167L126.194 50.1507L125.946 48.7783V45.4922L126.194 43.4913V43.0192L124.437 42.8164L120.899 43.0192Z" fill="#F1A61C"/>
<path d="M138.647 42.3217L139.59 46.5964L139.85 45.1412V42.1635L138.647 42.3217Z" fill="#F1A61C"/>
<path d="M116.872 59.848L116.994 66.3502V66.935L118.604 67.5362L121.434 67.7899L124.876 67.3624L125.851 67.106L126.022 61.0177L122.972 60.9731L121.179 60.7193L119.483 60.4556L116.872 59.848Z" fill="#F1A61C"/>
<path d="M130.692 58.9032L130.94 66.0356L131.074 66.8178L132.185 67.0251H134.21L136.095 66.8787L137.626 66.6541L138.468 66.3894L138.334 64.5167L138.249 59.7972L138.211 58.3184L137.559 58.5294L136.492 58.5821L134.832 58.6167L133.044 58.5821L132.13 58.3465L131.269 58.262L131.019 58.3402L130.692 58.9032Z" fill="#F1A61C"/>
<path d="M134.855 22.6024C137.46 22.6024 139.572 20.6552 139.572 18.2531C139.572 15.8511 137.46 13.9038 134.855 13.9038C132.249 13.9038 130.137 15.8511 130.137 18.2531C130.137 20.6552 132.249 22.6024 134.855 22.6024Z" fill="white"/>
<path d="M146.353 18.0448C146.354 18.6722 146.207 19.2923 145.922 19.8622C145.638 20.4322 145.222 20.9382 144.704 21.3454L144.317 20.6323L143.373 20.3022H141.301L139.352 20.1203L139.011 20.3604L138.452 21.2554C137.873 20.7675 137.434 20.154 137.177 19.4705C136.919 18.7869 136.85 18.0549 136.977 17.3408C137.104 16.6267 137.422 15.953 137.902 15.3808C138.383 14.8086 139.01 14.356 139.729 14.0639C140.447 13.7718 141.232 13.6495 142.015 13.7081C142.797 13.7667 143.551 14.0044 144.208 14.3995C144.866 14.7946 145.406 15.3347 145.78 15.9709C146.154 16.6071 146.35 17.3193 146.35 18.0429L146.353 18.0448Z" fill="white"/>
<path d="M121.718 51.636L121.324 50.3081L118.518 50.882L116.602 50.9729L116.236 55.7542L115.94 58.5101V59.466L116.99 59.9053L121.175 60.7238L123.298 60.9057L125.836 61.0185L129.423 60.6547L130.082 60.25L131.095 58.2591L133.254 58.5628C133.254 58.5628 134.962 58.6074 135.047 58.6074C135.133 58.6074 138.464 58.1917 138.464 58.1917L139.709 57.8198L139.636 56.38L139.525 50.2044L137.355 49.9606L135.911 49.7205L134.459 49.3494L132.776 49.0229L131.079 48.7755L129.786 48.6846L129.054 48.7637L126.772 49.776L125.564 50.3945L122.77 51.304L121.718 51.636Z" fill="white"/>
<path d="M117.301 67.0479L116.757 66.876L116.423 66.9615L116.146 67.378L116.311 68.1357L116.508 68.5331L116.418 70.3703C116.418 70.3703 116.283 72.9052 116.32 72.826C116.356 72.7469 116.107 75.1126 116.107 75.1126L116.44 75.9902L117.042 76.5305L117.595 76.6578H118.181L119.458 75.5328C119.458 75.5328 121.011 73.4627 121.061 73.4181C121.11 73.3736 122.175 71.3472 122.175 71.3472L123.492 70.1184L124.749 69.6118L125.957 69.1962L126.032 68.6896L126.15 68.3076L126.554 67.7837L126.42 67.3507L126.032 67.0997L125.238 67.2816L122.724 67.7819L120.906 67.8664L119.027 67.6191L117.301 67.0479Z" fill="white"/>
<path d="M131.072 66.8922L130.633 67.1323L130.39 67.4325L130.488 67.8818L130.693 68.452L130.634 71.3534L130.447 73.5071L130.634 74.3621C130.634 74.3621 132.311 75.669 132.311 75.6863C132.311 75.7036 132.706 76.041 132.706 76.041C132.706 76.041 133.852 75.3371 133.885 75.3289C133.917 75.3207 135.227 74.2793 135.227 74.2793L135.866 73.4771V72.5885L136.134 71.5417L137.842 70.3593L139.111 69.4589L139.025 67.5243L139.111 66.9395L138.647 66.4666L138.025 66.5457L136.683 66.894L135.231 67.1305L133.413 67.0514L131.413 67.0232L131.072 66.8922Z" fill="white"/>
<path d="M130.08 81.0218L129.621 81.7321L129.282 82.5079L129.714 83.2865L130.796 83.8677L133.219 84.0814H137.222L140.199 83.8677L142.086 83.4065L143.065 83.0618L142.297 82.6716L140.345 81.7321L139.059 80.9463H138.257L135.871 81.3065L134.342 81.7376L133.204 82.0568L132.097 81.8012L130.633 81.3065L130.08 81.0218Z" fill="white"/>
<path d="M145.711 79.92L145.119 80.3311L144.803 80.946V81.7373L145.711 82.7914L148.35 83.3316L152.108 83.4963L154.369 83.3762L156.695 83.0615L157.427 82.6713L157.297 82.3566L155.377 81.4717L153.702 80.6768L152.766 80.0838L152.237 80.0765L151.327 80.3466L150.204 80.8259L149.108 81.006L148.041 80.946L146.812 80.4212L145.711 79.92Z" fill="white"/>
<path d="M122.629 75.3242L121.751 76.4957L120.337 78.6067L119.312 80.181L118.849 81.5762L118.454 82.8359L118.308 83.9555V84.3193L114.954 83.7009L114.805 84.0792L114.527 86.3439L114.641 87.3944L115.162 88.2939C115.162 88.2939 116.073 88.8942 116.138 88.8942C116.203 88.8942 118.285 89.449 118.285 89.449L121.929 89.7219L126.42 90.1421L131.072 90.5914L133.35 90.6514L137.465 90.7869L140.004 90.4886L143.469 89.9765L145.909 89.158L146.673 89.359L151.896 89.4335L156.353 89.2689L159.2 88.8942L159.827 88.2039L160.209 86.6868L160.03 85.3098L159.827 85.0097L158.956 85.0397L157.149 85.2307H153.132L149.993 85.3989L147.096 85.519L145.763 85.5417L145.269 85.3389L143.724 85.4744L139.202 86.0292L136.096 86.4012L133.508 86.554L131.377 86.6295L129.278 86.4831L123.535 85.609L123.519 84.7241L123.974 83.0515L124.869 82.2647L126.496 81.0824C126.496 81.0824 127.456 80.4075 127.521 80.3475C127.586 80.2874 128.042 79.5371 128.042 79.5371L127.342 78.9486L125.975 77.8145L125.178 77.3597L124.528 76.3429L123.781 75.9345L122.629 75.3242Z" fill="white"/>
<path d="M137.97 75.3215L137.368 76.2365L136.799 77.2388L136.31 78.212L136.206 78.6422L137.824 80.031L140.128 81.5981L140.638 81.891L141.354 81.4562L143.306 79.3862L142.964 78.6067L141.809 77.8136L140.833 77.2388L139.955 76.222L138.946 75.6872L137.97 75.3215Z" fill="white"/>
<path d="M126.028 54.6501C126.049 54.6499 126.071 54.6474 126.092 54.6429C127.193 54.3964 128.616 53.6506 129.312 52.541C129.51 52.2422 129.638 51.9089 129.689 51.5622C129.74 51.2155 129.713 50.8629 129.608 50.5264C129.588 50.4627 129.542 50.409 129.478 50.3771C129.415 50.3452 129.341 50.3377 129.272 50.3563C129.203 50.3749 129.145 50.418 129.11 50.4762C129.076 50.5343 129.067 50.6028 129.088 50.6665C129.26 51.2122 129.178 51.7579 128.844 52.2909C128.231 53.2668 126.921 53.9425 125.964 54.1572C125.9 54.1718 125.844 54.2076 125.806 54.2578C125.769 54.308 125.752 54.3692 125.76 54.4298C125.768 54.4904 125.8 54.5463 125.849 54.5869C125.898 54.6275 125.962 54.65 126.028 54.6501H126.028Z" fill="#1D1D1B"/>
<path d="M120.622 69.4443C121.782 69.4305 122.937 69.3034 124.067 69.065C124.102 69.0581 124.135 69.0449 124.165 69.0262C124.194 69.0075 124.219 68.9837 124.238 68.956C124.258 68.9284 124.271 68.8976 124.277 68.8652C124.284 68.8329 124.283 68.7997 124.276 68.7676C124.268 68.7355 124.254 68.705 124.233 68.678C124.213 68.6509 124.187 68.6278 124.157 68.61C124.127 68.5922 124.094 68.58 124.059 68.5741C124.024 68.5682 123.988 68.5687 123.953 68.5757C119.665 69.4306 118.072 68.5229 118.042 68.5056C118.012 68.4872 117.979 68.4744 117.944 68.4678C117.909 68.4613 117.873 68.4611 117.838 68.4673C117.803 68.4736 117.77 68.4861 117.74 68.5042C117.711 68.5224 117.685 68.5457 117.665 68.5729C117.645 68.6002 117.631 68.6308 117.624 68.663C117.617 68.6952 117.617 68.7283 117.624 68.7606C117.63 68.7929 117.644 68.8236 117.664 68.851C117.683 68.8784 117.709 68.902 117.738 68.9204C117.786 68.9504 118.607 69.4443 120.622 69.4443Z" fill="#1D1D1B"/>
<path d="M160.174 85.0627C160.129 84.9877 160.07 84.9203 160.001 84.8635C160.043 84.2268 159.793 82.8444 158.136 82.4451C158.072 82.429 158.008 82.4099 157.946 82.3878H157.936C156.868 82.024 153.665 80.4414 153.201 80.1331C152.9 79.9131 152.613 79.6771 152.342 79.4264C151.979 79.1063 151.665 78.8298 151.448 78.7152C150.931 78.4012 150.437 78.0563 149.968 77.6829C149.991 77.6684 150.014 77.6526 150.034 77.6356C150.087 77.5909 150.129 77.5371 150.158 77.4774C150.188 77.4177 150.205 77.3532 150.207 77.2875C150.21 77.2219 150.198 77.1564 150.173 77.0948C150.149 77.0333 150.111 76.9769 150.062 76.9289C149.913 76.7806 149.632 76.6151 149.144 76.6678C149.028 76.681 148.913 76.7032 148.801 76.7342L148.544 76.5132C148.626 76.4758 148.695 76.4198 148.747 76.3504C148.828 76.2408 148.858 76.106 148.832 75.9757C148.805 75.8454 148.723 75.7302 148.604 75.6556C148.374 75.5119 147.984 75.3772 147.397 75.49C147.288 75.39 147.18 75.2899 147.072 75.1881C147.183 75.1502 147.277 75.0799 147.341 74.988C147.404 74.896 147.434 74.7874 147.424 74.6787C147.414 74.5701 147.366 74.4673 147.287 74.3862C147.208 74.3051 147.102 74.25 146.986 74.2294C146.695 74.1853 146.398 74.1961 146.111 74.2613C145.981 74.133 145.853 74.0039 145.727 73.8756C145.848 73.8301 145.946 73.7457 146.004 73.6382C146.035 73.5793 146.054 73.5152 146.058 73.4497C146.063 73.3841 146.054 73.3184 146.031 73.2562C146.008 73.194 145.972 73.1366 145.924 73.0873C145.877 73.038 145.82 72.9977 145.756 72.9688C145.433 72.8232 145.071 72.7649 144.713 72.8006C144.592 72.6669 144.476 72.5341 144.362 72.404C144.446 72.3902 144.526 72.358 144.594 72.3102C144.662 72.2624 144.716 72.2004 144.753 72.1292C144.79 72.0581 144.807 71.9799 144.805 71.9012C144.802 71.8224 144.779 71.7454 144.738 71.6764C144.609 71.4627 144.291 71.1116 143.591 71.1389C143.519 71.1437 143.448 71.1519 143.377 71.1635C142.012 69.2762 140.911 68.5213 139.896 68.7924C139.669 68.8575 139.458 68.9635 139.275 69.1043L139.235 67.7337C139.445 67.4008 139.49 67.097 139.371 66.8242C139.235 66.5158 138.928 66.3539 138.719 66.2784L138.551 58.5257C139.52 58.2856 139.865 57.9937 139.894 57.9664C139.921 57.9427 139.941 57.9144 139.955 57.8831C139.969 57.8518 139.976 57.8183 139.975 57.7845L139.795 50.3683C140.249 50.3192 140.543 50.1518 140.666 49.8644C140.789 49.577 140.674 49.3032 140.594 49.095C140.453 48.7366 140.321 48.3673 140.19 47.9581C140.201 47.2568 140.151 46.4637 140.103 45.6961C140.073 45.2304 140.044 44.792 140.03 44.3828C139.999 43.4987 139.987 43.1522 140.078 42.3527H140.118C140.24 42.357 140.361 42.3337 140.471 42.2848C140.581 42.236 140.676 42.1631 140.749 42.0726C140.823 41.98 140.871 41.8722 140.889 41.7585C140.907 41.6448 140.895 41.5288 140.853 41.4205C140.563 40.6668 140.294 39.9567 140.046 39.2904C138.537 35.2776 137.625 32.8519 135.88 31.8933C135.519 31.6476 135.107 31.4733 134.67 31.3812C134.723 31.0174 134.805 30.7582 134.901 30.7164C135.045 30.6791 135.193 30.6565 135.343 30.6491C135.998 30.5881 136.974 30.4926 137.552 29.2939C137.954 29.3157 138.341 29.3293 138.715 29.3293C141.997 29.3293 144.049 28.5335 145.306 27.6713C145.486 27.547 145.616 27.37 145.673 27.1693C145.73 26.9686 145.711 26.756 145.62 26.5662C145.272 25.8486 144.488 24.0878 144.569 22.9491C144.821 22.7512 144.999 22.4858 145.079 22.19C145.159 21.8942 145.137 21.5828 145.015 21.2992C145.519 20.8743 145.92 20.3571 146.195 19.7809C146.469 19.2046 146.61 18.582 146.609 17.9526C146.607 17.3233 146.463 16.7012 146.186 16.1261C145.909 15.5509 145.505 15.0354 144.999 14.6125C145.108 14.1677 145.064 13.703 144.876 13.2816C144.688 12.8601 144.363 12.5024 143.947 12.2568L143.57 0.533148C143.568 0.482147 143.55 0.432808 143.517 0.391752C143.484 0.350696 143.439 0.31989 143.386 0.303459C143.334 0.287028 143.277 0.285759 143.224 0.299829C143.171 0.313898 143.124 0.342632 143.089 0.38217L141.499 2.17847L140.619 0.399451C140.599 0.359796 140.568 0.325594 140.529 0.300223C140.491 0.274851 140.446 0.259189 140.399 0.25478C140.352 0.250372 140.304 0.257366 140.261 0.275081C140.218 0.292797 140.18 0.320616 140.152 0.355791L138.907 1.9338L137.906 0.148424C137.883 0.105617 137.847 0.0699992 137.802 0.0460479C137.757 0.0220967 137.706 0.0108778 137.654 0.0138118C137.603 0.0155357 137.553 0.030736 137.51 0.0576334C137.468 0.0845308 137.435 0.122018 137.414 0.165705L136.625 1.89379L135.298 0.107495C135.272 0.0722364 135.236 0.0438748 135.194 0.0251308C135.152 0.00638688 135.105 -0.00211133 135.059 0.000444443C135.012 0.00300021 134.967 0.0165276 134.928 0.0397306C134.889 0.0629336 134.857 0.0950375 134.835 0.132964L133.885 1.79374L132.639 0.369436C132.609 0.335115 132.571 0.308613 132.526 0.292634C132.482 0.276656 132.434 0.271774 132.387 0.278484C132.341 0.285055 132.297 0.302778 132.26 0.3299C132.222 0.357022 132.194 0.392601 132.176 0.433103L131.396 2.2303L130.201 0.711415C130.173 0.675778 130.135 0.647684 130.091 0.629961C130.047 0.612238 129.998 0.605513 129.951 0.61046C129.903 0.61539 129.857 0.632083 129.819 0.6588C129.78 0.685517 129.75 0.721277 129.732 0.762348L128.79 2.83969L127.43 1.188C127.398 1.1486 127.354 1.11892 127.303 1.10273C127.253 1.08654 127.198 1.08456 127.146 1.09705C127.095 1.11012 127.049 1.13659 127.014 1.17325C126.979 1.20991 126.957 1.25517 126.949 1.30351L126.623 3.40358L125.121 2.0484C125.084 2.01527 125.038 1.9925 124.987 1.98277C124.937 1.97303 124.885 1.97673 124.836 1.99342C124.788 2.01011 124.746 2.03912 124.715 2.07704C124.684 2.11496 124.665 2.16023 124.661 2.20756L124.491 4.2085L122.616 2.77874C122.563 2.73804 122.495 2.71795 122.426 2.7227C122.357 2.72745 122.293 2.75666 122.246 2.80421C122.2 2.85215 122.175 2.9147 122.176 2.9791C122.178 3.0435 122.206 3.10488 122.255 3.15073C122.934 3.78739 124.792 14.5297 125.834 21.3347C125.701 21.3536 125.571 21.3904 125.449 21.4438C124.922 21.6758 124.599 22.1933 124.49 22.98C124.369 23.8531 124.509 24.5116 124.907 24.9373C125.344 25.4048 125.958 25.4621 126.294 25.4739C126.327 26.0396 126.149 28.0133 125.955 29.7905C125.921 29.7781 125.886 29.7728 125.85 29.775C122.989 29.9151 121.016 33.9506 119.953 36.1189C119.615 36.812 119.339 37.5293 119.126 38.2635C118.193 40.4073 117.44 42.9357 116.889 44.903L116.87 44.9685C116.637 45.8007 116.397 46.662 116.237 47.5297C116.027 48.6767 115.951 49.8412 116.01 51.0031C116.013 51.0665 116.043 51.1263 116.092 51.1706C116.141 51.215 116.207 51.2406 116.275 51.2423H116.356L115.6 59.5598C115.594 59.6149 115.609 59.6701 115.642 59.7165C115.674 59.763 115.722 59.7981 115.779 59.8163C115.792 59.8163 116.082 59.9146 116.591 60.0519L116.706 66.615C116.591 66.6137 116.477 66.6394 116.376 66.6896C116.223 66.7605 116.09 66.8632 115.987 66.9894C115.885 67.1156 115.815 67.262 115.784 67.4172C115.717 67.7864 115.883 68.1839 116.271 68.5995L116.074 72.535C115.651 72.7278 114.672 73.3745 114.756 75.2235C114.807 76.355 114.913 77.3436 114.99 78.0667C115.058 78.6961 115.111 79.1927 115.089 79.3791C115.089 79.4009 114.765 81.562 114.529 83.632C114.135 87.0454 114.293 87.3792 114.361 87.522C114.785 88.4233 115.975 89.4475 118.044 89.6212C121.42 89.9059 130.401 90.6862 131.409 90.8772C131.734 90.9391 132.918 91 134.5 91C137.921 91 143.196 90.7153 145.687 89.5448C146.438 89.6221 147.892 89.6621 149.593 89.6621C153.637 89.6621 159.045 89.4384 159.588 88.9718C160.559 88.1178 160.669 85.8512 160.174 85.0627ZM159.457 84.7635C158.734 84.9454 155.538 84.9908 153.412 85.019C152.447 85.0318 151.615 85.0427 151.157 85.0627C149.786 85.1227 146.451 85.2792 145.746 85.3119C145.725 85.2882 145.703 85.2619 145.68 85.2391C145.654 84.8471 145.422 83.5529 143.527 82.8598C142.732 82.5674 141.954 82.2384 141.195 81.8739C142.046 81.3282 143.062 80.0949 143.472 79.5692C143.595 79.6537 143.727 79.7251 143.867 79.782C144.201 79.9063 144.549 79.9948 144.905 80.0458L145.09 80.0785C144.812 80.2935 144.607 80.5776 144.498 80.8971C144.35 81.3791 144.475 81.8976 144.867 82.4369C145.545 83.3673 148.347 83.7593 151.245 83.7593C153.887 83.7593 156.603 83.4328 157.868 82.8917C157.915 82.9071 157.961 82.9199 157.997 82.929C159.331 83.25 159.46 84.3333 159.457 84.7635ZM118.574 84.2232C118.383 81.1772 121.942 76.6797 122.735 75.7183C122.974 75.8749 123.229 76.0087 123.497 76.1176C124.209 76.3904 124.535 76.8143 124.823 77.1863C124.976 77.4089 125.167 77.6076 125.388 77.7747C125.481 77.8366 125.573 77.8957 125.669 77.9566C126.128 78.2513 126.649 78.5869 127.683 79.5337C127.673 79.6947 127.494 80.3523 125.453 81.5183C123.289 82.7534 123.192 84.487 123.272 85.2537C122.177 85.0342 121.026 84.7838 119.82 84.5024L119.444 84.4115L118.574 84.2232ZM126.75 67.4208C126.691 67.3018 126.608 67.1947 126.504 67.1056C126.4 67.0165 126.279 66.9471 126.146 66.9015L126.282 61.2534C127.521 61.2153 128.753 61.0657 129.96 60.8068C130.028 60.7914 130.087 60.7523 130.125 60.6977C130.134 60.6849 130.257 60.5057 130.44 60.1847L130.696 66.775C130.443 66.8917 130.246 67.0912 130.144 67.3344C130.04 67.6127 130.095 67.9183 130.308 68.2439L130.348 71.9047C130.344 71.9062 130.34 71.908 130.336 71.9102C130.257 71.9423 130.181 71.981 130.11 72.0257C130.04 72.0711 129.974 72.1216 129.912 72.1767L129.881 72.2048C129.915 72.0838 129.898 71.9556 129.834 71.8454C129.77 71.7352 129.663 71.6512 129.535 71.61C129.265 71.5244 128.981 71.4823 128.696 71.4854C128.66 71.4527 128.625 71.419 128.589 71.389C128.523 71.3326 128.392 71.0707 128.294 70.8597C127.955 70.1721 127.377 69.0024 126.297 68.9497V68.5231C126.938 68.0638 126.828 67.6036 126.75 67.4208ZM117.256 66.7841L117.14 60.192C118.916 60.6413 122.022 61.2734 125.371 61.2734C125.493 61.2734 125.616 61.2734 125.74 61.2734L125.603 66.9333C121.117 68.1511 118.266 67.2298 117.251 66.7796L117.256 66.7841ZM135.857 73.9693C136.353 74.5567 136.964 75.0531 137.659 75.4327C137.276 75.7765 136.713 76.5578 136.035 78.3195L135.672 78.0412C135.703 78.0002 135.727 77.9551 135.742 77.9075C135.782 77.7802 135.765 77.6435 135.696 77.5274C135.627 77.4114 135.51 77.3253 135.372 77.2881C135.129 77.2263 134.875 77.2071 134.624 77.2317C134.426 77.0799 134.229 76.928 134.039 76.777C134.085 76.7234 134.119 76.6614 134.137 76.5951C134.172 76.4665 134.15 76.3306 134.076 76.217C134.002 76.1034 133.882 76.0216 133.743 75.9894C133.634 75.9651 133.524 75.9496 133.412 75.943C134.103 75.6401 135.097 75.1244 135.454 74.5414C135.574 74.3402 135.706 74.1461 135.852 73.9602L135.857 73.9693ZM133.134 82.2368C133.406 82.2403 133.676 82.1974 133.93 82.1104C135.579 81.5256 137.41 81.1709 138.852 81.1518C139.518 81.632 140.987 82.4014 142.583 83.0426C139.161 84.2605 131.418 83.9103 130.209 83.4228C129.845 83.2764 129.654 83.0472 129.625 82.7216C129.575 82.1686 129.999 81.5238 130.205 81.3118C131.17 81.8275 132.228 82.2368 133.134 82.2368ZM138.998 80.6097C138.87 80.4915 138.414 80.1404 137.578 79.501L137.169 79.1881L136.478 78.6588C137.335 76.3777 137.969 75.8175 138.164 75.691C138.38 75.7938 138.61 75.8939 138.855 75.9866C139.553 76.2467 139.879 76.6233 140.193 76.9871C140.508 77.3509 140.809 77.6992 141.411 77.9039C141.95 78.0858 142.33 78.4878 142.693 78.8743C142.811 78.998 142.932 79.1245 143.058 79.2436C142.383 80.1131 141.263 81.3591 140.63 81.6083C139.824 81.1827 139.224 80.8134 138.998 80.6051V80.6097ZM131.568 78.0267C131.469 77.9412 131.331 77.8348 131.167 77.7165C131.92 77.2536 132.815 76.847 133.416 76.9471L133.944 77.3591C133.223 77.5683 132.495 77.9812 131.903 78.3805C131.801 78.2535 131.689 78.1337 131.568 78.0221V78.0267ZM135.066 78.2468L135.098 78.2522L135.977 78.9271L136.544 79.3609C135.878 79.3846 135.202 79.5683 134.623 79.7302C134.13 79.8666 133.623 80.003 133.411 79.9476C133.142 79.8702 132.83 79.5392 132.543 79.1872C133.458 78.5724 134.477 78.084 135.066 78.2422V78.2468ZM132.311 76.0694C131.578 76.2749 130.84 76.6797 130.235 77.089C129.979 76.9252 129.717 76.7606 129.469 76.6078C130.128 76.1012 130.981 75.6164 131.745 75.6074C131.927 75.7538 132.117 75.9084 132.311 76.0648V76.0694ZM128.532 76.0457L128.397 75.9684C128.157 75.8338 128.037 75.6183 127.898 75.3681C127.864 75.3075 127.828 75.2439 127.788 75.1771C128.456 74.5914 129.278 74.073 130.029 74.0994C130.081 74.1539 130.137 74.2103 130.203 74.2731C130.269 74.3358 130.325 74.3868 130.39 74.4477L130.452 74.505C130.543 74.5887 130.643 74.6778 130.748 74.7697C129.917 75.0198 129.134 75.5355 128.532 76.0412V76.0457ZM129.564 72.5514V72.5459L129.578 72.5414L129.564 72.5514ZM128.874 72.4977C129.024 72.696 129.182 72.9188 129.353 73.1662C128.492 73.3545 127.693 73.8938 127.063 74.4395C126.938 74.3486 126.793 74.2522 126.617 74.1312L126.23 73.8665C126.988 73.1016 127.969 72.3995 128.87 72.4932L128.874 72.4977ZM126.073 69.4608C126.873 69.3644 127.329 70.1339 127.789 71.0707C127.869 71.2391 127.957 71.4037 128.055 71.5636C127.013 71.8001 126.065 72.5514 125.366 73.2635L125.011 73.0098C123.925 72.2276 122.663 72.2112 122.022 72.2667C122.491 70.7278 123.523 70.3567 124.915 69.8528C125.172 69.7619 125.438 69.6637 125.704 69.5572C125.82 69.5084 125.943 69.4745 126.069 69.4563L126.073 69.4608ZM121.831 72.7933C122.214 72.7378 123.572 72.6114 124.676 73.4045L125.01 73.6428C124.728 73.9578 124.466 74.2873 124.225 74.6296C124.168 74.684 124.124 74.7496 124.097 74.8216C124.07 74.8936 124.061 74.9702 124.071 75.0458C124.08 75.1214 124.108 75.1941 124.152 75.2586C124.195 75.3231 124.254 75.3777 124.324 75.4185C124.394 75.4594 124.472 75.4853 124.554 75.4946C124.636 75.5038 124.719 75.496 124.798 75.4719C124.876 75.4477 124.947 75.4077 125.007 75.3548C125.066 75.3019 125.112 75.2375 125.141 75.1662C125.363 74.8456 125.607 74.538 125.871 74.2449C126.029 74.354 126.167 74.4495 126.293 74.5341C126.442 74.636 126.566 74.716 126.676 74.797C126.357 75.1084 126.06 75.4387 125.788 75.7856C125.727 75.8374 125.679 75.9012 125.648 75.9723C125.617 76.0434 125.604 76.12 125.609 76.1965C125.615 76.2729 125.639 76.3472 125.68 76.4139C125.721 76.4806 125.777 76.5379 125.846 76.5817C125.914 76.6255 125.992 76.6546 126.074 76.6669C126.156 76.6792 126.24 76.6743 126.32 76.6526C126.399 76.6309 126.473 76.593 126.534 76.5416C126.596 76.4903 126.644 76.4268 126.676 76.3559C126.896 76.074 127.134 75.8048 127.39 75.55C127.399 75.5655 127.408 75.581 127.416 75.5964C127.569 75.8693 127.744 76.1876 128.116 76.3959L128.131 76.405C127.728 76.7897 127.461 77.1253 127.393 77.2781L127.381 77.3045C127.381 77.3118 127.381 77.3182 127.376 77.3254C127.359 77.3743 127.35 77.4251 127.349 77.4764C127.349 77.604 127.401 77.727 127.495 77.8212C127.588 77.9154 127.716 77.9739 127.854 77.9854C127.992 77.9967 128.13 77.9602 128.24 77.8828C128.35 77.8055 128.425 77.6929 128.449 77.5674C128.63 77.3449 128.832 77.1376 129.052 76.948C129.287 77.0917 129.537 77.2481 129.786 77.4027C129.472 77.6309 129.183 77.8875 128.924 78.1685C128.873 78.2256 128.835 78.2922 128.815 78.3638C128.794 78.4353 128.791 78.5102 128.805 78.5831C128.819 78.6561 128.85 78.7253 128.896 78.786C128.942 78.8468 129.001 78.8976 129.071 78.9349C129.14 78.9723 129.218 78.9952 129.298 79.0022C129.378 79.0092 129.458 79.0001 129.534 78.9755C129.61 78.9508 129.679 78.9113 129.736 78.8596C129.794 78.8079 129.838 78.7453 129.867 78.6761C130.125 78.4324 130.405 78.2097 130.704 78.0103C130.876 78.1256 131.04 78.2489 131.198 78.3796C131.299 78.4724 131.392 78.5718 131.478 78.677C131.13 78.9334 130.862 79.1581 130.721 79.2809C130.651 79.3211 130.592 79.3752 130.547 79.4392C130.503 79.5033 130.474 79.5757 130.464 79.6512C130.454 79.7266 130.462 79.8033 130.488 79.8755C130.514 79.9477 130.557 80.0137 130.614 80.0687C130.671 80.1236 130.74 80.1661 130.818 80.193C130.895 80.2199 130.978 80.2307 131.06 80.2244C131.142 80.2181 131.222 80.195 131.293 80.1567C131.364 80.1184 131.425 80.0659 131.472 80.003C131.669 79.8339 131.884 79.6583 132.119 79.4837C132.47 79.9157 132.839 80.3023 133.256 80.4178C133.35 80.4429 133.448 80.4551 133.546 80.4542C133.878 80.4542 134.292 80.3387 134.785 80.2013C135.557 79.9867 136.513 79.7229 137.288 79.9166C137.683 80.2195 138.023 80.4796 138.263 80.667C136.863 80.7579 135.255 81.099 133.74 81.6356C132.346 82.1322 129.54 80.5315 128.136 79.2372C127.024 78.2113 126.447 77.8411 125.983 77.5437C125.89 77.4837 125.802 77.4264 125.712 77.3618C125.539 77.2251 125.39 77.065 125.27 76.887C124.956 76.4823 124.566 75.9775 123.712 75.6492C122.774 75.2854 121.581 74.1503 121.176 73.7483C121.44 73.3727 121.668 73.0316 121.828 72.7888L121.831 72.7933ZM123.833 85.3674C123.734 84.858 123.609 83.1663 125.742 81.9494C127.321 81.0463 127.922 80.3687 128.13 79.9248C128.636 80.3353 129.175 80.7108 129.742 81.0481C129.553 81.2813 129.395 81.5348 129.272 81.803C128.861 82.7561 129.131 83.5311 129.994 83.8812C130.709 84.1695 132.906 84.3778 135.38 84.3778C138.281 84.3778 141.557 84.0895 143.272 83.3091L143.326 83.3291C144.729 83.8421 145.048 84.7125 145.119 85.1173C143.128 85.2628 141.557 85.4701 139.903 85.6902C138.25 85.9103 136.556 86.1359 134.16 86.3506C131.764 86.5652 128.292 86.2287 123.83 85.3628L123.833 85.3674ZM157.152 82.6206C154.138 83.5301 146.289 83.4892 145.322 82.1659C145.026 81.7557 144.927 81.3782 145.026 81.0444C145.157 80.6124 145.592 80.3441 145.776 80.2468C146.199 80.3763 146.605 80.5502 146.985 80.7652C147.562 81.0928 148.226 81.2669 148.904 81.2682C149.909 81.2682 150.796 80.8962 151.469 80.6142C151.937 80.4178 152.421 80.215 152.584 80.3168C152.691 80.4023 152.795 80.4815 152.887 80.5433C153.323 80.8271 155.743 82.0258 157.149 82.6161L157.152 82.6206ZM152.044 79.8548C151.77 79.9395 151.502 80.0397 151.242 80.1549C150.211 80.587 148.798 81.18 147.261 80.3368C146.819 80.0851 146.343 79.8861 145.846 79.7447H145.838C145.565 79.6703 145.288 79.6096 145.007 79.5628C144.69 79.5185 144.38 79.4407 144.082 79.3309C143.721 79.1872 143.424 78.8762 143.11 78.5451C142.716 78.1322 142.272 77.6638 141.604 77.4364C141.144 77.279 140.902 76.9998 140.618 76.676C140.276 76.2822 139.89 75.8356 139.058 75.5264C137.331 74.8834 136.476 73.9238 136.205 73.5682C136.716 73.0371 137.317 72.6169 137.771 72.6823C138.3 72.7615 138.943 72.9261 139.807 73.4609C139.519 73.7893 139.272 74.1465 139.071 74.5259C139.02 74.5858 138.984 74.6555 138.965 74.7299C138.947 74.8043 138.947 74.8815 138.966 74.9559C138.984 75.0302 139.02 75.0998 139.072 75.1596C139.123 75.2194 139.188 75.2678 139.263 75.3013C139.337 75.3348 139.418 75.3526 139.501 75.3533C139.584 75.354 139.666 75.3377 139.741 75.3054C139.816 75.2732 139.882 75.2259 139.934 75.1671C139.987 75.1082 140.024 75.0392 140.044 74.9652C140.213 74.6435 140.421 74.3412 140.667 74.0648C140.729 74.113 140.791 74.1612 140.855 74.214C141.085 74.3959 141.31 74.5696 141.53 74.7278C141.271 75.005 141.031 75.2962 140.811 75.6001C140.753 75.6534 140.709 75.7179 140.681 75.7889C140.654 75.8599 140.644 75.9356 140.652 76.0106C140.66 76.0856 140.686 76.1581 140.728 76.2227C140.77 76.2874 140.827 76.3426 140.895 76.3845C140.963 76.4265 141.04 76.454 141.121 76.4651C141.202 76.4762 141.284 76.4707 141.363 76.4489C141.441 76.4271 141.513 76.3896 141.574 76.3391C141.634 76.2886 141.682 76.2263 141.714 76.1567C141.923 75.8634 142.154 75.5833 142.404 75.3181C142.758 75.5401 143.072 75.7201 143.33 75.8638C143.066 76.1179 142.822 76.389 142.599 76.6751C142.537 76.7255 142.488 76.788 142.456 76.8581C142.423 76.9283 142.408 77.0042 142.412 77.0804C142.415 77.1566 142.437 77.2311 142.476 77.2985C142.514 77.3658 142.569 77.4244 142.635 77.4697C142.702 77.5151 142.779 77.5462 142.86 77.5608C142.941 77.5753 143.025 77.5729 143.105 77.5537C143.185 77.5346 143.259 77.4992 143.322 77.4501C143.386 77.4009 143.436 77.3394 143.47 77.27C143.693 76.983 143.94 76.7132 144.209 76.4632C144.372 76.6451 144.538 76.8661 144.673 77.0489L144.729 77.1235C144.482 77.3779 144.269 77.66 144.098 77.963C144.046 78.0227 144.01 78.0923 143.992 78.1666C143.973 78.2409 143.973 78.3181 143.991 78.3926C144.009 78.467 144.045 78.5367 144.096 78.5967C144.147 78.6567 144.212 78.7053 144.286 78.7391C144.36 78.7729 144.442 78.791 144.524 78.792C144.607 78.793 144.689 78.777 144.764 78.745C144.839 78.7131 144.906 78.6661 144.959 78.6074C145.011 78.5487 145.049 78.4799 145.07 78.4059C145.198 78.183 145.355 77.9753 145.537 77.7875C145.807 77.9421 146.129 78.1258 146.425 78.3077C146.271 78.4849 146.129 78.6712 146.001 78.8652C145.945 78.9204 145.903 78.9864 145.878 79.0584C145.853 79.1304 145.845 79.2067 145.856 79.2816C145.867 79.3566 145.896 79.4284 145.94 79.4918C145.985 79.5552 146.044 79.6087 146.114 79.6484C146.184 79.6881 146.263 79.713 146.344 79.7212C146.426 79.7295 146.508 79.721 146.586 79.6963C146.663 79.6715 146.734 79.6312 146.792 79.5783C146.851 79.5253 146.896 79.461 146.924 79.39C147.042 79.2087 147.176 79.0363 147.324 78.8743C147.41 78.9321 147.493 78.9947 147.571 79.0617C147.781 79.2554 148.511 79.8803 149.06 79.6893L149.158 79.6565C150.756 79.1035 151.105 79.1308 151.167 79.149C151.322 79.2272 151.66 79.5265 151.956 79.7911L152.044 79.8548ZM146.816 75.6656C146.188 75.9367 145.615 76.3039 145.12 76.7515C144.963 76.5334 144.794 76.3227 144.614 76.1203C145.234 75.6319 145.866 75.3181 146.351 75.2281C146.501 75.37 146.656 75.5164 146.812 75.661L146.816 75.6656ZM150.515 78.7252C149.992 78.8501 149.478 79.0041 148.975 79.1863L148.884 79.2172C148.776 79.2545 148.391 79.0926 147.966 78.7052C147.885 78.6343 147.8 78.568 147.71 78.5069C148.244 78.043 148.806 77.7647 149.132 77.682C149.628 78.0812 150.098 78.4359 150.511 78.7206L150.515 78.7252ZM146.802 77.9275C146.493 77.7456 146.18 77.5637 145.931 77.4173C146.432 76.9862 147.034 76.6178 147.516 76.4905C147.572 76.4753 147.628 76.4638 147.686 76.4559C147.872 76.6215 148.057 76.7831 148.241 76.9407C147.705 77.1925 147.217 77.5244 146.798 77.923L146.802 77.9275ZM143.744 75.5028C143.487 75.359 143.16 75.1744 142.786 74.9425C143.519 74.2613 144.317 73.7874 144.918 73.792C145.119 74.003 145.325 74.2152 145.537 74.4286C144.875 74.687 144.266 75.0489 143.738 75.4982L143.744 75.5028ZM141.902 74.3522C141.68 74.194 141.452 74.023 141.22 73.8347C141.155 73.782 141.093 73.7356 141.029 73.6855C141.784 72.9443 142.73 72.3413 143.396 72.1739C143.428 72.1666 143.451 72.1639 143.478 72.1585C143.676 72.404 143.892 72.6596 144.122 72.9225C143.334 73.1598 142.556 73.7137 141.896 74.3477L141.902 74.3522ZM140.051 69.2671C140.757 69.0779 141.693 69.7619 142.827 71.2981C141.959 71.5964 140.96 72.2749 140.164 73.0753C139.381 72.5841 138.652 72.3031 137.859 72.1858C137.267 72.0948 136.616 72.4795 136.057 72.9888C136.057 72.4795 136.254 71.6582 137.384 70.9934C138.061 70.602 138.709 70.1703 139.324 69.701C139.651 69.449 139.816 69.3217 140.045 69.2626L140.051 69.2671ZM138.868 67.0079C138.918 67.1234 138.883 67.2753 138.775 67.4554C138.466 67.5463 137.456 67.8392 136.552 67.9238C136.484 67.9313 136.421 67.9625 136.377 68.0109C136.333 68.0594 136.31 68.1216 136.314 68.1849C136.317 68.2481 136.347 68.3079 136.396 68.3519C136.445 68.396 136.511 68.4211 136.58 68.4222H136.608C137.317 68.342 138.017 68.202 138.699 68.0038L138.743 69.4927C138.215 69.8807 137.664 70.2412 137.093 70.5723C135.329 71.6091 135.477 73.0371 135.576 73.4827C135.353 73.7362 135.153 74.0057 134.977 74.2886C134.633 74.8515 133.311 75.4455 132.669 75.691L132.558 75.6001C132.652 75.5513 132.727 75.478 132.776 75.3895C132.824 75.301 132.842 75.2012 132.829 75.1029C132.816 75.0046 132.771 74.9123 132.7 74.8375C132.63 74.7628 132.536 74.7091 132.433 74.6833C132.091 74.5999 131.734 74.5813 131.384 74.6287C131.212 74.4823 131.057 74.3458 130.915 74.2176L130.891 72.0821L130.852 68.5604C131.168 68.6559 131.671 68.7496 132.444 68.7496C132.974 68.7463 133.504 68.7105 134.029 68.6423C134.099 68.6322 134.162 68.5972 134.204 68.5448C134.247 68.4924 134.265 68.4268 134.256 68.362C134.246 68.2971 134.21 68.2383 134.154 68.1981C134.098 68.1578 134.027 68.1393 133.957 68.1466C131.781 68.4194 130.948 68.0775 130.777 67.9911C130.65 67.7973 130.606 67.6318 130.655 67.499C130.713 67.3398 130.901 67.2334 131.009 67.188C131.927 67.2781 132.849 67.3233 133.771 67.3235C135.266 67.3235 137.066 67.1952 138.451 66.7077C138.587 66.7487 138.797 66.846 138.866 67.0033L138.868 67.0079ZM138.177 66.2803C135.837 67.0643 132.18 66.7987 131.235 66.7132L130.939 59.2179C131.044 58.995 131.137 58.7631 131.235 58.5376C132.602 58.7262 133.982 58.8268 135.364 58.8386C136.249 58.8483 137.133 58.7801 138.004 58.6349L138.177 66.2803ZM139.488 44.3909C139.502 44.7811 139.527 45.1968 139.556 45.6324C139.308 44.5592 139.119 43.5032 138.955 42.5273C139.142 42.4652 139.333 42.4178 139.528 42.3854C139.442 43.1494 139.455 43.5296 139.485 44.3828L139.488 44.3909ZM140.342 41.5787C140.354 41.61 140.358 41.6435 140.353 41.6764C140.347 41.7093 140.333 41.7404 140.312 41.767C140.292 41.7915 140.266 41.8113 140.236 41.8248C140.206 41.8382 140.173 41.8449 140.14 41.8443C140.05 41.8443 139.959 41.8443 139.868 41.8497C139.868 41.8497 139.86 41.8497 139.857 41.8497C139.521 41.8669 139.189 41.9257 138.87 42.0244C138.827 41.757 138.783 41.4887 138.739 41.2213C138.337 38.7401 137.917 36.1789 137.042 33.756C137.859 35.0029 138.573 36.892 139.532 39.445C139.781 40.1035 140.048 40.8147 140.339 41.5705L140.342 41.5787ZM146.064 17.9558C146.064 18.4917 145.949 19.0223 145.724 19.5166C145.5 20.0109 145.17 20.4589 144.756 20.8345C144.705 20.7681 144.649 20.7047 144.59 20.6444C144.573 20.628 144.556 20.6135 144.538 20.5971C144.49 20.55 144.439 20.5054 144.386 20.4634C144.357 20.4397 144.327 20.4188 144.296 20.3979C144.266 20.377 144.206 20.3351 144.16 20.3069C144.114 20.2787 144.092 20.266 144.061 20.2478C144.031 20.2296 143.963 20.1987 143.916 20.1769C143.87 20.1551 143.847 20.1451 143.812 20.1314C143.751 20.108 143.689 20.0877 143.625 20.0705C143.602 20.0632 143.578 20.0541 143.553 20.0477C143.467 20.0264 143.38 20.0109 143.292 20.0013C143.263 20.0013 143.234 20.0013 143.204 19.9959C143.16 19.9959 143.116 19.9877 143.072 19.9877C143.028 19.9877 143.008 19.9877 142.973 19.9877L142.865 19.9932H142.781H142.744H142.646H142.608H142.491H142.463H142.328H142.303H142.144H142.134H141.96H141.941H141.756H141.737H141.54H141.523H141.313H141.278H141.064H139.525C139.53 19.9786 139.535 19.9631 139.541 19.9486C139.595 19.8258 139.64 19.7012 139.685 19.5757C139.685 19.5648 139.692 19.553 139.695 19.542C139.734 19.4211 139.766 19.2992 139.794 19.1782C139.8 19.1546 139.806 19.13 139.811 19.1055C139.837 18.9781 139.857 18.8481 139.872 18.718C139.872 18.6907 139.872 18.6644 139.88 18.638C139.892 18.5025 139.9 18.3651 139.9 18.2278C139.9 18.075 139.892 17.9231 139.877 17.773C139.877 17.7239 139.861 17.6748 139.854 17.6257C139.84 17.5256 139.826 17.4265 139.806 17.3283C139.794 17.2701 139.776 17.2137 139.761 17.1564C139.74 17.0654 139.718 16.9808 139.69 16.8953C139.671 16.8353 139.647 16.7762 139.624 16.7134C139.595 16.6325 139.565 16.5516 139.526 16.4724C139.499 16.4124 139.469 16.3542 139.44 16.2905C139.402 16.215 139.365 16.1395 139.322 16.0659C139.289 16.0067 139.252 15.9495 139.217 15.8922C139.171 15.8212 139.126 15.7512 139.077 15.6821C139.027 15.6129 138.995 15.5702 138.951 15.5147C138.908 15.4592 138.846 15.3828 138.791 15.3192C138.735 15.2555 138.692 15.2127 138.647 15.1609C138.618 15.1309 138.592 15.0991 138.563 15.0699C139.174 14.5017 139.955 14.1137 140.806 13.9551C141.657 13.7965 142.54 13.8744 143.343 14.1791C144.146 14.4837 144.833 15.0013 145.317 15.6662C145.801 16.3311 146.059 17.1134 146.06 17.914L146.064 17.9558ZM137.995 15.2855C138.426 15.6707 138.769 16.1321 139.002 16.642C139.235 17.1519 139.354 17.6999 139.352 18.2533C139.351 18.411 139.342 18.5686 139.322 18.7253C139.322 18.7307 139.322 18.7362 139.322 18.7408C139.303 18.8912 139.275 19.0406 139.237 19.1882L139.232 19.2164C139.194 19.3601 139.148 19.5018 139.094 19.6412C139.089 19.653 139.086 19.6657 139.081 19.6776C139.026 19.8151 138.963 19.9499 138.892 20.0814C138.884 20.095 138.878 20.1096 138.87 20.1232L138.865 20.1332C138.859 20.1405 138.855 20.1481 138.851 20.156C138.846 20.163 138.842 20.1703 138.839 20.1778C138.689 20.4459 138.506 20.6973 138.293 20.9272C137.711 21.5656 136.933 22.0274 136.062 22.2522C135.19 22.4771 134.266 22.4547 133.408 22.1878C132.551 21.921 131.801 21.4222 131.255 20.7564C130.71 20.0906 130.395 19.2888 130.351 18.4554C130.308 17.6221 130.537 16.796 131.01 16.0848C131.483 15.3736 132.178 14.8103 133.003 14.4684C133.829 14.1265 134.747 14.0218 135.637 14.1681C136.528 14.3143 137.351 14.7047 137.997 15.2882L137.995 15.2855ZM125.312 24.6035C125.016 24.2897 124.918 23.7622 125.023 23.0364C125.107 22.4288 125.327 22.0423 125.676 21.8877C126.3 21.6148 127.191 22.1032 127.2 22.1087C127.261 22.1415 127.334 22.1508 127.402 22.1348C127.471 22.1187 127.53 22.0786 127.567 22.0229C127.604 21.9672 127.616 21.9003 127.6 21.8367C127.584 21.773 127.542 21.7175 127.483 21.6821C127.142 21.4979 126.766 21.3744 126.376 21.3183C125.929 18.396 124.185 7.24447 123.079 3.77285L124.541 4.88973C124.579 4.91882 124.626 4.93767 124.675 4.94421C124.724 4.95075 124.774 4.94474 124.82 4.92682C124.865 4.9089 124.905 4.87978 124.934 4.84261C124.963 4.80544 124.98 4.76165 124.984 4.71602L125.15 2.77238L126.619 4.09936C126.655 4.13148 126.7 4.15381 126.749 4.16392C126.798 4.17404 126.849 4.17153 126.896 4.15667C126.944 4.14182 126.986 4.1152 127.018 4.07973C127.05 4.04427 127.071 4.00134 127.078 3.95566L127.387 1.96018L128.639 3.47998C128.668 3.51479 128.706 3.54199 128.75 3.55888C128.794 3.57577 128.842 3.58176 128.889 3.57624C128.936 3.57071 128.981 3.55388 129.019 3.52742C129.057 3.50095 129.087 3.46578 129.105 3.42541L130.042 1.35808L131.242 2.88425C131.271 2.92046 131.309 2.94894 131.354 2.96673C131.398 2.98452 131.447 2.99097 131.495 2.98539C131.544 2.97982 131.589 2.96243 131.628 2.93504C131.666 2.90765 131.696 2.87127 131.714 2.82968L132.503 1.01064L133.716 2.39766C133.744 2.42984 133.781 2.45502 133.822 2.4709C133.863 2.48679 133.908 2.49288 133.953 2.48861C133.998 2.48454 134.041 2.47037 134.078 2.44737C134.115 2.42437 134.146 2.39323 134.167 2.35673L135.101 0.725054L136.451 2.52954C136.478 2.56675 136.516 2.59636 136.56 2.61513C136.604 2.63389 136.653 2.6411 136.701 2.63595C136.75 2.63157 136.796 2.61522 136.835 2.58865C136.874 2.56207 136.904 2.52625 136.923 2.48497L137.682 0.831472L138.619 2.50225C138.64 2.54004 138.672 2.57222 138.71 2.59572C138.749 2.61922 138.793 2.63328 138.839 2.63655C138.885 2.63983 138.931 2.63222 138.973 2.61445C139.015 2.59668 139.051 2.56932 139.079 2.53499L140.31 0.976082L141.18 2.73145C141.199 2.7702 141.228 2.80382 141.266 2.82913C141.303 2.85443 141.346 2.87058 141.392 2.87606C141.438 2.88179 141.484 2.87642 141.527 2.86047C141.57 2.84452 141.608 2.81855 141.637 2.78511L143.046 1.19891L143.406 12.386C143.408 12.4313 143.423 12.4754 143.449 12.5135C143.476 12.5517 143.513 12.5824 143.557 12.6024C143.869 12.7592 144.124 12.9962 144.292 13.2845C144.46 13.5727 144.533 13.8999 144.503 14.2259C143.552 13.6081 142.393 13.3223 141.234 13.4198C140.075 13.5173 138.992 13.9916 138.177 14.758C137.261 14.0095 136.079 13.5968 134.855 13.5983C134.007 13.5982 133.173 13.7951 132.43 14.1707C131.686 14.5464 131.058 15.0887 130.602 15.7476C130.146 16.4064 129.877 17.1606 129.821 17.9404C129.765 18.7202 129.923 19.5005 130.28 20.2092C130.638 20.9179 131.183 21.5321 131.866 21.9951C132.549 22.4581 133.347 22.755 134.187 22.8583C135.027 22.9616 135.882 22.8679 136.673 22.5861C137.464 22.3042 138.164 21.8432 138.711 21.2456C138.919 21.0201 139.102 20.7764 139.258 20.518C141.31 20.538 142.426 20.5079 143.001 20.4788C143.494 20.4552 144.023 20.7235 144.332 21.1391C144.376 21.197 144.415 21.2578 144.449 21.3211C144.571 21.5512 144.787 22.1396 144.133 22.6135L144.107 22.6353C143.698 22.9236 142.837 23.2465 141.076 23.2101H141.069C141.034 23.2097 140.998 23.2158 140.965 23.2279C140.932 23.2401 140.902 23.2582 140.877 23.2811C140.851 23.304 140.831 23.3314 140.817 23.3616C140.803 23.3918 140.795 23.4242 140.795 23.457C140.794 23.4899 140.801 23.5225 140.814 23.553C140.827 23.5835 140.847 23.6113 140.872 23.6348C140.897 23.6584 140.926 23.6771 140.959 23.6901C140.992 23.703 141.027 23.7099 141.062 23.7104H141.363C142.494 23.7104 143.382 23.5594 144.02 23.2629C144.08 24.4289 144.71 25.9005 145.122 26.7445C145.163 26.8304 145.171 26.9265 145.145 27.0172C145.119 27.1079 145.06 27.1878 144.979 27.2438C143.019 28.5872 139 29.7514 130.993 27.6695C130.518 27.5458 130.445 27.5267 130.325 27.6577C130.291 27.695 130.269 27.7406 130.262 27.789C130.256 27.8374 130.264 27.8865 130.287 27.9305C130.309 27.9727 130.344 28.0084 130.386 28.0335C130.429 28.0586 130.479 28.0721 130.53 28.0724C130.586 28.0851 130.713 28.1179 130.847 28.1524C133.204 28.7654 135.227 29.1001 136.963 29.2338C136.514 30.0088 135.863 30.0724 135.286 30.127C135.091 30.1362 134.898 30.1667 134.712 30.2179C134.06 30.439 134.039 31.9015 134.069 32.63C133.898 32.7582 133.546 32.7791 133.345 32.791C131.939 32.8819 130.732 32.8146 129.652 32.5909C128.871 32.429 127.876 32.1716 127.07 31.6177C126.794 31.4317 126.556 31.2016 126.368 30.9383C127.071 25.0201 126.845 24.9946 126.534 24.9628C126.504 24.9628 126.461 24.9582 126.405 24.9573C126.158 24.9637 125.643 24.9537 125.316 24.6035H125.312ZM120.442 36.3172C121.416 34.328 123.195 30.6918 125.577 30.2989C125.587 30.3951 125.602 30.4907 125.623 30.5854C125.664 30.7685 125.734 30.9449 125.832 31.1084C125.832 31.1165 125.84 31.1247 125.845 31.1329C126.077 31.486 126.385 31.7917 126.75 32.0315C127.638 32.6427 128.703 32.9192 129.536 33.0929C130.669 33.3267 131.928 33.3958 133.384 33.303C133.69 33.2857 134.251 33.2512 134.541 32.9137C134.546 32.9093 134.551 32.9045 134.555 32.8992L134.563 32.8919C134.666 32.765 134.724 32.612 134.73 32.4535C134.737 32.262 134.722 32.0703 134.687 31.8814C135.006 31.9689 135.306 32.1065 135.575 32.288C135.688 32.3611 135.788 32.4505 135.871 32.5527C135.874 32.5582 135.878 32.5634 135.882 32.5681C135.988 32.7134 136.083 32.8653 136.166 33.0229C136.169 33.0313 136.174 33.0396 136.178 33.0475C136.271 33.2272 136.353 33.4115 136.423 33.5995C137.361 36.0698 137.791 38.7219 138.208 41.2868C138.267 41.6506 138.325 42.0144 138.386 42.3782C138.386 42.3827 138.386 42.3873 138.386 42.3918C138.674 44.1199 139.035 46.1272 139.66 48.0472C139.66 48.0472 139.66 48.0545 139.665 48.059C139.667 48.0702 139.671 48.0811 139.675 48.0918C139.808 48.5019 139.942 48.8812 140.085 49.2441C140.141 49.3915 140.205 49.5597 140.162 49.6643C140.088 49.8362 139.726 49.8644 139.516 49.8662C138.732 49.8733 137.95 49.8173 137.177 49.6989C136.307 49.5679 135.432 49.3551 134.585 49.1532C133.473 48.8803 132.322 48.6011 131.147 48.4965C130.573 48.4476 129.995 48.4361 129.418 48.4619H129.408C129.403 48.4619 129.399 48.4619 129.394 48.4619C128.315 48.5188 127.242 48.6643 126.19 48.8967C126.037 47.1841 126.211 45.3405 126.35 44.2682C128.014 43.9635 128.019 43.6051 128.019 43.4669V43.4596C128.024 42.8651 127.976 42.2713 127.874 41.6842C127.862 41.6187 127.823 41.5603 127.764 41.5217C127.705 41.4832 127.633 41.4677 127.562 41.4787C127.491 41.4896 127.427 41.5262 127.385 41.5802C127.343 41.6343 127.327 41.7015 127.339 41.767C127.408 42.1734 127.452 42.583 127.472 42.9939C127.091 42.8861 126.699 42.8127 126.303 42.7747H126.272C125.296 42.6695 124.313 42.6194 123.33 42.6246C122.509 42.6246 121.698 42.6565 120.98 42.7156C120.976 42.7152 120.973 42.7152 120.969 42.7156H120.956C120.047 42.792 119.498 42.8975 119.163 43.003C119.012 40.6492 119.455 38.3463 120.446 36.3172H120.442ZM125.788 50.0599C124.308 50.6193 122.915 51.0368 121.929 51.3069C121.815 50.9705 121.725 50.6274 121.66 50.2801C121.275 48.361 121.218 45.596 121.218 44.1181C121.218 44.0271 121.218 43.9425 121.218 43.8616C121.218 43.8389 121.218 43.8161 121.218 43.7943C121.218 43.7206 121.218 43.6497 121.218 43.5851V43.5751C121.218 43.5014 121.218 43.4341 121.218 43.3732V43.3523C121.218 43.2922 121.218 43.2377 121.218 43.1913C121.865 43.144 122.581 43.1185 123.305 43.1185C124.184 43.1151 125.062 43.1552 125.936 43.2386C125.93 43.2722 125.924 43.3104 125.918 43.3495C125.918 43.3659 125.913 43.3795 125.91 43.3968C125.91 43.4287 125.899 43.4641 125.894 43.4987C125.889 43.5333 125.886 43.5514 125.882 43.5806C125.878 43.6097 125.871 43.6524 125.865 43.6888C125.859 43.7252 125.855 43.7543 125.85 43.7907C125.839 43.8634 125.828 43.9416 125.817 44.0235C125.666 45.1358 125.443 47.2923 125.66 49.2277C125.66 49.2277 125.66 49.2341 125.66 49.2378C125.673 49.3669 125.69 49.4897 125.707 49.6106L125.719 49.6916C125.738 49.8117 125.756 49.9299 125.778 50.0436L125.788 50.0599ZM116.766 47.6043C116.922 46.7566 117.16 45.9062 117.391 45.0831L117.409 45.0176C117.738 43.8434 118.142 42.4709 118.61 41.0967C118.551 41.8722 118.553 42.6507 118.617 43.4259V43.4641C118.617 43.8361 119.308 44.1272 120.675 44.3309C120.681 45.8052 120.747 48.2882 121.083 50.1382C119.84 50.4247 118.264 50.7303 116.659 50.7366H116.538C116.502 49.6886 116.58 48.6399 116.769 47.6061L116.766 47.6043ZM116.894 51.2305C118.46 51.1978 119.975 50.9085 121.183 50.6302C121.242 50.9067 121.317 51.18 121.409 51.4488C120.293 51.738 119.565 51.8835 119.557 51.8844C119.492 51.8973 119.434 51.932 119.394 51.982C119.355 52.032 119.337 52.0937 119.344 52.1552C119.351 52.2166 119.382 52.2735 119.432 52.3149C119.482 52.3563 119.546 52.3792 119.614 52.3792C119.633 52.3792 119.652 52.3774 119.671 52.3738C119.68 52.3738 120.544 52.2 121.834 51.8572C123.315 51.4608 124.772 50.9905 126.197 50.4483C126.544 50.3155 126.894 50.1755 127.267 50.0172C128.697 49.4106 129.285 49.0813 129.479 48.9631C130.015 48.9398 130.551 48.9507 131.085 48.9958C132.217 49.0968 133.345 49.3723 134.439 49.6379C135.297 49.848 136.185 50.0636 137.081 50.1991C137.797 50.3076 138.52 50.3648 139.245 50.3701L139.423 57.6544C139.017 57.8963 137.089 58.7758 131.426 58.0528C131.65 57.4516 131.837 56.8388 131.983 56.2174C132.286 54.9168 133.127 53.8399 134.293 53.2614C134.708 53.0536 135.151 52.8988 135.611 52.8012C135.681 52.786 135.742 52.7458 135.78 52.6893C135.818 52.6329 135.83 52.5648 135.813 52.5002C135.797 52.4355 135.753 52.3796 135.692 52.3446C135.631 52.3096 135.557 52.2985 135.487 52.3137C134.98 52.4222 134.492 52.5932 134.035 52.8221C132.731 53.4697 131.789 54.6685 131.452 56.1128C131.289 56.8119 131.073 57.4999 130.808 58.1719C130.686 58.473 130.554 58.7749 130.413 59.0696C130.207 59.5062 129.973 59.9314 129.713 60.3429C128.493 60.5961 127.249 60.736 125.999 60.7604C122.269 60.8514 118.749 60.0928 116.963 59.6235H116.948L116.927 59.6181C116.582 59.5271 116.317 59.4507 116.151 59.4016L116.894 51.2305ZM116.314 67.4872C116.333 67.4089 116.371 67.3356 116.425 67.2727C116.48 67.2097 116.548 67.1587 116.626 67.1234C116.653 67.1118 116.683 67.1064 116.713 67.1077C116.742 67.109 116.771 67.1169 116.797 67.1307C117.645 67.5499 120.805 68.8005 125.91 67.359C125.987 67.3782 126.059 67.4139 126.118 67.4634C126.177 67.5129 126.223 67.5747 126.252 67.6436C126.322 67.8628 126.034 68.0775 125.857 68.1893C125.82 68.2121 125.789 68.2431 125.768 68.2794C125.747 68.3158 125.736 68.3564 125.736 68.3976V69.017C125.65 69.0388 125.567 69.0659 125.485 69.0979C125.221 69.2025 124.96 69.2962 124.708 69.3872C123.192 69.9329 121.881 70.4067 121.399 72.4741C121.14 72.8706 120.863 73.2735 120.584 73.6637C120.582 73.6679 120.579 73.6718 120.575 73.6755C119.511 75.1653 118.405 76.4678 118.033 76.495C117.979 76.4991 117.925 76.4991 117.87 76.495C117.857 76.495 117.841 76.4896 117.827 76.4887C117.782 76.4832 117.737 76.4769 117.689 76.4669C117.667 76.4669 117.645 76.4541 117.622 76.4487C117.579 76.4377 117.538 76.4277 117.495 76.4132C117.467 76.4041 117.438 76.3923 117.41 76.3813C117.381 76.3704 117.331 76.3522 117.29 76.335C117.25 76.3177 117.228 76.3049 117.192 76.2895C117.155 76.274 117.116 76.2522 117.077 76.2313C117.039 76.2104 117.013 76.1922 116.979 76.1722C116.944 76.1521 116.906 76.1267 116.869 76.1021C116.833 76.0776 116.806 76.0548 116.77 76.0312C116.735 76.0075 116.699 75.9766 116.665 75.9475C116.63 75.9184 116.605 75.8929 116.576 75.8656C116.548 75.8384 116.531 75.8211 116.508 75.7993L116.587 72.7069L116.801 68.5231C116.803 68.4899 116.797 68.4568 116.785 68.4255C116.772 68.3943 116.753 68.3657 116.729 68.3412C116.423 68.0083 116.275 67.7182 116.318 67.489L116.314 67.4872ZM115.525 78.0048C115.449 77.2881 115.344 76.3068 115.293 75.1908C115.265 74.5741 115.364 74.123 115.513 73.7929C115.513 73.7995 115.513 73.8062 115.513 73.8129C115.505 73.8529 115.497 73.8966 115.49 73.9402C115.49 73.9584 115.483 73.9757 115.48 73.9948C115.469 74.0603 115.458 74.1276 115.449 74.1994C115.401 74.5281 115.43 74.8622 115.532 75.1801C115.634 75.4981 115.807 75.7927 116.04 76.0448C116.106 76.1175 116.176 76.187 116.25 76.2531C116.287 76.2868 116.327 76.3168 116.365 76.3441C116.404 76.3713 116.438 76.4059 116.477 76.435C116.53 76.475 116.586 76.5105 116.641 76.546C116.667 76.5623 116.692 76.5805 116.717 76.596C116.779 76.6342 116.843 76.6678 116.909 76.7015C116.928 76.7115 116.948 76.7233 116.969 76.7324C117.034 76.7652 117.101 76.7924 117.166 76.8234L117.226 76.8479C117.289 76.8707 117.353 76.8898 117.417 76.908L117.492 76.9289C117.549 76.9434 117.605 76.9534 117.661 76.9625C117.694 76.968 117.726 76.9734 117.76 76.9771C117.793 76.9807 117.854 76.9853 117.9 76.9871C117.923 76.9871 117.946 76.9925 117.969 76.9925C117.992 76.9925 118.042 76.9925 118.079 76.9925C118.598 76.9543 119.46 76.0239 120.249 75.0107C120.462 74.7379 120.669 74.4595 120.863 74.1921C121.31 74.6333 121.789 75.0454 122.297 75.4254C121.462 76.4259 117.937 80.8662 118.02 84.1059C116.885 83.8549 115.599 83.5729 115.082 83.4601C115.314 81.471 115.611 79.4582 115.614 79.441C115.652 79.1908 115.602 78.7197 115.525 78.0067V78.0048ZM131.505 90.3743C130.262 90.1378 118.204 89.12 118.082 89.11C116.249 88.9554 115.209 88.0786 114.846 87.3101C114.808 87.2273 114.715 86.7416 115.024 83.9531C115.852 84.135 118.181 84.6452 119.308 84.8999L119.68 84.9854C121.025 85.2982 122.301 85.5729 123.507 85.8094C123.523 85.8147 123.54 85.818 123.557 85.8194C127.25 86.5425 130.282 86.9063 132.618 86.9063C133.19 86.9063 133.722 86.8844 134.21 86.8408C136.619 86.6252 138.404 86.386 139.978 86.1777C141.661 85.954 143.256 85.743 145.296 85.5984C145.334 85.6375 145.372 85.6739 145.41 85.7175C146.324 86.8008 145.932 88.4861 145.825 88.8745C145.726 88.9327 145.628 88.9891 145.518 89.0436L145.497 89.0536C142.093 90.7199 132.484 90.5616 131.507 90.377L131.505 90.3743ZM159.217 88.5843C158.544 88.9963 149.796 89.3065 146.326 89.0818C146.385 88.8936 146.9 87.1518 146.102 85.793C147.201 85.7412 149.964 85.6111 151.182 85.5593C151.63 85.5393 152.458 85.5284 153.418 85.5156C156.414 85.4765 158.95 85.4247 159.633 85.23C159.663 85.2437 159.793 85.381 159.866 85.8139C160.026 86.7489 159.797 88.0868 159.219 88.5871L159.217 88.5843Z" fill="#1D1D1B"/>
<path d="M133.886 18.9463C134.302 18.9463 134.638 18.636 134.638 18.2532C134.638 17.8705 134.302 17.5602 133.886 17.5602C133.471 17.5602 133.135 17.8705 133.135 18.2532C133.135 18.636 133.471 18.9463 133.886 18.9463Z" fill="#1D1D1B"/>
<path d="M142.058 16.6605C141.909 16.6603 141.763 16.7009 141.639 16.777C141.515 16.8532 141.419 16.9615 141.362 17.0883C141.304 17.2151 141.289 17.3546 141.318 17.4893C141.347 17.624 141.419 17.7477 141.524 17.8449C141.629 17.942 141.763 18.0082 141.909 18.035C142.055 18.0619 142.207 18.0482 142.344 17.9957C142.482 17.9432 142.6 17.8543 142.682 17.7401C142.765 17.626 142.809 17.4918 142.809 17.3545C142.809 17.1707 142.73 16.9944 142.589 16.8644C142.448 16.7343 142.257 16.661 142.058 16.6605Z" fill="#1D1D1B"/>
<path d="M126.355 23.1337C126.415 23.1394 126.473 23.1522 126.53 23.1719C126.66 23.2321 126.772 23.3208 126.857 23.4302C126.909 23.3486 126.935 23.2547 126.931 23.16C126.926 23.0653 126.893 22.9737 126.833 22.8963C126.768 22.8129 126.682 22.7448 126.582 22.6974C126.483 22.65 126.373 22.6247 126.261 22.6235C126.157 22.6207 126.053 22.6372 125.955 22.6718C125.858 22.7065 125.768 22.7587 125.693 22.8254C125.553 22.9459 125.47 23.1119 125.46 23.2883C125.636 23.2392 125.771 23.1919 125.894 23.1637C125.855 23.2288 125.829 23.2995 125.816 23.3729C125.8 23.4907 125.82 23.6103 125.876 23.7176C125.931 23.8204 126.047 23.9559 126.211 23.9441C126.223 23.846 126.252 23.7505 126.298 23.6612C126.324 23.5882 126.343 23.513 126.354 23.4366C126.364 23.3596 126.366 23.282 126.361 23.2046L126.355 23.1337Z" fill="#1D1D1B"/>
<path d="M1.42447 56.1227C0.474824 55.1525 0 53.7579 0 51.9389V50.6583H3.61247V52.1954C3.61247 53.6506 4.27243 54.3764 5.59233 54.3728C6.24012 54.3728 6.73335 54.1966 7.07204 53.8443C7.41073 53.492 7.57843 52.9212 7.57515 52.1317C7.57515 51.1925 7.34497 50.3651 6.88461 49.6496C6.42426 48.9342 5.56734 48.0747 4.31386 47.0712C2.73944 45.7906 1.63952 44.6324 1.0141 43.5968C0.388671 42.5612 0.0762873 41.3921 0.076945 40.0897C0.076945 38.318 0.562948 36.9461 1.53496 35.9742C2.50696 35.0022 3.92091 34.5171 5.7768 34.5189C7.60573 34.5189 8.98942 35.004 9.92789 35.9742C10.8664 36.9443 11.3353 38.3374 11.3346 40.1534V41.082H7.71128V39.9296C7.71128 39.1608 7.54917 38.6002 7.22495 38.2479C6.90072 37.8957 6.42623 37.7195 5.80146 37.7195C4.52694 37.7195 3.89 38.4347 3.89066 39.8651C3.88815 40.6701 4.13526 41.459 4.6029 42.1389C5.07706 42.8465 5.93891 43.7017 7.18845 44.7046C8.78654 45.9864 9.88646 47.15 10.4882 48.1953C11.09 49.2407 11.3912 50.4685 11.3918 51.8789C11.3918 53.7155 10.8986 55.1246 9.9121 56.1063C8.92563 57.088 7.49557 57.5791 5.62192 57.5797C3.77261 57.5797 2.37346 57.094 1.42447 56.1227Z" fill="white"/>
<path d="M13.5823 34.8411H18.3756L22.0926 48.2601H22.1617V34.8411H25.566V57.2597H21.6408L17.0537 40.8939H16.9846V57.2597H13.5823V34.8411Z" fill="white"/>
<path d="M28.4138 34.8411H38.8349V38.0435H32.2344V43.9681H37.4795V47.1714H32.2344V54.0564H38.8349V57.2597H28.4138V34.8411Z" fill="white"/>
<path d="M43.9751 34.8411H49.1501L53.1108 57.2597H49.2892L48.5987 52.8031V52.8677H44.2582L43.5627 57.2552H40.0154L43.9751 34.8411ZM48.1429 49.829L46.4413 38.7483H46.3712L44.7041 49.829H48.1429Z" fill="white"/>
<path d="M54.9509 34.8411H58.7725V44.2891L63.6349 34.8411H67.4565L62.9059 43.0722L67.5255 57.2606H63.5313L60.3006 47.2678L58.7725 50.1182V57.2606H54.9509V34.8411Z" fill="white"/>
<path d="M69.3367 34.8411H79.7568V38.0435H73.1573V43.9681H78.4024V47.1714H73.1573V54.0564H79.7568V57.2597H69.3367V34.8411Z" fill="white"/>
<path d="M81.9409 34.8411H87.6023C89.57 34.8411 91.0056 35.2628 91.9092 36.1062C92.8129 36.9496 93.2647 38.2466 93.2647 39.9971V41.3741C93.2647 43.7013 92.4311 45.1747 90.7639 45.7944V45.858C91.6893 46.1145 92.3433 46.6375 92.726 47.4269C93.1088 48.2164 93.2999 49.2733 93.2992 50.5975V54.5375C93.2932 55.0558 93.3162 55.574 93.3682 56.0901C93.4169 56.4944 93.5345 56.8891 93.7165 57.2597H89.8258C89.6951 56.9278 89.6019 56.5843 89.5476 56.2347C89.4896 55.6603 89.4666 55.0834 89.4786 54.5066V50.4038C89.4786 49.3791 89.299 48.6639 88.94 48.2582C88.5809 47.8526 87.9614 47.6498 87.0814 47.6498H85.7615V57.2579H81.9409V34.8411ZM87.1505 44.4492C87.9153 44.4492 88.4885 44.2673 88.8699 43.9035C89.2514 43.5397 89.4424 42.9312 89.4431 42.0781V40.35C89.4431 39.5393 89.2869 38.9524 88.9745 38.5892C88.6621 38.226 88.1689 38.0441 87.4948 38.0435H85.7615V44.4492H87.1505Z" fill="white"/>
<path d="M96.7033 56.1227C95.753 55.1525 95.2782 53.7579 95.2788 51.9389V50.6583H98.8913V52.1954C98.8913 53.6506 99.5512 54.3764 100.871 54.3728C101.52 54.3728 102.013 54.1966 102.351 53.8443C102.689 53.492 102.857 52.9212 102.854 52.1317C102.854 51.1925 102.624 50.3651 102.163 49.6496C101.703 48.9342 100.846 48.0747 99.5927 47.0712C98.0182 45.7906 96.9183 44.6324 96.2929 43.5968C95.6675 42.5612 95.3551 41.3921 95.3558 40.0897C95.3558 38.318 95.8418 36.9461 96.8138 35.9742C97.7858 35.0022 99.1997 34.5171 101.056 34.5189C102.885 34.5189 104.268 35.004 105.207 35.9742C106.145 36.9443 106.614 38.3374 106.613 40.1534V41.082H103.001V39.9296C103.001 39.1608 102.839 38.6002 102.515 38.2479C102.19 37.8957 101.716 37.7195 101.091 37.7195C99.8166 37.7195 99.1797 38.4347 99.1803 39.8651C99.1778 40.6701 99.4249 41.459 99.8926 42.1389C100.367 42.844 101.229 43.6981 102.48 44.701C104.078 45.9828 105.178 47.1464 105.78 48.1917C106.382 49.237 106.683 50.4649 106.683 51.8752C106.683 53.7118 106.19 55.121 105.204 56.1027C104.217 57.0843 102.784 57.5767 100.904 57.5797C99.0524 57.5797 97.6523 57.094 96.7033 56.1227Z" fill="white"/>
<path d="M150.668 56.1227C149.719 55.1525 149.245 53.7579 149.245 51.9389V50.6583H152.857V52.1954C152.857 53.6506 153.517 54.3764 154.837 54.3728C155.485 54.3728 155.979 54.1966 156.317 53.8443C156.655 53.492 156.823 52.9212 156.821 52.1317C156.821 51.1925 156.591 50.3651 156.13 49.6496C155.67 48.9342 154.813 48.0747 153.559 47.0712C151.981 45.7906 150.881 44.6325 150.26 43.5968C149.638 42.5612 149.326 41.3921 149.322 40.0897C149.322 38.318 149.808 36.9461 150.781 35.9742C151.753 35.0022 153.167 34.5171 155.022 34.5189C156.851 34.5189 158.235 35.004 159.173 35.9742C160.112 36.9443 160.581 38.3374 160.58 40.1534V41.082H156.968V39.9296C156.968 39.1608 156.806 38.6002 156.481 38.2479C156.157 37.8957 155.682 37.7195 155.057 37.7195C153.784 37.7195 153.147 38.4347 153.146 39.8651C153.144 40.67 153.391 41.4588 153.858 42.1389C154.333 42.844 155.195 43.6981 156.447 44.701C158.044 45.9828 159.144 47.1464 159.747 48.1917C160.35 49.237 160.651 50.4649 160.649 51.8752C160.649 53.7119 160.156 55.121 159.17 56.1027C158.183 57.0843 156.753 57.5755 154.879 57.5761C153.022 57.5785 151.618 57.094 150.668 56.1227Z" fill="white"/>
<path d="M165.814 38.0435H161.819V34.8411H173.629V38.0435H169.634V57.2597H165.814V38.0435Z" fill="white"/>
<path d="M176.547 56.1063C175.551 55.124 175.053 53.7361 175.053 51.9425V40.157C175.053 38.3635 175.551 36.9758 176.547 35.9942C177.542 35.0125 178.978 34.5214 180.855 34.5208C182.73 34.5208 184.166 35.0119 185.162 35.9942C186.157 36.9764 186.655 38.3641 186.655 40.157V51.9425C186.655 53.7361 186.157 55.124 185.162 56.1063C184.166 57.0886 182.73 57.5797 180.855 57.5797C178.978 57.5797 177.542 57.0886 176.547 56.1063ZM182.835 52.1672V39.9333C182.835 38.4599 182.175 37.7232 180.855 37.7232C179.535 37.7232 178.875 38.4599 178.875 39.9333V52.1672C178.875 53.6406 179.535 54.377 180.855 54.3764C182.175 54.3758 182.835 53.6394 182.835 52.1672Z" fill="white"/>
<path d="M189.226 34.8411H194.887C196.856 34.8411 198.292 35.2628 199.195 36.1062C200.099 36.9496 200.55 38.2466 200.55 39.9971V41.3741C200.55 43.7013 199.716 45.1747 198.048 45.7944V45.858C198.975 46.1145 199.629 46.6375 200.011 47.4269C200.393 48.2164 200.584 49.2733 200.584 50.5975V54.5375C200.578 55.0558 200.601 55.574 200.653 56.0901C200.702 56.4944 200.819 56.8891 201.001 57.2597H197.111C196.98 56.9278 196.887 56.5843 196.833 56.2347C196.775 55.6603 196.751 55.0834 196.763 54.5066V50.4038C196.763 49.3791 196.584 48.6639 196.225 48.2582C195.866 47.8526 195.246 47.6498 194.366 47.6498H193.046V57.2579H189.226V34.8411ZM194.435 44.4492C195.2 44.4492 195.773 44.2673 196.155 43.9035C196.536 43.5397 196.727 42.9312 196.728 42.0781V40.35C196.728 39.5393 196.572 38.9524 196.259 38.5892C195.947 38.226 195.454 38.0441 194.78 38.0435H193.042V44.4492H194.435Z" fill="white"/>
<path d="M203.224 34.8411H213.645V38.0435H207.048V43.9681H212.293V47.1714H207.048V54.0564H213.648V57.2597H203.224V34.8411Z" fill="white"/>
</svg>
